<?xml version="1.0" encoding="UTF-8" standalone="no"?>
<svg
   xmlns:dc="http://purl.org/dc/elements/1.1/"
   xmlns:cc="http://creativecommons.org/ns#"
   xmlns:rdf="http://www.w3.org/1999/02/22-rdf-syntax-ns#"
   xmlns:svg="http://www.w3.org/2000/svg"
   xmlns="http://www.w3.org/2000/svg"
   xmlns:sodipodi="http://sodipodi.sourceforge.net/DTD/sodipodi-0.dtd"
   xmlns:inkscape="http://www.inkscape.org/namespaces/inkscape"
   role="img"
   viewBox="0 0 60 60"
   version="1.1"
   id="svg227"
   sodipodi:docname="ansible.svg"
   width="60"
   height="60"
   inkscape:version="0.92.5 (2060ec1f9f, 2020-04-08)">
  <metadata
     id="metadata233">
    <rdf:RDF>
      <cc:Work
         rdf:about="">
        <dc:format>image/svg+xml</dc:format>
        <dc:type
           rdf:resource="http://purl.org/dc/dcmitype/StillImage" />
      </cc:Work>
    </rdf:RDF>
  </metadata>
  <defs
     id="defs231" />
  <sodipodi:namedview
     pagecolor="#ffffff"
     bordercolor="#666666"
     borderopacity="1"
     objecttolerance="10"
     gridtolerance="10"
     guidetolerance="10"
     inkscape:pageopacity="0"
     inkscape:pageshadow="2"
     inkscape:window-width="910"
     inkscape:window-height="480"
     id="namedview229"
     showgrid="false"
     inkscape:zoom="9.8333333"
     inkscape:cx="10.220339"
     inkscape:cy="12"
     inkscape:window-x="36"
     inkscape:window-y="0"
     inkscape:window-maximized="0"
     inkscape:current-layer="svg227" />
  <title
     id="title223">Ansible icon</title>
  <path
     d="M 26.5425,28.6825 38.2575,37.92 30.5025,18.765 Z M 30,0 C 13.4275,0 0,13.4275 0,30 0,46.5725 13.4275,60 30,60 46.5725,60 60,46.5725 60,30 60,13.4275 46.5725,0 30,0 Z m 14.4925,43.2625 c -0.0275,1.1775 -1.0075,2.105 -2.1875,2.075 -0.59,0 -1.04,-0.225 -1.66,-0.7325 L 25.17,32.105 19.9725,45.1125 h -4.495 L 28.595,13.6 c 0.31,-0.785 1.0675,-1.3 1.91,-1.265 0.815,-0.035 1.575,0.4725 1.855,1.265 l 11.935,28.735 c 0.1125,0.2775 0.2,0.585 0.2,0.87 -0.0025,0.0225 -0.0025,0.0225 -0.0025,0.0575 z"
     id="path225"
     inkscape:connector-curvature="0"
     style="stroke-width:2.5" />
</svg>
