<?xml version="1.0" encoding="UTF-8" standalone="no"?>
<svg
   xmlns:dc="http://purl.org/dc/elements/1.1/"
   xmlns:cc="http://creativecommons.org/ns#"
   xmlns:rdf="http://www.w3.org/1999/02/22-rdf-syntax-ns#"
   xmlns:svg="http://www.w3.org/2000/svg"
   xmlns="http://www.w3.org/2000/svg"
   xmlns:sodipodi="http://sodipodi.sourceforge.net/DTD/sodipodi-0.dtd"
   xmlns:inkscape="http://www.inkscape.org/namespaces/inkscape"
   role="img"
   viewBox="0 0 61.196068 60"
   version="1.1"
   id="svg6"
   sodipodi:docname="meteor.svg"
   width="61.196068"
   height="60"
   inkscape:version="0.92.5 (2060ec1f9f, 2020-04-08)">
  <metadata
     id="metadata12">
    <rdf:RDF>
      <cc:Work
         rdf:about="">
        <dc:format>image/svg+xml</dc:format>
        <dc:type
           rdf:resource="http://purl.org/dc/dcmitype/StillImage" />
      </cc:Work>
    </rdf:RDF>
  </metadata>
  <defs
     id="defs10" />
  <sodipodi:namedview
     pagecolor="#ffffff"
     bordercolor="#666666"
     borderopacity="1"
     objecttolerance="10"
     gridtolerance="10"
     guidetolerance="10"
     inkscape:pageopacity="0"
     inkscape:pageshadow="2"
     inkscape:window-width="1564"
     inkscape:window-height="872"
     id="namedview8"
     showgrid="false"
     inkscape:zoom="9.8333333"
     inkscape:cx="10.220339"
     inkscape:cy="11.765137"
     inkscape:window-x="36"
     inkscape:window-y="0"
     inkscape:window-maximized="1"
     inkscape:current-layer="svg6" />
  <title
     id="title2">Meteor icon</title>
  <path
     d="m 0,0 55.871504,52.365511 c 0,0 1.050523,1.466142 -0.316177,2.934835 -1.36415,1.468692 -3.151569,0.211634 -3.151569,0.211634 z m 16.594184,5.247515 43.37232,39.873977 c 0,0 1.053073,1.468692 -0.313627,2.937385 -1.3616,1.468692 -3.149019,0.211634 -3.149019,0.211634 z M 4.9364381,16.476892 48.308759,56.350869 c 0,0 1.050523,1.468692 -0.313627,2.937384 -1.36415,1.468693 -3.14902,0.209085 -3.14902,0.209085 z M 30.620705,9.758134 60.927784,37.619942 c 0,0 0.731796,1.022475 -0.221834,2.052599 -0.95363,1.030125 -2.200489,0.147889 -2.200489,0.147889 z M 8.7764566,29.486038 39.083535,57.345296 c 0,0 0.726697,1.019925 -0.224384,2.0475 -0.95618,1.027574 -2.200488,0.150439 -2.200488,0.150439 z M 44.950655,16.265257 58.785941,28.899581 c 0,0 0.362073,0.479365 -0.112192,0.96128 -0.471716,0.479364 -1.09132,0.06884 -1.09132,0.06884 L 44.950655,16.267807 Z m -29.19791,27.073916 13.832736,12.636873 c 0,0 0.367173,0.479365 -0.107092,0.96128 -0.474265,0.481914 -1.08877,0.06629 -1.08877,0.06629 z"
     id="path4"
     inkscape:connector-curvature="0"
     style="stroke-width:2.54981303" />
</svg>
