<?xml version="1.0" encoding="UTF-8" standalone="no"?>
<svg
   xmlns:dc="http://purl.org/dc/elements/1.1/"
   xmlns:cc="http://creativecommons.org/ns#"
   xmlns:rdf="http://www.w3.org/1999/02/22-rdf-syntax-ns#"
   xmlns:svg="http://www.w3.org/2000/svg"
   xmlns="http://www.w3.org/2000/svg"
   xmlns:sodipodi="http://sodipodi.sourceforge.net/DTD/sodipodi-0.dtd"
   xmlns:inkscape="http://www.inkscape.org/namespaces/inkscape"
   width="3380"
   height="2590"
   viewBox="0 0 3380 2590"
   version="1.1"
   id="svg64"
   sodipodi:docname="conseiller-numerique-briques-technologiques.svg"
   inkscape:version="0.92.5 (2060ec1f9f, 2020-04-08)">
  <metadata
     id="metadata70">
    <rdf:RDF>
      <cc:Work
         rdf:about="">
        <dc:format>image/svg+xml</dc:format>
        <dc:type
           rdf:resource="http://purl.org/dc/dcmitype/StillImage" />
        <dc:title></dc:title>
      </cc:Work>
    </rdf:RDF>
  </metadata>
  <defs
     id="defs68">
    <clipPath
       id="freepik--clip-path--inject-1--inject-2">
      <path
         inkscape:connector-curvature="0"
         d="m 57.78,408.82 c 2.87,-9.72 32.6,-110.76 32.5,-111.52 -0.1,-0.76 2.43,-14.33 8.35,-25.64 5.92,-11.31 14.14,-23.91 15.17,-25.45 a 22.09,22.09 0 0 0 3.08,-8.23 c 0.77,-4.11 9,-15.43 11.57,-18.51 2.57,-3.08 10.28,-19.28 10.8,-21.85 0.52,-2.57 3.59,-4.63 7.71,-5.4 4.12,-0.77 9.77,-1.54 9.77,-1.54 a 7.66,7.66 0 0 1 1.8,4.37 c 0,2.31 -9.26,57.58 -9.77,66.84 -0.51,9.26 0.77,14.39 -3.34,23.91 -4.11,9.52 -16.2,15.42 -22.11,19.28 -5.91,3.86 -5.46,4.66 -5.46,4.66 0,0 3.34,92.53 3.26,99.8"
         style="fill:#ffffff;stroke:#2e353a;stroke-linecap:round;stroke-linejoin:round"
         id="path2" />
    </clipPath>
    <clipPath
       id="freepik--clip-path-2--inject-1--inject-2">
      <path
         inkscape:connector-curvature="0"
         d="m 423.24,402.2 c 0,0 -23.75,-43.8 -27.13,-51.48 -3.38,-7.68 -5.93,-19.78 -6.76,-23.1 a 22.32,22.32 0 0 1 -0.32,-12 c 1.25,-5.6 0.51,-21.58 1.07,-25.25 0.56,-3.67 -1.71,-15.15 -3,-21.58 -1.29,-6.43 -4.21,-11 -8.15,-11.5 a 7,7 0 0 0 -6.16,2.41 c 0,0 -1.64,-13.69 -3.23,-16.53 -1.59,-2.84 -6.77,-2.43 -9.54,-1.75 -2.77,0.68 -4.1,9.54 -4.1,9.54 0,0 -2.4,-8.51 -2.47,-12.31 -0.07,-3.8 -4.69,-7.07 -8.29,-6.17 -3.6,0.9 -5.54,2.55 -6.52,10.43 -0.98,7.88 0.87,20.07 0.87,20.07 l -1.87,0.76 c 0,0 -6.74,-23.6 -8.88,-29.83 -2.14,-6.23 -4.2,-13.36 -5.64,-18 -1.44,-4.64 -3.58,-12 -9.47,-10.87 -5.89,1.13 -4.44,14 -4.44,14 0,0 9.21,39.44 9.69,42.55 0.48,3.11 2,13.91 1.7,17.51 -0.3,3.6 -0.29,13 -0.29,13 l -8.77,-10.46 a 45,45 0 0 0 -4.07,-8.1 c -3,-4.84 -9.67,-9.35 -14,-8 -4.33,1.35 -0.91,5.81 0.88,8.3 1.79,2.49 3.24,9.48 3.24,13 0,3.52 3,6 6.62,12.46 3.62,6.46 21.79,28.78 24.54,32.8 a 25.11,25.11 0 0 0 7.53,6.65 c 0,0 10.5,9.15 15.4,20.57 4.9,11.42 19.93,44.21 19.93,44.21"
         style="fill:#ffffff;stroke:#2e353a;stroke-linecap:round;stroke-linejoin:round"
         id="path5" />
    </clipPath>
    <clipPath
       id="freepik--clip-path-3--inject-1--inject-2">
      <path
         inkscape:connector-curvature="0"
         d="m 136.93,257.77 c 0,0 8.49,-1.54 13.11,-7.19 4.62,-5.65 15.68,-12.86 19.28,-14.14 3.6,-1.28 9.26,-1.55 11.32,0.25 2.06,1.8 3.08,6.17 0,11.32 -3.08,5.15 -15.64,9.99 -18.26,12.33 -2.62,2.34 -4.88,3.86 -8,10.8 a 54.43,54.43 0 0 1 -12.85,17.74 c -4.89,4.37 -13.88,11.83 -18.51,14.65"
         style="fill:#ffffff;stroke:#2e353a;stroke-linecap:round;stroke-linejoin:round"
         id="path8" />
    </clipPath>
    <clipPath
       id="freepik--clip-path--inject-1--inject-2-3">
      <path
         inkscape:connector-curvature="0"
         d="m 57.78,408.82 c 2.87,-9.72 32.6,-110.76 32.5,-111.52 -0.1,-0.76 2.43,-14.33 8.35,-25.64 5.92,-11.31 14.14,-23.91 15.17,-25.45 a 22.09,22.09 0 0 0 3.08,-8.23 c 0.77,-4.11 9,-15.43 11.57,-18.51 2.57,-3.08 10.28,-19.28 10.8,-21.85 0.52,-2.57 3.59,-4.63 7.71,-5.4 4.12,-0.77 9.77,-1.54 9.77,-1.54 a 7.66,7.66 0 0 1 1.8,4.37 c 0,2.31 -9.26,57.58 -9.77,66.84 -0.51,9.26 0.77,14.39 -3.34,23.91 -4.11,9.52 -16.2,15.42 -22.11,19.28 -5.91,3.86 -5.46,4.66 -5.46,4.66 0,0 3.34,92.53 3.26,99.8"
         style="fill:#ffffff;stroke:#2e353a;stroke-linecap:round;stroke-linejoin:round"
         id="path2-6" />
    </clipPath>
    <clipPath
       id="freepik--clip-path-2--inject-1--inject-2-7">
      <path
         inkscape:connector-curvature="0"
         d="m 423.24,402.2 c 0,0 -23.75,-43.8 -27.13,-51.48 -3.38,-7.68 -5.93,-19.78 -6.76,-23.1 a 22.32,22.32 0 0 1 -0.32,-12 c 1.25,-5.6 0.51,-21.58 1.07,-25.25 0.56,-3.67 -1.71,-15.15 -3,-21.58 -1.29,-6.43 -4.21,-11 -8.15,-11.5 a 7,7 0 0 0 -6.16,2.41 c 0,0 -1.64,-13.69 -3.23,-16.53 -1.59,-2.84 -6.77,-2.43 -9.54,-1.75 -2.77,0.68 -4.1,9.54 -4.1,9.54 0,0 -2.4,-8.51 -2.47,-12.31 -0.07,-3.8 -4.69,-7.07 -8.29,-6.17 -3.6,0.9 -5.54,2.55 -6.52,10.43 -0.98,7.88 0.87,20.07 0.87,20.07 l -1.87,0.76 c 0,0 -6.74,-23.6 -8.88,-29.83 -2.14,-6.23 -4.2,-13.36 -5.64,-18 -1.44,-4.64 -3.58,-12 -9.47,-10.87 -5.89,1.13 -4.44,14 -4.44,14 0,0 9.21,39.44 9.69,42.55 0.48,3.11 2,13.91 1.7,17.51 -0.3,3.6 -0.29,13 -0.29,13 l -8.77,-10.46 a 45,45 0 0 0 -4.07,-8.1 c -3,-4.84 -9.67,-9.35 -14,-8 -4.33,1.35 -0.91,5.81 0.88,8.3 1.79,2.49 3.24,9.48 3.24,13 0,3.52 3,6 6.62,12.46 3.62,6.46 21.79,28.78 24.54,32.8 a 25.11,25.11 0 0 0 7.53,6.65 c 0,0 10.5,9.15 15.4,20.57 4.9,11.42 19.93,44.21 19.93,44.21"
         style="fill:#ffffff;stroke:#2e353a;stroke-linecap:round;stroke-linejoin:round"
         id="path5-5" />
    </clipPath>
    <clipPath
       id="freepik--clip-path-3--inject-1--inject-2-3">
      <path
         inkscape:connector-curvature="0"
         d="m 136.93,257.77 c 0,0 8.49,-1.54 13.11,-7.19 4.62,-5.65 15.68,-12.86 19.28,-14.14 3.6,-1.28 9.26,-1.55 11.32,0.25 2.06,1.8 3.08,6.17 0,11.32 -3.08,5.15 -15.64,9.99 -18.26,12.33 -2.62,2.34 -4.88,3.86 -8,10.8 a 54.43,54.43 0 0 1 -12.85,17.74 c -4.89,4.37 -13.88,11.83 -18.51,14.65"
         style="fill:#ffffff;stroke:#2e353a;stroke-linecap:round;stroke-linejoin:round"
         id="path8-5" />
    </clipPath>
  </defs>
  <sodipodi:namedview
     pagecolor="#ffffff"
     bordercolor="#666666"
     borderopacity="1"
     objecttolerance="10"
     gridtolerance="10"
     guidetolerance="10"
     inkscape:pageopacity="0"
     inkscape:pageshadow="2"
     inkscape:window-width="1564"
     inkscape:window-height="872"
     id="namedview66"
     showgrid="false"
     inkscape:zoom="0.25772541"
     inkscape:cx="2214.6297"
     inkscape:cy="1321.3081"
     inkscape:window-x="36"
     inkscape:window-y="0"
     inkscape:window-maximized="1"
     inkscape:current-layer="svg64" />
  <g
     transform="matrix(5.090352,0,0,5.090352,487.3516,100.34517)"
     id="g688">
    <g
       id="freepik--Floor--inject-3">
      <ellipse
         style="fill:#f5f5f5"
         ry="135.25999"
         rx="234.27"
         cy="345.67001"
         cx="249.53"
         id="freepik--floor--inject-3" />
    </g>
    <g
       id="freepik--Shadows--inject-3">
      <path
         inkscape:connector-curvature="0"
         style="fill:#e0e0e0"
         d="M 438.58,391.87 361.09,347 a 2.37,2.37 0 0 0 -2.17,0 l -70.81,40.79 a 0.66,0.66 0 0 0 0,1.25 l 77.5,44.87 a 2.35,2.35 0 0 0 2.16,0 l 70.82,-40.79 c 0.59,-0.34 0.59,-0.9 -0.01,-1.25 z"
         id="freepik--Shadow--inject-3" />
      <path
         inkscape:connector-curvature="0"
         style="fill:#e0e0e0"
         d="m 375,294.68 -77.5,-44.87 a 2.41,2.41 0 0 0 -2.16,0 L 85.17,370.92 c -0.6,0.34 -0.6,0.9 0,1.25 L 162.66,417 a 2.38,2.38 0 0 0 2.16,0 L 375,295.93 a 0.66,0.66 0 0 0 0,-1.25 z"
         id="freepik--shadow--inject-3" />
      <ellipse
         style="fill:#e0e0e0"
         ry="28.049999"
         rx="48.59"
         cy="288.42001"
         cx="104.55"
         id="ellipse6" />
    </g>
    <g
       id="freepik--Plants--inject-3">
      <g
         id="freepik--Plant--inject-3">
        <path
           inkscape:connector-curvature="0"
           id="path9"
           style="fill:#ffd700"
           d="m 98.73,375.14 a 33.61,33.61 0 0 1 -17.09,3.33 c -10.19,-0.57 -13.52,-6.22 -13.52,-6.22 0,0 5.87,-8.41 12,-9.79 0,0 -9.91,-0.11 -18.62,3.32 0,0 -6,-1.2 -6.46,-10.91 0,0 4.76,-4.76 17.37,-5.16 0,0 -6.88,-3.4 -17.95,-3 -0.85,0.14 -1.65,-12.46 -1.48,-18.16 0.17,-5.7 2.36,-5.16 6.88,-5.38 4.52,-0.22 19.22,2.2 21.39,5.13 2.17,2.93 1.79,11.25 1.79,11.25 a 25.61,25.61 0 0 0 4.65,-10 c 0,0 2.87,-0.41 8.77,3 10.87,6.27 11.7,13.59 11.81,19.15 0.15,6.17 -1.74,17.67 -9.54,23.44 z" />
        <path
           inkscape:connector-curvature="0"
           id="path11"
           style="fill:#ffffff"
           d="m 98.61,375.7 a 0.59,0.59 0 0 1 -0.43,-0.42 c -4.39,-18.25 -29.82,-43.83 -40,-48.17 a 0.57118298,0.57118298 0 1 1 0.45,-1.05 C 69,330.48 94.83,356.48 99.28,375 a 0.55,0.55 0 0 1 -0.41,0.68 0.46,0.46 0 0 1 -0.26,0.02 z" />
      </g>
      <g
         id="freepik--plant--inject-3">
        <path
           inkscape:connector-curvature="0"
           id="path14"
           style="fill:#ffd700"
           d="m 361,284.65 a 24.83,24.83 0 0 1 -1.34,-4.86 20.67,20.67 0 0 1 0.91,-11.11 13.77,13.77 0 0 1 7.67,-7.86 8.21,8.21 0 0 0 3.32,-1.7 10.54,10.54 0 0 0 2,-3.69 39.32,39.32 0 0 1 2.44,-6.43 11.58,11.58 0 0 1 14.33,-4.51 c 1.14,0.53 2.18,1.24 3.35,1.67 3.73,1.37 7.83,-2.2 11.23,-3.38 4.05,-1.4 8.78,-2.1 12.72,0 4.93,2.64 5.33,8.15 1.52,12.14 -1.79,1.87 -4,3.58 -4.64,6.09 -0.9,3.63 2,7.29 1.49,11 -0.5,3.94 -2.76,5.39 -6.4,6.51 l -4.09,1.27 a 9.07,9.07 0 0 0 -4.44,2.35 c -1.71,2 -1.67,5.18 -2.34,7.6 a 9.51,9.51 0 0 1 -5.1,5.79 25.32,25.32 0 0 1 -14.63,2.47 24.81,24.81 0 0 1 -8.85,-2.45 c -4,-2.12 -7.24,-6.38 -9,-10.47 z" />
        <path
           inkscape:connector-curvature="0"
           id="path16"
           style="fill:#ffffff"
           d="m 365.56,289 c 1.18,0.67 3.18,-3.68 3.76,-4.49 1.47,-2.09 3,-4.11 4.65,-6.08 a 100,100 0 0 1 9.51,-10 95.85,95.85 0 0 1 16.72,-12.43 52.75,52.75 0 0 1 7.7,-3.86 0.6,0.6 0 0 0 0.35,-0.77 0.58,0.58 0 0 0 -0.76,-0.35 c -8.66,3.27 -16.72,9.26 -23.57,15.34 a 101.46,101.46 0 0 0 -10.09,10.33 c -1.22,1.43 -9.55,11.2 -8.35,12.2 z" />
        <path
           inkscape:connector-curvature="0"
           id="path18"
           style="fill:#ffffff"
           d="m 381.65,269.74 h 0.14 c 8.42,-0.91 21.44,1.67 21.57,1.69 a 0.6,0.6 0 0 0 0.7,-0.47 0.59,0.59 0 0 0 -0.47,-0.7 c -0.54,-0.11 -13.32,-2.63 -21.93,-1.71 a 0.59,0.59 0 0 0 0,1.18 z" />
        <path
           inkscape:connector-curvature="0"
           id="path20"
           style="fill:#ffffff"
           d="m 386,265.82 v 0 a 0.59,0.59 0 0 0 0.63,-0.56 45.16,45.16 0 0 0 -1.16,-12.81 0.6,0.6 0 0 0 -1.16,0.3 45,45 0 0 1 1.13,12.44 0.6,0.6 0 0 0 0.56,0.63 z" />
      </g>
    </g>
    <g
       id="freepik--Blocks--inject-3">
      <g
         id="freepik--black-block--inject-3">
        <polygon
           id="polygon24"
           style="fill:#37474f"
           points="302.4,333.5 302.4,293.42 368.36,255.33 368.36,295.42 " />
        <polygon
           id="polygon26"
           style="fill:#263238"
           points="302.4,333.5 302.4,293.42 236.44,255.33 236.44,295.42 " />
        <polygon
           id="polygon28"
           points="302.4,217.25 236.44,255.33 302.4,293.42 368.36,255.33 " />
        <path
           inkscape:connector-curvature="0"
           id="path30"
           style="fill:#37474f"
           d="m 314,262.79 c 3.21,1.85 4.81,4.28 4.81,6.71 v 6.5 c 0,2.43 -1.6,4.86 -4.81,6.71 a 23.81,23.81 0 0 1 -11.63,2.78 V 260 a 23.7,23.7 0 0 1 11.63,2.79 z" />
        <path
           inkscape:connector-curvature="0"
           id="path32"
           style="fill:#263238"
           d="m 290.77,262.79 c -3.21,1.85 -4.81,4.28 -4.81,6.71 v 6.5 c 0,2.43 1.6,4.86 4.81,6.71 a 23.81,23.81 0 0 0 11.63,2.78 V 260 a 23.7,23.7 0 0 0 -11.63,2.79 z" />
        <path
           inkscape:connector-curvature="0"
           id="path34"
           style="fill:#455a64"
           d="m 290.77,262.79 c -6.42,3.7 -6.42,9.71 0,13.42 6.42,3.71 16.83,3.71 23.26,0 6.43,-3.71 6.42,-9.72 0,-13.42 -6.42,-3.7 -16.84,-3.71 -23.26,0 z" />
        <path
           inkscape:connector-curvature="0"
           id="path36"
           style="opacity:0.07000002;fill:#ffffff"
           d="m 290.77,262.79 c -6.42,3.7 -6.42,9.71 0,13.42 6.42,3.71 16.83,3.71 23.26,0 6.43,-3.71 6.42,-9.72 0,-13.42 -6.42,-3.7 -16.84,-3.71 -23.26,0 z" />
        <path
           inkscape:connector-curvature="0"
           id="path38"
           style="fill:#37474f"
           d="m 314,225.64 c 3.21,1.85 4.81,4.28 4.81,6.71 v 6.49 c 0,2.43 -1.6,4.86 -4.81,6.71 a 23.7,23.7 0 0 1 -11.63,2.78 v -25.47 a 23.81,23.81 0 0 1 11.63,2.78 z" />
        <path
           inkscape:connector-curvature="0"
           id="path40"
           style="fill:#263238"
           d="m 290.77,225.64 c -3.21,1.85 -4.81,4.28 -4.81,6.71 v 6.49 c 0,2.43 1.6,4.86 4.81,6.71 a 23.7,23.7 0 0 0 11.63,2.78 v -25.47 a 23.81,23.81 0 0 0 -11.63,2.78 z" />
        <path
           inkscape:connector-curvature="0"
           id="path42"
           style="fill:#455a64"
           d="m 290.77,225.64 c -6.42,3.71 -6.42,9.72 0,13.43 6.42,3.71 16.83,3.7 23.26,0 6.43,-3.7 6.42,-9.72 0,-13.43 -6.42,-3.71 -16.84,-3.71 -23.26,0 z" />
        <path
           inkscape:connector-curvature="0"
           id="path44"
           style="opacity:0.07000002;fill:#ffffff"
           d="m 290.77,225.64 c -6.42,3.71 -6.42,9.72 0,13.43 6.42,3.71 16.83,3.7 23.26,0 6.43,-3.7 6.42,-9.72 0,-13.43 -6.42,-3.71 -16.84,-3.71 -23.26,0 z" />
        <path
           inkscape:connector-curvature="0"
           id="path46"
           style="fill:#37474f"
           d="m 346.18,244.22 c 3.21,1.85 4.82,4.28 4.82,6.71 v 6.49 c 0,2.43 -1.61,4.86 -4.82,6.71 a 23.77,23.77 0 0 1 -11.62,2.78 v -25.47 a 23.66,23.66 0 0 1 11.62,2.78 z" />
        <path
           inkscape:connector-curvature="0"
           id="path48"
           style="fill:#263238"
           d="m 322.93,244.22 c -3.21,1.85 -4.81,4.28 -4.81,6.71 v 6.49 c 0,2.43 1.6,4.86 4.81,6.71 a 23.81,23.81 0 0 0 11.63,2.78 v -25.47 a 23.7,23.7 0 0 0 -11.63,2.78 z" />
        <path
           inkscape:connector-curvature="0"
           id="path50"
           style="fill:#455a64"
           d="m 322.93,244.22 c -6.42,3.7 -6.42,9.71 0,13.42 6.42,3.71 16.83,3.71 23.25,0 6.42,-3.71 6.43,-9.72 0,-13.42 -6.43,-3.7 -16.83,-3.71 -23.25,0 z" />
        <path
           inkscape:connector-curvature="0"
           id="path52"
           style="opacity:0.07000002;fill:#ffffff"
           d="m 322.93,244.22 c -6.42,3.7 -6.42,9.71 0,13.42 6.42,3.71 16.83,3.71 23.25,0 6.42,-3.71 6.43,-9.72 0,-13.42 -6.43,-3.7 -16.83,-3.71 -23.25,0 z" />
        <path
           inkscape:connector-curvature="0"
           id="path54"
           style="fill:#37474f"
           d="m 281.87,244.2 c 3.21,1.86 4.81,4.29 4.81,6.72 v 6.49 c 0,2.42 -1.6,4.85 -4.81,6.71 a 23.81,23.81 0 0 1 -11.63,2.78 v -25.48 a 23.81,23.81 0 0 1 11.63,2.78 z" />
        <path
           inkscape:connector-curvature="0"
           id="path56"
           style="fill:#263238"
           d="m 258.61,244.2 c -3.21,1.86 -4.81,4.29 -4.81,6.72 v 6.49 c 0,2.42 1.6,4.85 4.81,6.71 a 23.81,23.81 0 0 0 11.63,2.78 v -25.48 a 23.81,23.81 0 0 0 -11.63,2.78 z" />
        <path
           inkscape:connector-curvature="0"
           id="path58"
           style="fill:#455a64"
           d="m 258.61,244.2 c -6.42,3.71 -6.42,9.72 0,13.43 6.42,3.71 16.84,3.71 23.26,0 6.42,-3.71 6.42,-9.72 0,-13.43 -6.42,-3.71 -16.87,-3.7 -23.26,0 z" />
        <path
           inkscape:connector-curvature="0"
           id="path60"
           style="opacity:0.07000002;fill:#ffffff"
           d="m 258.61,244.2 c -6.42,3.71 -6.42,9.72 0,13.43 6.42,3.71 16.84,3.71 23.26,0 6.42,-3.71 6.42,-9.72 0,-13.43 -6.42,-3.71 -16.87,-3.7 -23.26,0 z" />
      </g>
      <g
         id="freepik--color-block--inject-3">
        <polygon
           id="polygon63"
           style="fill:#ffd700"
           points="366.69,431.14 366.69,391.05 432.65,352.97 432.65,393.06 " />
        <polygon
           id="polygon65"
           style="opacity:0.1"
           points="366.69,431.14 366.69,391.05 432.65,352.97 432.65,393.06 " />
        <polygon
           id="polygon67"
           style="fill:#ffd700"
           points="366.69,431.14 366.69,391.05 300.73,352.97 300.74,393.06 " />
        <polygon
           id="polygon69"
           style="opacity:0.2"
           points="366.69,431.14 366.69,391.05 300.73,352.97 300.74,393.06 " />
        <polygon
           id="polygon71"
           style="fill:#ffd700"
           points="366.69,314.89 300.73,352.97 366.69,391.05 432.65,352.97 " />
        <path
           inkscape:connector-curvature="0"
           id="path73"
           style="fill:#ffd700"
           d="m 383.13,330 c 0,-2.43 -1.6,-4.86 -4.81,-6.71 -6.42,-3.71 -16.83,-3.71 -23.25,0 -3.21,1.85 -4.82,4.28 -4.82,6.71 v 6.49 c 0,2.43 1.61,4.85 4.82,6.71 6.42,3.71 16.83,3.71 23.25,0 3.21,-1.86 4.82,-4.28 4.81,-6.71 z" />
        <path
           inkscape:connector-curvature="0"
           id="path75"
           style="opacity:0.1"
           d="m 378.32,323.28 c 3.21,1.85 4.82,4.28 4.81,6.71 v 6.49 c 0,2.43 -1.6,4.85 -4.81,6.71 A 23.81,23.81 0 0 1 366.69,346 v -25.5 a 23.7,23.7 0 0 1 11.63,2.78 z" />
        <path
           inkscape:connector-curvature="0"
           id="path77"
           style="opacity:0.2"
           d="m 355.07,323.28 c -3.21,1.85 -4.82,4.28 -4.82,6.71 v 6.49 c 0,2.43 1.61,4.85 4.82,6.71 a 23.8,23.8 0 0 0 11.62,2.81 v -25.5 a 23.69,23.69 0 0 0 -11.62,2.78 z" />
        <path
           inkscape:connector-curvature="0"
           id="path79"
           style="fill:#ffd700"
           d="m 355.07,323.28 c -6.42,3.7 -6.42,9.71 0,13.42 6.42,3.71 16.83,3.71 23.25,0 6.42,-3.71 6.42,-9.72 0,-13.42 -6.42,-3.7 -16.83,-3.71 -23.25,0 z" />
        <path
           inkscape:connector-curvature="0"
           id="path81"
           style="opacity:0.3;fill:#ffffff"
           d="m 355.07,323.28 c -6.42,3.7 -6.42,9.71 0,13.42 6.42,3.71 16.83,3.71 23.25,0 6.42,-3.71 6.42,-9.72 0,-13.42 -6.42,-3.7 -16.83,-3.71 -23.25,0 z" />
        <path
           inkscape:connector-curvature="0"
           id="path83"
           style="fill:#ffd700"
           d="m 383.13,367.13 c 0,-2.42 -1.6,-4.85 -4.81,-6.71 -6.42,-3.71 -16.83,-3.71 -23.25,0 -3.21,1.86 -4.82,4.28 -4.82,6.71 v 6.49 c 0,2.43 1.61,4.86 4.82,6.71 6.42,3.71 16.83,3.71 23.25,0 3.21,-1.85 4.82,-4.28 4.81,-6.71 z" />
        <path
           inkscape:connector-curvature="0"
           id="path85"
           style="opacity:0.1"
           d="m 378.32,360.42 c 3.21,1.86 4.82,4.28 4.81,6.71 v 6.49 c 0,2.43 -1.6,4.86 -4.81,6.71 a 23.59,23.59 0 0 1 -11.63,2.78 v -25.47 a 23.81,23.81 0 0 1 11.63,2.78 z" />
        <path
           inkscape:connector-curvature="0"
           id="path87"
           style="opacity:0.2"
           d="m 355.07,360.42 c -3.21,1.86 -4.82,4.28 -4.82,6.71 v 6.49 c 0,2.43 1.61,4.86 4.82,6.71 a 23.58,23.58 0 0 0 11.62,2.78 v -25.47 a 23.8,23.8 0 0 0 -11.62,2.78 z" />
        <path
           inkscape:connector-curvature="0"
           id="path89"
           style="fill:#ffd700"
           d="m 355.07,360.42 c -6.42,3.71 -6.42,9.72 0,13.43 6.42,3.71 16.83,3.7 23.25,0 6.42,-3.7 6.42,-9.72 0,-13.43 -6.42,-3.71 -16.83,-3.71 -23.25,0 z" />
        <path
           inkscape:connector-curvature="0"
           id="path91"
           style="opacity:0.3;fill:#ffffff"
           d="m 355.07,360.42 c -6.42,3.71 -6.42,9.72 0,13.43 6.42,3.71 16.83,3.7 23.25,0 6.42,-3.7 6.42,-9.72 0,-13.43 -6.42,-3.71 -16.83,-3.71 -23.25,0 z" />
        <path
           inkscape:connector-curvature="0"
           id="path93"
           style="fill:#ffd700"
           d="m 351,348.55 c 0,-2.43 -1.61,-4.86 -4.82,-6.71 -6.42,-3.71 -16.83,-3.71 -23.25,0 -3.21,1.85 -4.82,4.28 -4.82,6.71 V 355 c 0,2.43 1.61,4.86 4.82,6.71 6.42,3.71 16.83,3.71 23.25,0 3.21,-1.85 4.82,-4.28 4.82,-6.71 0,-1.76 0,-4.65 0,-6.45 z" />
        <path
           inkscape:connector-curvature="0"
           id="path95"
           style="opacity:0.1"
           d="m 346.16,341.84 c 3.21,1.85 4.82,4.28 4.82,6.71 0,1.8 0,4.69 0,6.49 0,2.43 -1.61,4.86 -4.82,6.71 a 23.7,23.7 0 0 1 -11.63,2.78 v -25.47 a 23.81,23.81 0 0 1 11.63,2.78 z" />
        <path
           inkscape:connector-curvature="0"
           id="path97"
           style="opacity:0.2"
           d="m 322.91,341.84 c -3.21,1.85 -4.82,4.28 -4.82,6.71 V 355 c 0,2.43 1.61,4.86 4.82,6.71 a 23.69,23.69 0 0 0 11.62,2.78 v -25.43 a 23.8,23.8 0 0 0 -11.62,2.78 z" />
        <path
           inkscape:connector-curvature="0"
           id="path99"
           style="fill:#ffd700"
           d="m 322.91,341.84 c -6.42,3.71 -6.42,9.72 0,13.42 6.42,3.7 16.83,3.71 23.25,0 6.42,-3.71 6.42,-9.71 0,-13.42 -6.42,-3.71 -16.83,-3.71 -23.25,0 z" />
        <path
           inkscape:connector-curvature="0"
           id="path101"
           style="opacity:0.3;fill:#ffffff"
           d="m 322.91,341.84 c -6.42,3.71 -6.42,9.72 0,13.42 6.42,3.7 16.83,3.71 23.25,0 6.42,-3.71 6.42,-9.71 0,-13.42 -6.42,-3.71 -16.83,-3.71 -23.25,0 z" />
        <path
           inkscape:connector-curvature="0"
           id="path103"
           style="fill:#ffd700"
           d="m 415.29,348.56 c 0,-2.43 -1.6,-4.86 -4.81,-6.71 -6.42,-3.71 -16.83,-3.71 -23.25,0 -3.22,1.85 -4.82,4.28 -4.82,6.71 v 6.49 c 0,2.43 1.6,4.86 4.81,6.71 6.43,3.71 16.84,3.71 23.26,0 3.21,-1.85 4.81,-4.28 4.81,-6.71 z" />
        <path
           inkscape:connector-curvature="0"
           id="path105"
           style="opacity:0.1"
           d="m 410.48,341.85 c 3.21,1.85 4.81,4.28 4.81,6.71 v 6.49 c 0,2.43 -1.6,4.86 -4.81,6.71 a 23.7,23.7 0 0 1 -11.63,2.78 v -25.47 a 23.81,23.81 0 0 1 11.63,2.78 z" />
        <path
           inkscape:connector-curvature="0"
           id="path107"
           style="opacity:0.2"
           d="m 387.23,341.85 c -3.22,1.85 -4.82,4.28 -4.82,6.71 v 6.49 c 0,2.43 1.6,4.86 4.81,6.71 a 23.73,23.73 0 0 0 11.63,2.78 v -25.47 a 23.77,23.77 0 0 0 -11.62,2.78 z" />
        <path
           inkscape:connector-curvature="0"
           id="path109"
           style="fill:#ffd700"
           d="m 387.23,341.85 c -6.43,3.71 -6.43,9.72 0,13.43 6.43,3.71 16.84,3.7 23.26,0 6.42,-3.7 6.42,-9.72 0,-13.43 -6.42,-3.71 -16.84,-3.71 -23.26,0 z" />
        <path
           inkscape:connector-curvature="0"
           id="path111"
           style="opacity:0.3;fill:#ffffff"
           d="m 387.23,341.85 c -6.43,3.71 -6.43,9.72 0,13.43 6.43,3.71 16.84,3.7 23.26,0 6.42,-3.7 6.42,-9.72 0,-13.43 -6.42,-3.71 -16.84,-3.71 -23.26,0 z" />
      </g>
      <g
         id="freepik--dark-color-block--inject-3">
        <polygon
           id="polygon114"
           style="fill:#ffd700"
           points="302.4,290.51 302.4,250.42 368.36,212.34 368.36,252.43 " />
        <polygon
           id="polygon116"
           style="opacity:0.3"
           points="302.4,290.51 302.4,250.42 368.36,212.34 368.36,252.43 " />
        <polygon
           id="polygon118"
           style="fill:#ffd700"
           points="302.4,290.51 302.4,250.42 236.44,212.34 236.44,252.43 " />
        <polygon
           id="polygon120"
           style="opacity:0.4"
           points="302.4,290.51 302.4,250.42 236.44,212.34 236.44,252.43 " />
        <polygon
           id="polygon122"
           style="fill:#ffd700"
           points="302.4,174.26 236.44,212.34 302.4,250.42 368.36,212.34 " />
        <polygon
           id="polygon124"
           style="opacity:0.55"
           points="302.4,174.26 236.44,212.34 302.4,250.42 368.36,212.34 " />
        <path
           inkscape:connector-curvature="0"
           id="path126"
           style="fill:#ffd700"
           d="m 318.84,189.36 c 0,-2.43 -1.6,-4.86 -4.81,-6.71 -6.42,-3.71 -16.84,-3.71 -23.26,0 -3.21,1.85 -4.81,4.28 -4.81,6.71 v 6.49 c 0,2.43 1.6,4.86 4.81,6.71 6.42,3.71 16.83,3.71 23.26,0 3.21,-1.85 4.81,-4.28 4.81,-6.71 z" />
        <path
           inkscape:connector-curvature="0"
           id="path128"
           style="opacity:0.3"
           d="m 314,182.65 c 3.21,1.85 4.81,4.28 4.81,6.71 v 6.49 c 0,2.43 -1.6,4.86 -4.81,6.71 a 23.81,23.81 0 0 1 -11.63,2.78 v -25.47 a 23.7,23.7 0 0 1 11.63,2.78 z" />
        <path
           inkscape:connector-curvature="0"
           id="path130"
           style="opacity:0.4"
           d="m 290.77,182.65 c -3.21,1.85 -4.81,4.28 -4.81,6.71 v 6.49 c 0,2.43 1.6,4.86 4.81,6.71 a 23.81,23.81 0 0 0 11.63,2.78 v -25.47 a 23.7,23.7 0 0 0 -11.63,2.78 z" />
        <path
           inkscape:connector-curvature="0"
           id="path132"
           style="fill:#ffd700"
           d="m 290.77,182.65 c -6.42,3.7 -6.42,9.71 0,13.42 6.42,3.71 16.83,3.71 23.26,0 6.43,-3.71 6.42,-9.72 0,-13.42 -6.42,-3.7 -16.84,-3.71 -23.26,0 z" />
        <path
           inkscape:connector-curvature="0"
           id="path134"
           style="opacity:0.3;fill:#ffffff"
           d="m 290.77,182.65 c -6.42,3.7 -6.42,9.71 0,13.42 6.42,3.71 16.83,3.71 23.26,0 6.43,-3.71 6.42,-9.72 0,-13.42 -6.42,-3.7 -16.84,-3.71 -23.26,0 z" />
        <path
           inkscape:connector-curvature="0"
           id="path136"
           style="fill:#ffd700"
           d="m 318.84,226.51 c 0,-2.43 -1.6,-4.86 -4.81,-6.72 -6.42,-3.7 -16.84,-3.7 -23.26,0 -3.21,1.86 -4.81,4.29 -4.81,6.71 v 6.5 c 0,2.43 1.6,4.86 4.81,6.72 6.42,3.7 16.83,3.7 23.26,0 3.21,-1.86 4.81,-4.29 4.81,-6.72 z" />
        <path
           inkscape:connector-curvature="0"
           id="path138"
           style="opacity:0.3"
           d="m 314,219.79 c 3.21,1.86 4.81,4.29 4.81,6.71 v 6.5 c 0,2.43 -1.6,4.86 -4.81,6.72 a 23.81,23.81 0 0 1 -11.63,2.78 V 217 a 23.81,23.81 0 0 1 11.63,2.79 z" />
        <path
           inkscape:connector-curvature="0"
           id="path140"
           style="opacity:0.4"
           d="m 290.77,219.79 c -3.21,1.86 -4.81,4.29 -4.81,6.71 v 6.5 c 0,2.43 1.6,4.86 4.81,6.72 a 23.81,23.81 0 0 0 11.63,2.78 V 217 a 23.81,23.81 0 0 0 -11.63,2.79 z" />
        <path
           inkscape:connector-curvature="0"
           id="path142"
           style="fill:#ffd700"
           d="m 290.77,219.79 c -6.42,3.71 -6.42,9.72 0,13.43 6.42,3.71 16.83,3.71 23.26,0 6.43,-3.71 6.42,-9.72 0,-13.43 -6.42,-3.71 -16.84,-3.7 -23.26,0 z" />
        <path
           inkscape:connector-curvature="0"
           id="path144"
           style="opacity:0.3;fill:#ffffff"
           d="m 290.77,219.79 c -6.42,3.71 -6.42,9.72 0,13.43 6.42,3.71 16.83,3.71 23.26,0 6.43,-3.71 6.42,-9.72 0,-13.43 -6.42,-3.71 -16.84,-3.7 -23.26,0 z" />
        <path
           inkscape:connector-curvature="0"
           id="path146"
           style="fill:#ffd700"
           d="m 286.68,207.92 c 0,-2.43 -1.6,-4.86 -4.81,-6.71 -6.42,-3.71 -16.83,-3.71 -23.26,0 -3.21,1.85 -4.81,4.28 -4.81,6.71 v 6.49 c 0,2.43 1.6,4.86 4.81,6.71 6.42,3.71 16.84,3.71 23.26,0 3.21,-1.85 4.81,-4.28 4.81,-6.71 z" />
        <path
           inkscape:connector-curvature="0"
           id="path148"
           style="opacity:0.3"
           d="m 281.87,201.21 c 3.21,1.85 4.81,4.28 4.81,6.71 v 6.49 c 0,2.43 -1.6,4.86 -4.81,6.71 a 23.7,23.7 0 0 1 -11.63,2.78 v -25.47 a 23.81,23.81 0 0 1 11.63,2.78 z" />
        <path
           inkscape:connector-curvature="0"
           id="path150"
           style="opacity:0.4"
           d="m 258.61,201.21 c -3.21,1.85 -4.81,4.28 -4.81,6.71 v 6.49 c 0,2.43 1.6,4.86 4.81,6.71 a 23.7,23.7 0 0 0 11.63,2.78 v -25.47 a 23.81,23.81 0 0 0 -11.63,2.78 z" />
        <path
           inkscape:connector-curvature="0"
           id="path152"
           style="fill:#ffd700"
           d="m 258.61,201.21 c -6.42,3.71 -6.42,9.72 0,13.43 6.42,3.71 16.84,3.7 23.26,0 6.42,-3.7 6.42,-9.72 0,-13.43 -6.42,-3.71 -16.87,-3.71 -23.26,0 z" />
        <path
           inkscape:connector-curvature="0"
           id="path154"
           style="opacity:0.3;fill:#ffffff"
           d="m 258.61,201.21 c -6.42,3.71 -6.42,9.72 0,13.43 6.42,3.71 16.84,3.7 23.26,0 6.42,-3.7 6.42,-9.72 0,-13.43 -6.42,-3.71 -16.87,-3.71 -23.26,0 z" />
        <path
           inkscape:connector-curvature="0"
           id="path156"
           style="fill:#ffd700"
           d="m 351,207.93 c 0,-2.42 -1.6,-4.85 -4.82,-6.71 -6.42,-3.71 -16.83,-3.71 -23.25,0 -3.21,1.86 -4.81,4.28 -4.81,6.71 v 6.49 c 0,2.43 1.6,4.86 4.81,6.71 6.42,3.71 16.83,3.71 23.25,0 3.22,-1.85 4.82,-4.28 4.82,-6.71 z" />
        <path
           inkscape:connector-curvature="0"
           id="path158"
           style="opacity:0.3"
           d="m 346.18,201.22 c 3.21,1.86 4.82,4.28 4.82,6.71 v 6.49 c 0,2.43 -1.61,4.86 -4.82,6.71 a 23.66,23.66 0 0 1 -11.62,2.78 v -25.47 a 23.77,23.77 0 0 1 11.62,2.78 z" />
        <path
           inkscape:connector-curvature="0"
           id="path160"
           style="opacity:0.4"
           d="m 322.93,201.22 c -3.21,1.86 -4.81,4.28 -4.81,6.71 v 6.49 c 0,2.43 1.6,4.86 4.81,6.71 a 23.7,23.7 0 0 0 11.63,2.78 v -25.47 a 23.81,23.81 0 0 0 -11.63,2.78 z" />
        <path
           inkscape:connector-curvature="0"
           id="path162"
           style="fill:#ffd700"
           d="m 322.93,201.22 c -6.42,3.71 -6.42,9.72 0,13.43 6.42,3.71 16.83,3.7 23.25,0 6.42,-3.7 6.43,-9.72 0,-13.43 -6.43,-3.71 -16.83,-3.71 -23.25,0 z" />
        <path
           inkscape:connector-curvature="0"
           id="path164"
           style="opacity:0.3;fill:#ffffff"
           d="m 322.93,201.22 c -6.42,3.71 -6.42,9.72 0,13.43 6.42,3.71 16.83,3.7 23.25,0 6.42,-3.7 6.43,-9.72 0,-13.43 -6.43,-3.71 -16.83,-3.71 -23.25,0 z" />
      </g>
      <g
         id="g219">
        <polygon
           id="polygon167"
           style="fill:#ffd700"
           points="232.97,373.59 232.97,333.5 298.93,295.42 298.93,335.5 " />
        <polygon
           id="polygon169"
           style="opacity:0.3"
           points="232.97,373.59 232.97,333.5 298.93,295.42 298.93,335.5 " />
        <polygon
           id="polygon171"
           style="fill:#ffd700"
           points="232.97,373.59 232.97,333.5 167.01,295.42 167.01,335.5 " />
        <polygon
           id="polygon173"
           style="opacity:0.4"
           points="232.97,373.59 232.97,333.5 167.01,295.42 167.01,335.5 " />
        <polygon
           id="polygon175"
           style="fill:#ffd700"
           points="232.97,257.34 167.01,295.42 232.97,333.5 298.93,295.42 " />
        <polygon
           id="polygon177"
           style="opacity:0.55"
           points="232.97,257.34 167.01,295.42 232.97,333.5 298.93,295.42 " />
        <path
           inkscape:connector-curvature="0"
           id="path179"
           style="fill:#ffd700"
           d="m 249.41,272.44 c 0,-2.43 -1.6,-4.86 -4.81,-6.71 -6.42,-3.71 -16.83,-3.71 -23.26,0 -3.21,1.85 -4.81,4.28 -4.81,6.71 v 6.49 c 0,2.43 1.6,4.86 4.81,6.71 6.42,3.71 16.84,3.71 23.26,0 3.21,-1.85 4.81,-4.28 4.81,-6.71 z" />
        <path
           inkscape:connector-curvature="0"
           id="path181"
           style="opacity:0.3"
           d="m 244.6,265.73 c 3.21,1.85 4.81,4.28 4.81,6.71 v 6.49 c 0,2.43 -1.6,4.86 -4.81,6.71 A 23.81,23.81 0 0 1 233,288.42 V 263 a 23.7,23.7 0 0 1 11.6,2.73 z" />
        <path
           inkscape:connector-curvature="0"
           id="path183"
           style="opacity:0.4"
           d="m 221.34,265.73 c -3.21,1.85 -4.81,4.28 -4.81,6.71 v 6.49 c 0,2.43 1.6,4.86 4.81,6.71 A 23.81,23.81 0 0 0 233,288.42 V 263 a 23.7,23.7 0 0 0 -11.66,2.73 z" />
        <path
           inkscape:connector-curvature="0"
           id="path185"
           style="fill:#ffd700"
           d="m 221.34,265.73 c -6.42,3.7 -6.42,9.71 0,13.42 6.42,3.71 16.84,3.71 23.26,0 6.42,-3.71 6.42,-9.72 0,-13.42 -6.42,-3.7 -16.83,-3.73 -23.26,0 z" />
        <path
           inkscape:connector-curvature="0"
           id="path187"
           style="opacity:0.3;fill:#ffffff"
           d="m 221.34,265.73 c -6.42,3.7 -6.42,9.71 0,13.42 6.42,3.71 16.84,3.71 23.26,0 6.42,-3.71 6.42,-9.72 0,-13.42 -6.42,-3.7 -16.83,-3.73 -23.26,0 z" />
        <path
           inkscape:connector-curvature="0"
           id="path189"
           style="fill:#ffd700"
           d="m 249.41,309.58 c 0,-2.42 -1.6,-4.85 -4.81,-6.71 -6.42,-3.71 -16.83,-3.71 -23.26,0 -3.21,1.86 -4.81,4.28 -4.81,6.71 v 6.49 c 0,2.43 1.6,4.86 4.81,6.71 6.42,3.71 16.84,3.71 23.26,0 3.21,-1.85 4.81,-4.28 4.81,-6.71 z" />
        <path
           inkscape:connector-curvature="0"
           id="path191"
           style="opacity:0.3"
           d="m 244.6,302.87 c 3.21,1.86 4.81,4.28 4.81,6.71 v 6.49 c 0,2.43 -1.6,4.86 -4.81,6.71 a 23.71,23.71 0 0 1 -11.6,2.79 v -25.48 a 23.81,23.81 0 0 1 11.6,2.78 z" />
        <path
           inkscape:connector-curvature="0"
           id="path193"
           style="opacity:0.4"
           d="m 221.34,302.87 c -3.21,1.86 -4.81,4.28 -4.81,6.71 v 6.49 c 0,2.43 1.6,4.86 4.81,6.71 a 23.71,23.71 0 0 0 11.66,2.79 v -25.48 a 23.81,23.81 0 0 0 -11.66,2.78 z" />
        <path
           inkscape:connector-curvature="0"
           id="path195"
           style="fill:#ffd700"
           d="m 221.34,302.87 c -6.42,3.71 -6.42,9.72 0,13.43 6.42,3.71 16.84,3.7 23.26,0 6.42,-3.7 6.42,-9.72 0,-13.43 -6.42,-3.71 -16.83,-3.71 -23.26,0 z" />
        <path
           inkscape:connector-curvature="0"
           id="path197"
           style="opacity:0.3;fill:#ffffff"
           d="m 221.34,302.87 c -6.42,3.71 -6.42,9.72 0,13.43 6.42,3.71 16.84,3.7 23.26,0 6.42,-3.7 6.42,-9.72 0,-13.43 -6.42,-3.71 -16.83,-3.71 -23.26,0 z" />
        <path
           inkscape:connector-curvature="0"
           id="path199"
           style="fill:#ffd700"
           d="m 217.25,291 c 0,-2.43 -1.6,-4.86 -4.81,-6.71 -6.42,-3.71 -16.83,-3.71 -23.26,0 -3.21,1.85 -4.81,4.28 -4.81,6.71 v 6.49 c 0,2.43 1.6,4.86 4.81,6.71 6.42,3.71 16.84,3.71 23.26,0 3.21,-1.85 4.81,-4.28 4.81,-6.71 z" />
        <path
           inkscape:connector-curvature="0"
           id="path201"
           style="opacity:0.3"
           d="m 212.44,284.29 c 3.21,1.85 4.81,4.28 4.81,6.71 v 6.49 c 0,2.43 -1.6,4.86 -4.81,6.71 a 23.7,23.7 0 0 1 -11.63,2.8 v -25.49 a 23.81,23.81 0 0 1 11.63,2.78 z" />
        <path
           inkscape:connector-curvature="0"
           id="path203"
           style="opacity:0.4"
           d="m 189.18,284.29 c -3.21,1.85 -4.81,4.28 -4.81,6.71 v 6.49 c 0,2.43 1.6,4.86 4.81,6.71 a 23.7,23.7 0 0 0 11.63,2.8 v -25.49 a 23.84,23.84 0 0 0 -11.63,2.78 z" />
        <path
           inkscape:connector-curvature="0"
           id="path205"
           style="fill:#ffd700"
           d="m 189.18,284.29 c -6.42,3.71 -6.42,9.72 0,13.42 6.42,3.7 16.84,3.71 23.26,0 6.42,-3.71 6.42,-9.71 0,-13.42 -6.42,-3.71 -16.83,-3.71 -23.26,0 z" />
        <path
           inkscape:connector-curvature="0"
           id="path207"
           style="opacity:0.3;fill:#ffffff"
           d="m 189.18,284.29 c -6.42,3.71 -6.42,9.72 0,13.42 6.42,3.7 16.84,3.71 23.26,0 6.42,-3.71 6.42,-9.71 0,-13.42 -6.42,-3.71 -16.83,-3.71 -23.26,0 z" />
        <path
           inkscape:connector-curvature="0"
           id="path209"
           style="fill:#ffd700"
           d="m 281.57,291 c 0,-2.43 -1.6,-4.85 -4.82,-6.71 -6.42,-3.71 -16.83,-3.71 -23.25,0 -3.21,1.85 -4.81,4.28 -4.81,6.71 v 6.49 c 0,2.43 1.6,4.86 4.81,6.71 6.42,3.71 16.83,3.71 23.25,0 3.22,-1.85 4.82,-4.28 4.82,-6.71 z" />
        <path
           inkscape:connector-curvature="0"
           id="path211"
           style="opacity:0.3"
           d="m 276.75,284.3 c 3.21,1.85 4.82,4.28 4.82,6.71 v 6.49 c 0,2.43 -1.6,4.86 -4.81,6.71 A 23.73,23.73 0 0 1 265.13,307 v -25.48 a 23.77,23.77 0 0 1 11.62,2.78 z" />
        <path
           inkscape:connector-curvature="0"
           id="path213"
           style="opacity:0.4"
           d="m 253.5,284.3 c -3.21,1.85 -4.81,4.28 -4.81,6.71 v 6.49 c 0,2.43 1.6,4.86 4.81,6.71 a 23.7,23.7 0 0 0 11.63,2.79 v -25.48 a 23.81,23.81 0 0 0 -11.63,2.78 z" />
        <path
           inkscape:connector-curvature="0"
           id="path215"
           style="fill:#ffd700"
           d="m 253.5,284.3 c -6.42,3.71 -6.42,9.72 0,13.43 6.42,3.71 16.83,3.7 23.25,0 6.42,-3.7 6.43,-9.72 0,-13.43 -6.43,-3.71 -16.83,-3.71 -23.25,0 z" />
        <path
           inkscape:connector-curvature="0"
           id="path217"
           style="opacity:0.3;fill:#ffffff"
           d="m 253.5,284.3 c -6.42,3.71 -6.42,9.72 0,13.43 6.42,3.71 16.83,3.7 23.25,0 6.42,-3.7 6.43,-9.72 0,-13.43 -6.43,-3.71 -16.83,-3.71 -23.25,0 z" />
      </g>
      <g
         id="g271">
        <polygon
           id="polygon221"
           style="fill:#ffd700"
           points="232.97,330.59 232.97,290.51 298.93,252.43 298.93,292.51 " />
        <polygon
           id="polygon223"
           style="opacity:0.1"
           points="232.97,330.59 232.97,290.51 298.93,252.43 298.93,292.51 " />
        <polygon
           id="polygon225"
           style="fill:#ffd700"
           points="232.97,330.59 232.97,290.51 167.01,252.43 167.01,292.51 " />
        <polygon
           id="polygon227"
           style="opacity:0.2"
           points="232.97,330.59 232.97,290.51 167.01,252.43 167.01,292.51 " />
        <polygon
           id="polygon229"
           style="fill:#ffd700"
           points="232.97,214.34 167.01,252.43 232.97,290.51 298.93,252.43 " />
        <path
           inkscape:connector-curvature="0"
           id="path231"
           style="fill:#ffd700"
           d="m 249.41,229.44 c 0,-2.43 -1.6,-4.85 -4.81,-6.71 -6.42,-3.71 -16.83,-3.71 -23.26,0 -3.21,1.86 -4.81,4.28 -4.81,6.71 v 6.49 c 0,2.43 1.6,4.86 4.81,6.71 6.42,3.71 16.84,3.71 23.26,0 3.21,-1.85 4.81,-4.28 4.81,-6.71 z" />
        <path
           inkscape:connector-curvature="0"
           id="path233"
           style="opacity:0.1"
           d="m 244.6,222.73 c 3.21,1.86 4.81,4.28 4.81,6.71 v 6.49 c 0,2.43 -1.6,4.86 -4.81,6.71 A 23.7,23.7 0 0 1 233,245.42 V 220 a 23.81,23.81 0 0 1 11.6,2.73 z" />
        <path
           inkscape:connector-curvature="0"
           id="path235"
           style="opacity:0.2"
           d="m 221.34,222.73 c -3.21,1.86 -4.81,4.28 -4.81,6.71 v 6.49 c 0,2.43 1.6,4.86 4.81,6.71 A 23.7,23.7 0 0 0 233,245.42 V 220 a 23.81,23.81 0 0 0 -11.66,2.73 z" />
        <path
           inkscape:connector-curvature="0"
           id="path237"
           style="fill:#ffd700"
           d="m 221.34,222.73 c -6.42,3.71 -6.42,9.72 0,13.43 6.42,3.71 16.84,3.7 23.26,0 6.42,-3.7 6.42,-9.72 0,-13.43 -6.42,-3.71 -16.83,-3.73 -23.26,0 z" />
        <path
           inkscape:connector-curvature="0"
           id="path239"
           style="opacity:0.3;fill:#ffffff"
           d="m 221.34,222.73 c -6.42,3.71 -6.42,9.72 0,13.43 6.42,3.71 16.84,3.7 23.26,0 6.42,-3.7 6.42,-9.72 0,-13.43 -6.42,-3.71 -16.83,-3.73 -23.26,0 z" />
        <path
           inkscape:connector-curvature="0"
           id="path241"
           style="fill:#ffd700"
           d="m 249.41,266.59 c 0,-2.43 -1.6,-4.86 -4.81,-6.71 -6.42,-3.71 -16.83,-3.71 -23.26,0 -3.21,1.85 -4.81,4.28 -4.81,6.71 v 6.49 c 0,2.43 1.6,4.86 4.81,6.71 6.42,3.71 16.84,3.71 23.26,0 3.21,-1.85 4.81,-4.28 4.81,-6.71 z" />
        <path
           inkscape:connector-curvature="0"
           id="path243"
           style="opacity:0.1"
           d="m 244.6,259.88 c 3.21,1.85 4.81,4.28 4.81,6.71 v 6.49 c 0,2.43 -1.6,4.86 -4.81,6.71 A 23.81,23.81 0 0 1 233,282.57 V 257.1 a 23.7,23.7 0 0 1 11.6,2.78 z" />
        <path
           inkscape:connector-curvature="0"
           id="path245"
           style="opacity:0.2"
           d="m 221.34,259.88 c -3.21,1.85 -4.81,4.28 -4.81,6.71 v 6.49 c 0,2.43 1.6,4.86 4.81,6.71 A 23.81,23.81 0 0 0 233,282.57 V 257.1 a 23.7,23.7 0 0 0 -11.66,2.78 z" />
        <path
           inkscape:connector-curvature="0"
           id="path247"
           style="fill:#ffd700"
           d="m 221.34,259.88 c -6.42,3.71 -6.42,9.72 0,13.42 6.42,3.7 16.84,3.71 23.26,0 6.42,-3.71 6.42,-9.71 0,-13.42 -6.42,-3.71 -16.83,-3.71 -23.26,0 z" />
        <path
           inkscape:connector-curvature="0"
           id="path249"
           style="opacity:0.3;fill:#ffffff"
           d="m 221.34,259.88 c -6.42,3.71 -6.42,9.72 0,13.42 6.42,3.7 16.84,3.71 23.26,0 6.42,-3.71 6.42,-9.71 0,-13.42 -6.42,-3.71 -16.83,-3.71 -23.26,0 z" />
        <path
           inkscape:connector-curvature="0"
           id="path251"
           style="fill:#ffd700"
           d="m 217.25,248 c 0,-2.43 -1.6,-4.86 -4.81,-6.71 -6.42,-3.71 -16.83,-3.71 -23.26,0 -3.21,1.85 -4.81,4.28 -4.81,6.71 v 6.49 c 0,2.43 1.6,4.85 4.81,6.71 6.42,3.7 16.84,3.71 23.26,0 3.21,-1.86 4.81,-4.29 4.81,-6.71 z" />
        <path
           inkscape:connector-curvature="0"
           id="path253"
           style="opacity:0.1"
           d="m 212.44,241.3 c 3.21,1.85 4.81,4.28 4.81,6.71 v 6.49 c 0,2.43 -1.6,4.85 -4.81,6.71 A 23.81,23.81 0 0 1 200.81,264 v -25.49 a 23.71,23.71 0 0 1 11.63,2.79 z" />
        <path
           inkscape:connector-curvature="0"
           id="path255"
           style="opacity:0.2"
           d="m 189.18,241.3 c -3.21,1.85 -4.81,4.28 -4.81,6.71 v 6.49 c 0,2.43 1.6,4.85 4.81,6.71 a 23.81,23.81 0 0 0 11.63,2.79 v -25.49 a 23.73,23.73 0 0 0 -11.63,2.79 z" />
        <path
           inkscape:connector-curvature="0"
           id="path257"
           style="fill:#ffd700"
           d="m 189.18,241.3 c -6.42,3.7 -6.42,9.71 0,13.42 6.42,3.71 16.84,3.71 23.26,0 6.42,-3.71 6.42,-9.72 0,-13.42 -6.42,-3.7 -16.83,-3.71 -23.26,0 z" />
        <path
           inkscape:connector-curvature="0"
           id="path259"
           style="opacity:0.3;fill:#ffffff"
           d="m 189.18,241.3 c -6.42,3.7 -6.42,9.71 0,13.42 6.42,3.71 16.84,3.71 23.26,0 6.42,-3.71 6.42,-9.72 0,-13.42 -6.42,-3.7 -16.83,-3.71 -23.26,0 z" />
        <path
           inkscape:connector-curvature="0"
           id="path261"
           style="fill:#ffd700"
           d="m 281.57,248 c 0,-2.43 -1.6,-4.86 -4.82,-6.71 -6.42,-3.71 -16.83,-3.71 -23.25,0 -3.21,1.85 -4.81,4.28 -4.81,6.71 v 6.49 c 0,2.43 1.6,4.86 4.81,6.71 6.42,3.71 16.83,3.71 23.25,0 3.22,-1.85 4.82,-4.28 4.82,-6.71 z" />
        <path
           inkscape:connector-curvature="0"
           id="path263"
           style="opacity:0.1"
           d="m 276.75,241.31 c 3.21,1.85 4.82,4.28 4.82,6.71 v 6.49 c 0,2.43 -1.6,4.86 -4.81,6.71 A 23.84,23.84 0 0 1 265.13,264 v -25.47 a 23.66,23.66 0 0 1 11.62,2.78 z" />
        <path
           inkscape:connector-curvature="0"
           id="path265"
           style="opacity:0.2"
           d="m 253.5,241.31 c -3.21,1.85 -4.81,4.28 -4.81,6.71 v 6.49 c 0,2.43 1.6,4.86 4.81,6.71 a 23.81,23.81 0 0 0 11.63,2.78 v -25.47 a 23.7,23.7 0 0 0 -11.63,2.78 z" />
        <path
           inkscape:connector-curvature="0"
           id="path267"
           style="fill:#ffd700"
           d="m 253.5,241.31 c -6.42,3.7 -6.42,9.71 0,13.42 6.42,3.71 16.83,3.71 23.25,0 6.42,-3.71 6.43,-9.72 0,-13.42 -6.43,-3.7 -16.83,-3.71 -23.25,0 z" />
        <path
           inkscape:connector-curvature="0"
           id="path269"
           style="opacity:0.3;fill:#ffffff"
           d="m 253.5,241.31 c -6.42,3.7 -6.42,9.71 0,13.42 6.42,3.71 16.83,3.71 23.25,0 6.42,-3.71 6.43,-9.72 0,-13.42 -6.43,-3.7 -16.83,-3.71 -23.25,0 z" />
      </g>
      <g
         id="g311">
        <polygon
           id="polygon273"
           style="fill:#37474f"
           points="163.54,413.67 163.54,373.59 229.5,335.5 229.5,375.59 " />
        <polygon
           id="polygon275"
           style="fill:#263238"
           points="163.54,413.67 163.54,373.59 97.58,335.5 97.58,375.59 " />
        <polygon
           id="polygon277"
           style="fill:#455a64"
           points="163.54,297.42 97.58,335.5 163.54,373.59 229.5,335.5 " />
        <path
           inkscape:connector-curvature="0"
           id="path279"
           style="fill:#37474f"
           d="m 175.17,343 c 3.21,1.85 4.81,4.28 4.81,6.71 v 6.49 c 0,2.43 -1.6,4.86 -4.81,6.71 a 23.81,23.81 0 0 1 -11.63,2.78 v -25.51 a 23.7,23.7 0 0 1 11.63,2.82 z" />
        <path
           inkscape:connector-curvature="0"
           id="path281"
           style="fill:#263238"
           d="m 151.91,343 c -3.21,1.85 -4.81,4.28 -4.81,6.71 v 6.49 c 0,2.43 1.6,4.86 4.81,6.71 a 23.81,23.81 0 0 0 11.63,2.78 V 340.18 A 23.7,23.7 0 0 0 151.91,343 Z" />
        <path
           inkscape:connector-curvature="0"
           id="path283"
           style="fill:#455a64"
           d="m 151.91,343 c -6.42,3.7 -6.42,9.72 0,13.42 6.42,3.7 16.84,3.71 23.26,0 6.42,-3.71 6.42,-9.71 0,-13.42 -6.42,-3.71 -16.83,-3.75 -23.26,0 z" />
        <path
           inkscape:connector-curvature="0"
           id="path285"
           style="opacity:0.07000002;fill:#ffffff"
           d="m 151.91,343 c -6.42,3.7 -6.42,9.72 0,13.42 6.42,3.7 16.84,3.71 23.26,0 6.42,-3.71 6.42,-9.71 0,-13.42 -6.42,-3.71 -16.83,-3.75 -23.26,0 z" />
        <path
           inkscape:connector-curvature="0"
           id="path287"
           style="fill:#37474f"
           d="m 175.17,305.81 c 3.21,1.85 4.81,4.28 4.81,6.71 V 319 c 0,2.43 -1.6,4.86 -4.81,6.71 a 23.7,23.7 0 0 1 -11.63,2.78 V 303 a 23.81,23.81 0 0 1 11.63,2.81 z" />
        <path
           inkscape:connector-curvature="0"
           id="path289"
           style="fill:#263238"
           d="m 151.91,305.81 c -3.21,1.85 -4.81,4.28 -4.81,6.71 V 319 c 0,2.43 1.6,4.86 4.81,6.71 a 23.7,23.7 0 0 0 11.63,2.78 V 303 a 23.81,23.81 0 0 0 -11.63,2.81 z" />
        <path
           inkscape:connector-curvature="0"
           id="path291"
           style="fill:#455a64"
           d="m 151.91,305.81 c -6.42,3.71 -6.42,9.72 0,13.43 6.42,3.71 16.84,3.7 23.26,0 6.42,-3.7 6.42,-9.72 0,-13.43 -6.42,-3.71 -16.83,-3.71 -23.26,0 z" />
        <path
           inkscape:connector-curvature="0"
           id="path293"
           style="opacity:0.07000002;fill:#ffffff"
           d="m 151.91,305.81 c -6.42,3.71 -6.42,9.72 0,13.43 6.42,3.71 16.84,3.7 23.26,0 6.42,-3.7 6.42,-9.72 0,-13.43 -6.42,-3.71 -16.83,-3.71 -23.26,0 z" />
        <path
           inkscape:connector-curvature="0"
           id="path295"
           style="fill:#37474f"
           d="m 207.32,324.39 c 3.21,1.85 4.82,4.28 4.82,6.71 v 6.49 c 0,2.43 -1.6,4.86 -4.81,6.71 a 23.84,23.84 0 0 1 -11.63,2.78 v -25.47 a 23.66,23.66 0 0 1 11.62,2.78 z" />
        <path
           inkscape:connector-curvature="0"
           id="path297"
           style="fill:#263238"
           d="m 184.07,324.39 c -3.21,1.85 -4.81,4.28 -4.81,6.71 v 6.49 c 0,2.43 1.6,4.86 4.81,6.71 a 23.81,23.81 0 0 0 11.63,2.78 v -25.47 a 23.7,23.7 0 0 0 -11.63,2.78 z" />
        <path
           inkscape:connector-curvature="0"
           id="path299"
           style="fill:#455a64"
           d="m 184.07,324.39 c -6.42,3.7 -6.42,9.71 0,13.42 6.42,3.71 16.83,3.71 23.25,0 6.42,-3.71 6.43,-9.72 0,-13.42 -6.43,-3.7 -16.83,-3.71 -23.25,0 z" />
        <path
           inkscape:connector-curvature="0"
           id="path301"
           style="opacity:0.07000002;fill:#ffffff"
           d="m 184.07,324.39 c -6.42,3.7 -6.42,9.71 0,13.42 6.42,3.71 16.83,3.71 23.25,0 6.42,-3.71 6.43,-9.72 0,-13.42 -6.43,-3.7 -16.83,-3.71 -23.25,0 z" />
        <path
           inkscape:connector-curvature="0"
           id="path303"
           style="fill:#37474f"
           d="m 143,324.37 c 3.21,1.86 4.81,4.29 4.81,6.72 v 6.49 c 0,2.42 -1.6,4.85 -4.81,6.71 a 23.81,23.81 0 0 1 -11.63,2.78 v -25.48 a 23.81,23.81 0 0 1 11.63,2.78 z" />
        <path
           inkscape:connector-curvature="0"
           id="path305"
           style="fill:#263238"
           d="m 119.75,324.37 c -3.21,1.86 -4.81,4.29 -4.81,6.72 v 6.49 c 0,2.42 1.6,4.85 4.81,6.71 a 23.81,23.81 0 0 0 11.63,2.78 v -25.48 a 23.84,23.84 0 0 0 -11.63,2.78 z" />
        <path
           inkscape:connector-curvature="0"
           id="path307"
           style="fill:#455a64"
           d="m 119.75,324.37 c -6.42,3.71 -6.42,9.72 0,13.43 6.42,3.71 16.84,3.71 23.26,0 6.42,-3.71 6.42,-9.72 0,-13.42 -6.42,-3.7 -16.83,-3.71 -23.26,-0.01 z" />
        <path
           inkscape:connector-curvature="0"
           id="path309"
           style="opacity:0.07000002;fill:#ffffff"
           d="m 119.75,324.37 c -6.42,3.71 -6.42,9.72 0,13.43 6.42,3.71 16.84,3.71 23.26,0 6.42,-3.71 6.42,-9.72 0,-13.42 -6.42,-3.7 -16.83,-3.71 -23.26,-0.01 z" />
      </g>
      <g
         id="g351">
        <polygon
           id="polygon313"
           style="fill:#37474f"
           points="302.4,247.53 302.4,207.44 368.36,169.36 368.36,209.44 " />
        <polygon
           id="polygon315"
           style="fill:#263238"
           points="302.4,247.53 302.4,207.44 236.44,169.36 236.44,209.44 " />
        <polygon
           id="polygon317"
           style="fill:#455a64"
           points="302.4,131.28 236.44,169.36 302.4,207.44 368.36,169.36 " />
        <path
           inkscape:connector-curvature="0"
           id="path319"
           style="fill:#37474f"
           d="m 314,176.81 c 3.21,1.86 4.81,4.29 4.81,6.71 V 190 c 0,2.43 -1.6,4.86 -4.81,6.72 a 23.81,23.81 0 0 1 -11.63,2.78 V 174 a 23.81,23.81 0 0 1 11.63,2.81 z" />
        <path
           inkscape:connector-curvature="0"
           id="path321"
           style="fill:#263238"
           d="m 290.77,176.81 c -3.21,1.86 -4.81,4.29 -4.81,6.71 V 190 c 0,2.43 1.6,4.86 4.81,6.72 a 23.81,23.81 0 0 0 11.63,2.78 V 174 a 23.81,23.81 0 0 0 -11.63,2.81 z" />
        <path
           inkscape:connector-curvature="0"
           id="path323"
           style="fill:#455a64"
           d="m 290.77,176.81 c -6.42,3.71 -6.42,9.72 0,13.43 6.42,3.71 16.83,3.7 23.26,0 6.43,-3.7 6.42,-9.72 0,-13.43 -6.42,-3.71 -16.84,-3.7 -23.26,0 z" />
        <path
           inkscape:connector-curvature="0"
           id="path325"
           style="opacity:0.07000002;fill:#ffffff"
           d="m 290.77,176.81 c -6.42,3.71 -6.42,9.72 0,13.43 6.42,3.71 16.83,3.7 23.26,0 6.43,-3.7 6.42,-9.72 0,-13.43 -6.42,-3.71 -16.84,-3.7 -23.26,0 z" />
        <path
           inkscape:connector-curvature="0"
           id="path327"
           style="fill:#37474f"
           d="m 314,139.67 c 3.21,1.85 4.81,4.28 4.81,6.71 v 6.49 c 0,2.43 -1.6,4.86 -4.81,6.71 a 23.81,23.81 0 0 1 -11.63,2.78 v -25.47 a 23.7,23.7 0 0 1 11.63,2.78 z" />
        <path
           inkscape:connector-curvature="0"
           id="path329"
           style="fill:#263238"
           d="m 290.77,139.67 c -3.21,1.85 -4.81,4.28 -4.81,6.71 v 6.49 c 0,2.43 1.6,4.86 4.81,6.71 a 23.81,23.81 0 0 0 11.63,2.78 v -25.47 a 23.7,23.7 0 0 0 -11.63,2.78 z" />
        <path
           inkscape:connector-curvature="0"
           id="path331"
           style="fill:#455a64"
           d="m 290.77,139.67 c -6.42,3.7 -6.42,9.71 0,13.42 6.42,3.71 16.83,3.71 23.26,0 6.43,-3.71 6.42,-9.72 0,-13.42 -6.42,-3.7 -16.84,-3.67 -23.26,0 z" />
        <path
           inkscape:connector-curvature="0"
           id="path333"
           style="opacity:0.07000002;fill:#ffffff"
           d="m 290.77,139.67 c -6.42,3.7 -6.42,9.71 0,13.42 6.42,3.71 16.83,3.71 23.26,0 6.43,-3.71 6.42,-9.72 0,-13.42 -6.42,-3.7 -16.84,-3.67 -23.26,0 z" />
        <path
           inkscape:connector-curvature="0"
           id="path335"
           style="fill:#37474f"
           d="m 346.18,158.24 c 3.21,1.86 4.82,4.28 4.82,6.71 v 6.49 c 0,2.43 -1.61,4.86 -4.82,6.71 a 23.66,23.66 0 0 1 -11.62,2.78 v -25.47 a 23.77,23.77 0 0 1 11.62,2.78 z" />
        <path
           inkscape:connector-curvature="0"
           id="path337"
           style="fill:#263238"
           d="m 322.93,158.24 c -3.21,1.86 -4.81,4.28 -4.81,6.71 v 6.49 c 0,2.43 1.6,4.86 4.81,6.71 a 23.7,23.7 0 0 0 11.63,2.78 v -25.47 a 23.81,23.81 0 0 0 -11.63,2.78 z" />
        <path
           inkscape:connector-curvature="0"
           id="path339"
           style="fill:#455a64"
           d="m 322.93,158.24 c -6.42,3.71 -6.42,9.72 0,13.43 6.42,3.71 16.83,3.7 23.25,0 6.42,-3.7 6.43,-9.72 0,-13.43 -6.43,-3.71 -16.83,-3.71 -23.25,0 z" />
        <path
           inkscape:connector-curvature="0"
           id="path341"
           style="opacity:0.07000002;fill:#ffffff"
           d="m 322.93,158.24 c -6.42,3.71 -6.42,9.72 0,13.43 6.42,3.71 16.83,3.7 23.25,0 6.42,-3.7 6.43,-9.72 0,-13.43 -6.43,-3.71 -16.83,-3.71 -23.25,0 z" />
        <path
           inkscape:connector-curvature="0"
           id="path343"
           style="fill:#37474f"
           d="m 281.87,158.23 c 3.21,1.85 4.81,4.28 4.81,6.71 v 6.49 c 0,2.43 -1.6,4.86 -4.81,6.71 a 23.7,23.7 0 0 1 -11.63,2.78 v -25.47 a 23.81,23.81 0 0 1 11.63,2.78 z" />
        <path
           inkscape:connector-curvature="0"
           id="path345"
           style="fill:#263238"
           d="m 258.61,158.23 c -3.21,1.85 -4.81,4.28 -4.81,6.71 v 6.49 c 0,2.43 1.6,4.86 4.81,6.71 a 23.7,23.7 0 0 0 11.63,2.78 v -25.47 a 23.81,23.81 0 0 0 -11.63,2.78 z" />
        <path
           inkscape:connector-curvature="0"
           id="path347"
           style="fill:#455a64"
           d="m 258.61,158.23 c -6.42,3.71 -6.42,9.72 0,13.42 6.42,3.7 16.84,3.71 23.26,0 6.42,-3.71 6.42,-9.72 0,-13.43 -6.42,-3.71 -16.87,-3.7 -23.26,0.01 z" />
        <path
           inkscape:connector-curvature="0"
           id="path349"
           style="opacity:0.07000002;fill:#ffffff"
           d="m 258.61,158.23 c -6.42,3.71 -6.42,9.72 0,13.42 6.42,3.7 16.84,3.71 23.26,0 6.42,-3.71 6.42,-9.72 0,-13.43 -6.42,-3.71 -16.87,-3.7 -23.26,0.01 z" />
      </g>
    </g>
    <g
       id="freepik--Clouds--inject-3">
      <path
         inkscape:connector-curvature="0"
         id="path354"
         style="fill:#ebebeb"
         d="m 345.94,83.23 6,3.46 a 7,7 0 0 1 -0.05,-0.79 v -1.74 c 0,-3.09 2.17,-4.35 4.85,-2.8 a 9.43,9.43 0 0 1 2.9,2.78 c 0.44,-3.89 3.49,-5.34 7.2,-3.2 a 16.06,16.06 0 0 1 7.25,12.57 v 2.6 a 6.94,6.94 0 0 1 -0.61,3 l 5,2.88 a 5.94,5.94 0 0 1 2.69,4.66 c 0,1.71 -1.21,2.41 -2.69,1.55 L 345.94,89.44 a 5.92,5.92 0 0 1 -2.69,-4.66 c 0,-1.71 1.2,-2.41 2.69,-1.55 z" />
      <path
         inkscape:connector-curvature="0"
         id="path356"
         style="fill:#ebebeb"
         d="m 385.62,67.29 3.31,1.27 v -7.29 c 0,-5.79 4.61,-7.17 9.62,-4.28 v 0 c 5,2.89 9.06,9.92 9.06,15.7 v 1.06 a 4.86,4.86 0 0 1 4.21,0.65 v 0 a 14.42,14.42 0 0 1 6.52,11.3 v 0.48 l 4.66,2.67 a 9.5,9.5 0 0 1 4.3,7.44 c 0,2.74 -1.93,3.85 -4.3,2.48 L 385.62,77.21 a 9.48,9.48 0 0 1 -4.3,-7.44 c 0,-2.77 1.92,-3.85 4.3,-2.48 z" />
    </g>
    <g
       id="freepik--Character--inject-3">
      <g
         id="freepik--character--inject-3">
        <path
           inkscape:connector-curvature="0"
           id="path359"
           style="fill:#263238"
           d="m 105,69.06 h -4.06 A 19.82,19.82 0 0 1 81.09,49.24 v 0 a 20.65,20.65 0 0 1 20.65,-20.66 h 2.41 a 20.66,20.66 0 0 1 20.65,20.66 v 0 A 19.82,19.82 0 0 1 105,69.06 Z" />
        <path
           inkscape:connector-curvature="0"
           id="path361"
           style="fill:#263238"
           d="m 78.36,60.51 c 3.44,-3.3 7.45,-1.41 11,2.27 3.55,3.68 5.26,7.77 1.82,11.07 -3.44,3.3 -9.09,3 -12.63,-0.69 -3.54,-3.69 -3.63,-9.35 -0.19,-12.65 z" />
        <path
           inkscape:connector-curvature="0"
           id="path363"
           style="fill:#ffa8a7"
           d="m 126.31,89.68 c 4.79,8.11 10.57,17.93 13.81,21.31 6.15,2.86 20.21,8.21 25.86,9 a 4.22,4.22 0 0 0 2.84,-0.67 c 2.22,-1.46 3.94,-1.69 6.29,-2.5 1.83,-0.64 2.61,-1.51 3,-1.18 a 2.09,2.09 0 0 1 -0.2,2.91 15.35,15.35 0 0 1 -2.9,2.17 17.15,17.15 0 0 0 7.65,0.13 c 4.9,-1.28 7.21,1.07 3.9,6.38 -1.19,1.91 -5.85,4.95 -15.31,4.13 a 83.32,83.32 0 0 1 -10.05,-1.19 c -9.07,-1.93 -18.76,-4.76 -25,-6.62 a 15.94,15.94 0 0 1 -6,-4.17 C 119.77,107.49 114.65,96.96 110.08,89.26 l 0.39,-12.58 c 7.37,-0.28 11.83,6.21 15.84,13 z" />
        <path
           inkscape:connector-curvature="0"
           id="path365"
           style="fill:#263238"
           d="m 77.17,278.2 a 50.16,50.16 0 0 0 -0.78,8.25 c -0.1,5 -1,6.78 -1.14,10.89 -0.14,4.69 0.67,6.45 2.58,9.09 1.91,2.64 6.9,5 9,0.57 2.1,-4.43 1.84,-7.38 1.17,-12 -0.67,-4.62 -0.79,-7.39 -1.19,-11 -0.36,-3.2 -0.79,-5.63 -0.79,-5.63 z" />
        <path
           inkscape:connector-curvature="0"
           id="path367"
           style="fill:#ffa8a7"
           d="m 91.38,238.84 -16.49,-0.3 c 0.25,11 2,29.33 2.28,39.66 0,1.95 0,15.11 0.69,19.11 1.1,6 8.23,5.2 8.61,1.6 C 86.85,295.31 86,280 86,278.36 c -0.06,-6.62 3,-23.91 4.67,-35.8 0.11,-0.56 0.63,-3.15 0.71,-3.72 z" />
        <path
           inkscape:connector-curvature="0"
           id="path369"
           style="fill:#263238"
           d="m 115.61,269.64 c 0,0 -0.85,0.05 -1,0.74 -0.15,0.69 -0.2,2.13 -0.54,3.49 a 19.56,19.56 0 0 0 -0.59,6.53 c 0.28,1.53 3.79,3.82 6.19,4.23 2.4,0.41 5.79,2.77 7.67,4.54 a 18.4,18.4 0 0 0 10.66,4.19 c 4,0 6.8,-1.33 8.12,-3.48 1.32,-2.15 -1.21,-2.4 -5.78,-5.37 l -3.56,-2.31 c -7.25,-4.74 -9.91,-7.28 -12,-12 z" />
        <path
           inkscape:connector-curvature="0"
           id="path371"
           style="fill:#ffa8a7"
           d="m 124.9,266.7 c -0.12,-3.4 2.22,-38.42 2.22,-38.42 l -15.66,7.14 c 3.35,20 4.51,31.2 4.12,34.11 v 0 a 3.27,3.27 0 0 0 -0.09,0.84 c 0,3.89 4.41,6 7.83,8.58 1.35,1 4.83,4.18 8.9,5.56 2.64,0.9 7.51,1.24 8.13,-0.36 -4.16,-3.18 -9.83,-7.34 -13.15,-11 -1.58,-1.7 -2.2,-3.04 -2.3,-6.45 z" />
        <path
           inkscape:connector-curvature="0"
           id="path373"
           style="fill:#37474f"
           d="m 81.65,131.45 c -6,13.2 -6,23.41 -5,40.25 0.91,15.45 2.36,29.06 2.36,29.06 -0.23,2.74 -4,8.09 -4.53,20.21 a 245.24,245.24 0 0 0 0.78,25.72 c 0,0 8.55,4.74 14.88,0 0,0 6.1,-29.14 7.89,-43.32 1.56,-12.38 5.93,-38.09 5.93,-38.09 l 7.14,38 a 73.67,73.67 0 0 0 -2.69,12.21 c -0.81,8.34 3.85,24.72 3.85,24.72 0,0 8.84,2.64 14.24,-2.15 0,0 2,-26.63 2.77,-36.67 1,-13.46 -1.28,-50.26 -4.36,-69.14 z" />
        <path
           inkscape:connector-curvature="0"
           id="path375"
           style="fill:#263238"
           d="m 103.94,165.24 1.83,-12.59 c 0,0 10.64,-1.42 15.46,-6 a 17.47,17.47 0 0 1 -12.54,7.93 l -1.88,11.42 3.26,33 z" />
        <path
           inkscape:connector-curvature="0"
           id="path377"
           style="fill:#ffd700"
           d="m 94.52,77.08 v 0 c -3.18,0.22 -7.3,0.87 -7.3,0.87 -3.34,1.87 -5,5.27 -5,9.24 0,4.34 -2.42,6.77 -1.1,13.92 l 5.21,13 c -0.25,3.25 -4.15,10.89 -6.38,21.48 12.74,7.11 29,5.45 38,1.6 a 17.54,17.54 0 0 0 7,-4.93 c -1.48,-7.8 -2,-7.7 -2.82,-14.83 a 52,52 0 0 1 -0.48,-8.69 c 4.08,-5.25 6.26,-10.39 4.2,-15.11 -4.2,-9.58 -12.05,-17.29 -16.09,-17 z" />
        <path
           inkscape:connector-curvature="0"
           id="path379"
           style="opacity:0.7;fill:#ffffff"
           d="m 94.52,77.08 v 0 c -3.18,0.22 -7.3,0.87 -7.3,0.87 -3.34,1.87 -5,5.27 -5,9.24 0,4.34 -2.42,6.77 -1.1,13.92 l 5.21,13 c -0.25,3.25 -4.15,10.89 -6.38,21.48 12.74,7.11 29,5.45 38,1.6 a 17.54,17.54 0 0 0 7,-4.93 c -1.48,-7.8 -2,-7.7 -2.82,-14.83 a 52,52 0 0 1 -0.48,-8.69 c 4.08,-5.25 6.26,-10.39 4.2,-15.11 -4.2,-9.58 -12.05,-17.29 -16.09,-17 z" />
        <path
           inkscape:connector-curvature="0"
           id="path381"
           style="opacity:0.1"
           d="m 112.69,108.22 c 0,0 -5.82,4.52 -12.46,2.16 a 11.38,11.38 0 0 1 -7.62,-8.16 c 0,0 -0.7,7.59 7.68,10.18 a 11,11 0 0 0 12.4,-4.18 z" />
        <path
           inkscape:connector-curvature="0"
           id="path383"
           style="fill:#ffa8a7"
           d="m 116.69,37.87 c 2.31,1.37 5.17,7.17 4.89,19.34 -0.24,10.32 -3.59,12.87 -5.27,13.6 -1.68,0.73 -4.91,0.29 -8.06,-0.23 v 6.19 c 0,0 3.63,3.8 3.35,6.64 -0.28,2.84 -5.69,3.16 -9.77,0.38 A 30,30 0 0 1 95.29,77.71 V 62.36 c 0,0 -1.72,1.83 -4.77,-0.27 a 5.61,5.61 0 0 1 -1.44,-8.16 c 1.32,-1.56 4.69,-1.67 6.31,0.75 0,0 4.23,-0.37 10.92,-4 a 21.52,21.52 0 0 0 10.38,-12.81 z" />
        <path
           inkscape:connector-curvature="0"
           id="path385"
           style="fill:#263238"
           d="m 118,37.86 c 0,0 2.66,6.31 -4.58,11.51 0,0 3.79,-4.53 2.42,-10.22 -1.13,-4.74 1.92,-3.5 2.16,-1.29 z" />
        <path
           inkscape:connector-curvature="0"
           id="path387"
           style="fill:#263238"
           d="m 108.9,54.62 a 1.31,1.31 0 0 1 -1.23,1.38 1.33,1.33 0 0 1 -1.36,-1.28 1.3,1.3 0 1 1 2.59,-0.13 z" />
        <path
           inkscape:connector-curvature="0"
           id="path389"
           style="fill:#f28f8f"
           d="m 110.4,63.37 3,1 a 1.55,1.55 0 0 1 -2,1.08 1.65,1.65 0 0 1 -1,-2.08 z" />
        <path
           inkscape:connector-curvature="0"
           id="path391"
           style="fill:#263238"
           d="m 120.4,50.64 -2.62,-1.82 a 1.53,1.53 0 0 1 2.18,-0.45 1.69,1.69 0 0 1 0.44,2.27 z" />
        <path
           inkscape:connector-curvature="0"
           id="path393"
           style="fill:#263238"
           d="m 119.8,53.69 a 1.3,1.3 0 1 1 -1.37,-1.29 1.34,1.34 0 0 1 1.37,1.29 z" />
        <polygon
           id="polygon395"
           style="fill:#f28f8f"
           points="116.91,59.48 112.6,52.94 112.8,60.75 " />
        <path
           inkscape:connector-curvature="0"
           id="path397"
           style="fill:#f28f8f"
           d="m 108.25,70.58 c -3.32,-0.44 -10.15,-2.4 -11.21,-5.1 a 7,7 0 0 0 2.39,3.45 c 2,1.74 8.82,3.71 8.82,3.71 z" />
        <polygon
           id="polygon399"
           style="fill:#ffd700"
           points="154.83,216.63 154.83,176.54 220.79,138.46 220.79,178.54 " />
        <polygon
           id="polygon401"
           style="opacity:0.3"
           points="154.83,216.63 154.83,176.54 220.79,138.46 220.79,178.54 " />
        <polygon
           id="polygon403"
           style="fill:#ffd700"
           points="154.83,216.63 154.83,176.54 88.87,138.46 88.87,178.54 " />
        <polygon
           id="polygon405"
           style="opacity:0.4"
           points="154.83,216.63 154.83,176.54 88.87,138.46 88.87,178.54 " />
        <path
           inkscape:connector-curvature="0"
           id="path407"
           style="opacity:0.1"
           d="m 100.83,162.77 -3.54,-3.54 c -0.5,-0.49 -1.05,-0.93 -1.53,-1.46 -0.18,-0.19 -1.1,-1.26 -0.81,-1.55 a 0.29,0.29 0 0 1 0.24,-0.05 c 1.57,0.16 3.56,0.09 4.66,-1.23 a 1.69,1.69 0 0 0 0.38,-0.77 0.85,0.85 0 0 0 -0.13,-0.6 c -0.23,-0.34 -0.83,-0.34 -1.2,-0.45 a 6.7,6.7 0 0 1 -1.35,-0.58 15.88,15.88 0 0 0 -2.29,-1 l -3.14,-0.67 a 4.33,4.33 0 0 0 -3.25,-0.9 v 17.91 a 10.33,10.33 0 0 0 4.22,1.28 10.65,10.65 0 0 0 5.73,-0.93 c 1.45,-0.72 3.75,-2.58 2.83,-4.47 a 4,4 0 0 0 -0.82,-0.99 z" />
        <polygon
           id="polygon409"
           style="fill:#ffd700"
           points="154.83,100.38 88.87,138.46 154.83,176.54 220.79,138.46 " />
        <polygon
           id="polygon411"
           style="opacity:0.15"
           points="154.83,100.38 88.87,138.46 154.83,176.54 220.79,138.46 " />
        <path
           inkscape:connector-curvature="0"
           id="path413"
           style="fill:#ffd700"
           d="m 171.27,115.48 c 0,-2.43 -1.6,-4.86 -4.82,-6.71 -6.42,-3.71 -16.83,-3.71 -23.25,0 -3.21,1.85 -4.81,4.28 -4.81,6.71 V 122 c 0,2.43 1.6,4.85 4.81,6.71 6.42,3.7 16.83,3.71 23.25,0 3.22,-1.86 4.82,-4.29 4.82,-6.71 z" />
        <path
           inkscape:connector-curvature="0"
           id="path415"
           style="opacity:0.3"
           d="m 166.45,108.77 c 3.21,1.85 4.82,4.28 4.82,6.71 V 122 c 0,2.43 -1.6,4.85 -4.82,6.71 a 23.77,23.77 0 0 1 -11.62,2.78 V 106 a 23.67,23.67 0 0 1 11.62,2.77 z" />
        <path
           inkscape:connector-curvature="0"
           id="path417"
           style="opacity:0.4"
           d="m 143.2,108.77 c -3.21,1.85 -4.81,4.28 -4.81,6.71 V 122 c 0,2.43 1.6,4.85 4.81,6.71 a 23.81,23.81 0 0 0 11.63,2.78 V 106 a 23.71,23.71 0 0 0 -11.63,2.77 z" />
        <path
           inkscape:connector-curvature="0"
           id="path419"
           style="fill:#ffd700"
           d="m 143.2,108.77 c -6.42,3.7 -6.42,9.71 0,13.42 6.42,3.71 16.83,3.71 23.25,0 6.42,-3.71 6.43,-9.72 0,-13.42 -6.43,-3.7 -16.83,-3.71 -23.25,0 z" />
        <path
           inkscape:connector-curvature="0"
           id="path421"
           style="fill:#ffd700"
           d="m 171.27,152.62 c 0,-2.43 -1.6,-4.85 -4.82,-6.71 -6.42,-3.71 -16.83,-3.71 -23.25,0 -3.21,1.85 -4.81,4.28 -4.81,6.71 v 6.49 c 0,2.43 1.6,4.86 4.81,6.71 6.42,3.71 16.83,3.71 23.25,0 3.22,-1.85 4.82,-4.28 4.82,-6.71 z" />
        <path
           inkscape:connector-curvature="0"
           id="path423"
           style="opacity:0.3"
           d="m 166.45,145.91 c 3.21,1.85 4.82,4.28 4.82,6.71 v 6.49 c 0,2.43 -1.6,4.86 -4.82,6.71 a 23.66,23.66 0 0 1 -11.62,2.78 v -25.47 a 23.77,23.77 0 0 1 11.62,2.78 z" />
        <path
           inkscape:connector-curvature="0"
           id="path425"
           style="opacity:0.4"
           d="m 143.2,145.91 c -3.21,1.85 -4.81,4.28 -4.81,6.71 v 6.49 c 0,2.43 1.6,4.86 4.81,6.71 a 23.7,23.7 0 0 0 11.63,2.78 v -25.47 a 23.81,23.81 0 0 0 -11.63,2.78 z" />
        <path
           inkscape:connector-curvature="0"
           id="path427"
           style="fill:#ffd700"
           d="m 143.2,145.91 c -6.42,3.71 -6.42,9.72 0,13.43 6.42,3.71 16.83,3.7 23.25,0 6.42,-3.7 6.43,-9.72 0,-13.43 -6.43,-3.71 -16.83,-3.71 -23.25,0 z" />
        <path
           inkscape:connector-curvature="0"
           id="path429"
           style="fill:#ffd700"
           d="m 139.11,134 c 0,-2.43 -1.6,-4.86 -4.81,-6.71 -6.43,-3.71 -16.84,-3.71 -23.26,0 -3.21,1.85 -4.81,4.28 -4.81,6.71 v 6.49 c 0,2.43 1.6,4.86 4.81,6.71 6.42,3.71 16.83,3.71 23.26,0 3.21,-1.85 4.81,-4.28 4.81,-6.71 z" />
        <path
           inkscape:connector-curvature="0"
           id="path431"
           style="opacity:0.3"
           d="m 134.3,127.33 c 3.21,1.85 4.81,4.28 4.81,6.71 v 6.49 c 0,2.43 -1.6,4.86 -4.81,6.71 A 23.81,23.81 0 0 1 122.67,150 v -25.45 a 23.84,23.84 0 0 1 11.63,2.78 z" />
        <path
           inkscape:connector-curvature="0"
           id="path433"
           style="opacity:0.4"
           d="m 111,127.33 c -3.21,1.85 -4.81,4.28 -4.81,6.71 v 6.49 c 0,2.43 1.6,4.86 4.81,6.71 A 23.81,23.81 0 0 0 122.67,150 V 124.55 A 23.81,23.81 0 0 0 111,127.33 Z" />
        <path
           inkscape:connector-curvature="0"
           id="path435"
           style="fill:#ffd700"
           d="m 111,127.33 c -6.42,3.71 -6.42,9.72 0,13.42 6.42,3.7 16.83,3.71 23.26,0 6.43,-3.71 6.42,-9.71 0,-13.42 -6.42,-3.71 -16.8,-3.71 -23.26,0 z" />
        <path
           inkscape:connector-curvature="0"
           id="path437"
           style="fill:#ffd700"
           d="m 203.43,134.05 c 0,-2.43 -1.61,-4.86 -4.82,-6.71 -6.42,-3.71 -16.83,-3.71 -23.25,0 -3.21,1.85 -4.82,4.28 -4.81,6.71 v 6.49 c 0,2.43 1.6,4.86 4.81,6.71 6.42,3.71 16.83,3.71 23.25,0 3.21,-1.85 4.82,-4.28 4.82,-6.71 z" />
        <path
           inkscape:connector-curvature="0"
           id="path439"
           style="opacity:0.3"
           d="m 198.61,127.34 c 3.21,1.85 4.82,4.28 4.82,6.71 v 6.49 c 0,2.43 -1.61,4.86 -4.82,6.71 A 23.69,23.69 0 0 1 187,150 v -25.44 a 23.8,23.8 0 0 1 11.61,2.78 z" />
        <path
           inkscape:connector-curvature="0"
           id="path441"
           style="opacity:0.4"
           d="m 175.36,127.34 c -3.21,1.85 -4.82,4.28 -4.81,6.71 v 6.49 c 0,2.43 1.6,4.86 4.81,6.71 A 23.7,23.7 0 0 0 187,150 v -25.44 a 23.81,23.81 0 0 0 -11.64,2.78 z" />
        <path
           inkscape:connector-curvature="0"
           id="path443"
           style="fill:#ffd700"
           d="m 175.36,127.34 c -6.42,3.71 -6.42,9.72 0,13.43 6.42,3.71 16.83,3.7 23.25,0 6.42,-3.7 6.42,-9.72 0,-13.43 -6.42,-3.71 -16.83,-3.71 -23.25,0 z" />
        <path
           inkscape:connector-curvature="0"
           id="path445"
           style="fill:#ffa8a7"
           d="M 60.55,116.61 C 64.32,108.39 71,95.68 74.16,89.22 c 4.61,-9.3 8.39,-11.32 14.71,-11.51 2.49,2.16 3.69,9.66 -0.34,19.28 -3.37,5.78 -13.75,23.53 -13.75,23.53 0.5,1.44 8.6,21.43 11.92,26 a 4.09,4.09 0 0 0 2.45,1.56 c 2.62,0.56 6,2.63 8.18,3.73 1.74,0.86 2.93,0.8 2.91,1.28 a 2.2,2.2 0 0 1 -2.31,1.9 36.38,36.38 0 0 1 -5.15,-1 61,61 0 0 0 6.07,5.56 c 4,3.07 4.52,6.29 -1.76,7.66 -4.75,1 -7.8,-1.14 -13.67,-8.46 -1.69,-2.11 -3.73,-5.37 -5.8,-8.11 -5.21,-6.89 -8,-11.74 -11.17,-16.06 -9.07,-12.18 -7.29,-14.94 -5.9,-17.97 z" />
      </g>
    </g>
  </g>
</svg>
