<?xml version="1.0" encoding="UTF-8" standalone="no"?>
<svg
   xmlns:dc="http://purl.org/dc/elements/1.1/"
   xmlns:cc="http://creativecommons.org/ns#"
   xmlns:rdf="http://www.w3.org/1999/02/22-rdf-syntax-ns#"
   xmlns:svg="http://www.w3.org/2000/svg"
   xmlns="http://www.w3.org/2000/svg"
   xmlns:sodipodi="http://sodipodi.sourceforge.net/DTD/sodipodi-0.dtd"
   xmlns:inkscape="http://www.inkscape.org/namespaces/inkscape"
   width="3380"
   height="2590"
   viewBox="0 0 3380 2590"
   version="1.1"
   id="svg64"
   sodipodi:docname="conseiller-numerique-choix-outils.svg"
   inkscape:version="0.92.5 (2060ec1f9f, 2020-04-08)">
  <metadata
     id="metadata70">
    <rdf:RDF>
      <cc:Work
         rdf:about="">
        <dc:format>image/svg+xml</dc:format>
        <dc:type
           rdf:resource="http://purl.org/dc/dcmitype/StillImage" />
        <dc:title></dc:title>
      </cc:Work>
    </rdf:RDF>
  </metadata>
  <defs
     id="defs68">
    <clipPath
       id="freepik--clip-path--inject-1--inject-2">
      <path
         inkscape:connector-curvature="0"
         d="m 57.78,408.82 c 2.87,-9.72 32.6,-110.76 32.5,-111.52 -0.1,-0.76 2.43,-14.33 8.35,-25.64 5.92,-11.31 14.14,-23.91 15.17,-25.45 a 22.09,22.09 0 0 0 3.08,-8.23 c 0.77,-4.11 9,-15.43 11.57,-18.51 2.57,-3.08 10.28,-19.28 10.8,-21.85 0.52,-2.57 3.59,-4.63 7.71,-5.4 4.12,-0.77 9.77,-1.54 9.77,-1.54 a 7.66,7.66 0 0 1 1.8,4.37 c 0,2.31 -9.26,57.58 -9.77,66.84 -0.51,9.26 0.77,14.39 -3.34,23.91 -4.11,9.52 -16.2,15.42 -22.11,19.28 -5.91,3.86 -5.46,4.66 -5.46,4.66 0,0 3.34,92.53 3.26,99.8"
         style="fill:#ffffff;stroke:#2e353a;stroke-linecap:round;stroke-linejoin:round"
         id="path2" />
    </clipPath>
    <clipPath
       id="freepik--clip-path-2--inject-1--inject-2">
      <path
         inkscape:connector-curvature="0"
         d="m 423.24,402.2 c 0,0 -23.75,-43.8 -27.13,-51.48 -3.38,-7.68 -5.93,-19.78 -6.76,-23.1 a 22.32,22.32 0 0 1 -0.32,-12 c 1.25,-5.6 0.51,-21.58 1.07,-25.25 0.56,-3.67 -1.71,-15.15 -3,-21.58 -1.29,-6.43 -4.21,-11 -8.15,-11.5 a 7,7 0 0 0 -6.16,2.41 c 0,0 -1.64,-13.69 -3.23,-16.53 -1.59,-2.84 -6.77,-2.43 -9.54,-1.75 -2.77,0.68 -4.1,9.54 -4.1,9.54 0,0 -2.4,-8.51 -2.47,-12.31 -0.07,-3.8 -4.69,-7.07 -8.29,-6.17 -3.6,0.9 -5.54,2.55 -6.52,10.43 -0.98,7.88 0.87,20.07 0.87,20.07 l -1.87,0.76 c 0,0 -6.74,-23.6 -8.88,-29.83 -2.14,-6.23 -4.2,-13.36 -5.64,-18 -1.44,-4.64 -3.58,-12 -9.47,-10.87 -5.89,1.13 -4.44,14 -4.44,14 0,0 9.21,39.44 9.69,42.55 0.48,3.11 2,13.91 1.7,17.51 -0.3,3.6 -0.29,13 -0.29,13 l -8.77,-10.46 a 45,45 0 0 0 -4.07,-8.1 c -3,-4.84 -9.67,-9.35 -14,-8 -4.33,1.35 -0.91,5.81 0.88,8.3 1.79,2.49 3.24,9.48 3.24,13 0,3.52 3,6 6.62,12.46 3.62,6.46 21.79,28.78 24.54,32.8 a 25.11,25.11 0 0 0 7.53,6.65 c 0,0 10.5,9.15 15.4,20.57 4.9,11.42 19.93,44.21 19.93,44.21"
         style="fill:#ffffff;stroke:#2e353a;stroke-linecap:round;stroke-linejoin:round"
         id="path5" />
    </clipPath>
    <clipPath
       id="freepik--clip-path-3--inject-1--inject-2">
      <path
         inkscape:connector-curvature="0"
         d="m 136.93,257.77 c 0,0 8.49,-1.54 13.11,-7.19 4.62,-5.65 15.68,-12.86 19.28,-14.14 3.6,-1.28 9.26,-1.55 11.32,0.25 2.06,1.8 3.08,6.17 0,11.32 -3.08,5.15 -15.64,9.99 -18.26,12.33 -2.62,2.34 -4.88,3.86 -8,10.8 a 54.43,54.43 0 0 1 -12.85,17.74 c -4.89,4.37 -13.88,11.83 -18.51,14.65"
         style="fill:#ffffff;stroke:#2e353a;stroke-linecap:round;stroke-linejoin:round"
         id="path8" />
    </clipPath>
  </defs>
  <sodipodi:namedview
     pagecolor="#ffffff"
     bordercolor="#666666"
     borderopacity="1"
     objecttolerance="10"
     gridtolerance="10"
     guidetolerance="10"
     inkscape:pageopacity="0"
     inkscape:pageshadow="2"
     inkscape:window-width="1564"
     inkscape:window-height="872"
     id="namedview66"
     showgrid="false"
     inkscape:zoom="0.25772541"
     inkscape:cx="2214.6297"
     inkscape:cy="1321.3081"
     inkscape:window-x="36"
     inkscape:window-y="0"
     inkscape:window-maximized="1"
     inkscape:current-layer="svg64" />
  <g
     transform="matrix(6.3659899,0,0,6.3659899,106.96396,-313.39918)"
     id="g308">
    <g
       id="freepik--background-simple--inject-1--inject-2">
      <path
         inkscape:connector-curvature="0"
         id="path13"
         style="fill:#ffd700"
         d="m 423.88,284.81 c 23.72,-37.14 34.2,-92.44 12,-132.72 C 415.32,114.94 371,97 330.17,96 c -35.32,-0.86 -63.36,9.59 -90.92,30.11 -14.21,10.59 -28.57,21.92 -45.68,28.09 -13.36,4.82 -27.1,8.14 -40.88,11.82 -49.83,13.33 -80.54,58.54 -73.85,107.15 5.16,37.36 34.16,72.11 71.16,85.99 28.69,10.76 58.84,2.81 86.56,-6.59 14.94,-5.07 30,-10.31 45.77,-12.67 15.25,-2.29 30,0.57 45.1,-1.08 37.21,-4.06 75.57,-21.28 96.45,-54.01 z" />
      <path
         inkscape:connector-curvature="0"
         id="path15"
         style="opacity:0.7;fill:#ffffff"
         d="m 423.88,284.81 c 23.72,-37.14 34.2,-92.44 12,-132.72 C 415.32,114.94 371,97 330.17,96 c -35.32,-0.86 -63.36,9.59 -90.92,30.11 -14.21,10.59 -28.57,21.92 -45.68,28.09 -13.36,4.82 -27.1,8.14 -40.88,11.82 -49.83,13.33 -80.54,58.54 -73.85,107.15 5.16,37.36 34.16,72.11 71.16,85.99 28.69,10.76 58.84,2.81 86.56,-6.59 14.94,-5.07 30,-10.31 45.77,-12.67 15.25,-2.29 30,0.57 45.1,-1.08 37.21,-4.06 75.57,-21.28 96.45,-54.01 z" />
    </g>
    <g
       id="freepik--Desk--inject-1--inject-2">
      <polygon
         id="polygon18"
         style="fill:#ffd700"
         points="235.71,302.99 235.71,311.47 239.94,311.47 239.94,397.66 431.42,397.66 431.42,311.47 435.65,311.47 435.65,302.99 431.42,302.99 239.94,302.99 " />
      <polygon
         id="polygon20"
         style="opacity:0.5;fill:#ffffff"
         points="235.71,302.99 235.71,311.47 239.94,311.47 239.94,397.66 431.42,397.66 431.42,311.47 435.65,311.47 435.65,302.99 431.42,302.99 239.94,302.99 " />
      <path
         inkscape:connector-curvature="0"
         id="path22"
         style="fill:#ffffff"
         d="m 245.07,348 h 52.22 v -27.88 h -52.22 z m 1.06,-26.85 h 50.1 V 347 h -50.1 z" />
      <path
         inkscape:connector-curvature="0"
         id="path24"
         style="fill:#ffffff"
         d="m 309.92,348 h 52.23 V 320.12 H 309.92 Z M 311,321.18 h 50.11 V 347 H 311 Z" />
      <path
         inkscape:connector-curvature="0"
         id="path26"
         style="fill:#ffffff"
         d="M 374.78,320.12 V 348 H 427 V 320.12 Z M 425.94,347 h -50.1 v -25.82 h 50.1 z" />
      <path
         inkscape:connector-curvature="0"
         id="path28"
         style="fill:#ffffff"
         d="m 245.07,385.48 h 52.22 v -27.91 h -52.22 z m 1.06,-26.85 h 50.1 v 25.79 h -50.1 z" />
      <path
         inkscape:connector-curvature="0"
         id="path30"
         style="fill:#ffffff"
         d="m 309.92,385.48 h 52.23 V 357.57 H 309.92 Z M 311,358.63 h 50.11 v 25.79 H 311 Z" />
      <path
         inkscape:connector-curvature="0"
         id="path32"
         style="fill:#ffffff"
         d="M 374.78,385.48 H 427 v -27.91 h -52.22 z m 1.06,-26.85 h 50.1 v 25.79 h -50.1 z" />
      <ellipse
         id="ellipse34"
         style="fill:#ffffff"
         ry="3.1800001"
         rx="8.4799995"
         cy="334.42999"
         cx="271.73999" />
      <ellipse
         id="ellipse36"
         style="fill:#ffffff"
         ry="3.1800001"
         rx="8.4799995"
         cy="334.42999"
         cx="336.28" />
      <ellipse
         id="ellipse38"
         style="fill:#ffffff"
         ry="3.1800001"
         rx="8.4799995"
         cy="334.42999"
         cx="402.69" />
      <path
         inkscape:connector-curvature="0"
         id="path40"
         style="fill:#ffffff"
         d="m 271.74,368.7 c -4.68,0 -8.48,1.42 -8.48,3.18 0,1.76 3.8,3.17 8.48,3.17 4.68,0 8.48,-1.42 8.48,-3.17 0,-1.75 -3.8,-3.18 -8.48,-3.18 z" />
      <path
         inkscape:connector-curvature="0"
         id="path42"
         style="fill:#ffffff"
         d="m 336.28,368.7 c -4.68,0 -8.48,1.42 -8.48,3.18 0,1.76 3.8,3.17 8.48,3.17 4.68,0 8.48,-1.42 8.48,-3.17 0,-1.75 -3.76,-3.18 -8.48,-3.18 z" />
      <path
         inkscape:connector-curvature="0"
         id="path44"
         style="fill:#ffffff"
         d="m 402.69,368.7 c -4.68,0 -8.47,1.42 -8.47,3.18 0,1.76 3.79,3.17 8.47,3.17 4.68,0 8.48,-1.42 8.48,-3.17 0,-1.75 -3.79,-3.18 -8.48,-3.18 z" />
    </g>
    <g
       id="freepik--Plants--inject-1--inject-2">
      <path
         inkscape:connector-curvature="0"
         id="path47"
         style="fill:#ffd700"
         d="m 212.18,295.58 c -3.86,5.73 -9.24,13.18 -12.11,19.16 1.09,-3.94 2.16,-7.67 3.13,-11 1.47,-2.89 5.41,-10.18 10,-15 5.77,-6.18 8.24,-10.15 5.13,-10.49 -2.15,-0.24 -8.45,8.15 -12.4,16.48 0.86,-2.85 1.54,-5 2,-6.29 0.19,-0.58 0.37,-1.21 0.55,-1.88 a 166.85,166.85 0 0 0 11.14,-17.87 c 5.83,-10.89 7.71,-21.17 3.82,-16.75 -3.58,4.07 -9.81,24.31 -14.76,33.83 0.42,-1.64 0.82,-3.45 1.17,-5.24 0.7,-1.73 1.62,-3.49 2.14,-5.09 0.81,-2.46 1.52,-4.94 2.09,-7.47 a 51.77,51.77 0 0 0 1.42,-12 24.29,24.29 0 0 0 -3.72,-13.44 c -0.67,-1 -4.77,-7.13 -6,-4 a 3.36,3.36 0 0 0 -0.09,1.61 c 0.6,5.21 2.49,10 3.66,15.07 1.75,7.59 0.59,20.33 0,25.75 -0.22,0.86 -0.5,1.92 -0.83,3.15 0.81,-9.44 -3.28,-20.63 -7.07,-22.59 -4.69,-2.42 -0.09,7.08 3.53,15.38 a 24.79,24.79 0 0 1 2.35,11.64 c -0.74,2.72 -1.59,5.79 -2.47,8.89 -0.18,0.42 -0.34,0.85 -0.5,1.27 a 26,26 0 0 0 0.49,-6.15 c -0.34,-5.42 -6.48,-16.27 -10.56,-14.74 -4.08,1.53 2.83,7.25 6.52,13.91 a 20.08,20.08 0 0 1 2.13,12 c 0,0.25 -0.08,0.49 -0.11,0.72 -0.43,1.42 -0.85,2.78 -1.25,4.08 -1,3 -1.85,5.88 -2.7,8.66 a 43.4,43.4 0 0 0 1.36,-12.36 c -0.51,-7.94 -5.16,-15.44 -9,-16.47 -3.84,-1.03 3.49,11.93 5.95,19.21 a 26.12,26.12 0 0 1 0.66,13.14 c -1.19,3.94 -2.31,7.83 -3.46,11.94 a 99.51,99.51 0 0 0 -0.35,-16.15 c -0.75,-8.84 -6,-14.48 -9.62,-14.25 -3.62,0.23 0.16,5.25 5.38,16 a 35.91,35.91 0 0 1 3.56,18.18 c -0.47,1.73 -1,3.51 -1.44,5.37 -0.56,2.12 -1,4.43 -1.4,6.79 -0.52,-2.11 -1.3,-5.19 -2.21,-8.59 a 76.13,76.13 0 0 1 -2.3,-11.47 c -0.49,-4.51 -1.68,-10.14 -6.1,-12.48 a 2.51,2.51 0 0 0 -3.71,1 5,5 0 0 0 -0.26,3.06 33.77,33.77 0 0 0 3,8.83 10.25,10.25 0 0 0 -1.14,5.41 c 0,0.7 0.06,1.4 0.11,2.1 -0.39,-0.72 -0.76,-1.38 -1.11,-2 a 13.23,13.23 0 0 0 -2.32,-2.87 36.89,36.89 0 0 0 0.34,-5 c 0,-2.19 -2.57,-7.78 -4.89,-3.64 -0.93,1.66 -0.75,4.91 -0.84,7.07 -0.63,0.6 -0.82,1.82 -0.29,3.74 -0.36,5 -0.43,10.12 0.78,15 l -0.8,-1.39 a 112,112 0 0 1 -2,-17.54 c -0.29,-9.73 1.26,-17.71 -1.39,-20.71 -2.65,-3 -4.13,7.55 -3,19.05 a 47.7,47.7 0 0 0 4.14,15.16 c -2.6,-4.67 -5.17,-9.43 -7.6,-14 -1,-2.45 -3.48,-9.08 -2.87,-15.8 0.77,-8.47 1.33,-15.41 -1.89,-20.18 -3.22,-4.77 -3.89,-1.67 -2.31,8.27 1.08,6.82 2.23,15.94 4.21,22.27 -1.88,-3.63 -3.65,-7.08 -5.23,-10.2 -0.9,-3.12 -3,-11.13 -3,-17.78 0,-8.46 -0.9,-13 -3.4,-11.17 -1.74,1.29 -0.62,11.73 2.18,20.51 -1.31,-2.67 -2.3,-4.72 -2.87,-5.93 -0.26,-0.55 -0.55,-1.14 -0.88,-1.75 a 167.32,167.32 0 0 0 -4.05,-20.66 c -3.17,-11.94 -8.82,-20.74 -8.64,-14.85 0.16,5.42 9.42,24.46 12.31,34.8 -0.82,-1.49 -1.77,-3.08 -2.73,-4.63 -0.67,-1.75 -1.2,-3.66 -1.91,-5.18 -1.09,-2.35 -2.26,-4.65 -3.57,-6.89 A 51.85,51.85 0 0 0 127.11,270.38 24.33,24.33 0 0 0 115,262.9 c -1.18,-0.28 -8.34,-2 -7.12,1.2 a 3.33,3.33 0 0 0 1,1.24 c 4,3.4 8.64,5.61 13,8.52 6.46,4.36 14.31,14.46 17.55,18.85 l 1.54,2.87 c -5.85,-7.46 -16.48,-12.84 -20.58,-11.68 -5.08,1.43 4.76,5.23 13.07,8.82 a 24.71,24.71 0 0 1 9.66,6.91 c 1.32,2.5 2.79,5.31 4.26,8.18 0.17,0.43 0.33,0.85 0.5,1.27 a 26,26 0 0 0 -3.83,-4.83 c -3.95,-3.72 -15.85,-7.47 -17.78,-3.57 -1.93,3.9 7,3.38 14.26,5.72 a 20.12,20.12 0 0 1 9.71,7.29 c 0.14,0.2 0.27,0.41 0.41,0.6 0.66,1.32 1.28,2.61 1.87,3.83 1.36,2.87 2.66,5.56 3.93,8.17 a 43.35,43.35 0 0 0 -7.43,-10 c -5.8,-5.46 -14.32,-7.76 -17.85,-5.86 -3.53,1.9 10.69,6.33 17.46,10 a 26.11,26.11 0 0 1 9.45,9.16 c 1.82,3.69 3.65,7.3 5.62,11.09 a 100.33,100.33 0 0 0 -11.27,-11.57 c -6.59,-5.95 -14.28,-6.49 -16.77,-3.85 -2.49,2.64 3.7,3.73 14.84,8 a 35.91,35.91 0 0 1 15,10.85 c 0.84,1.59 1.7,3.22 2.62,4.92 1,1.92 2.27,3.92 3.61,5.91 -1.82,-1.18 -4.5,-2.9 -7.48,-4.76 a 74.56,74.56 0 0 1 -9.51,-6.83 c -3.44,-2.95 -8.15,-6.26 -13,-4.95 a 2.49,2.49 0 0 0 -2,3.26 4.88,4.88 0 0 0 1.89,2.42 c 4.56,3.53 10.69,5.23 16,7.32 a 118.38,118.38 0 0 0 14.93,4.76 c 1.26,1.81 2.57,3.6 3.89,5.3 l -2.38,0.07 c -2.82,0.09 -15.54,-5.68 -22,-7.53 -6.46,-1.85 -12.5,1.65 -5.73,5.29 6.77,3.64 25.18,2.83 25.18,2.83 l 5.31,-0.16 c 1.25,1.6 2.47,3.12 3.63,4.51 h -25.23 v 7 h 5 l 4,24.89 h 33.53 l 4.05,-24.89 h 5 v -7 H 190.1 a 63.88,63.88 0 0 1 0.24,-9.07 21.44,21.44 0 0 1 3.69,-3 c 7.34,-5.07 19.78,-5.49 23.09,-15.26 0.8,-2.35 -0.11,-5.37 -2.92,-5.24 -2,0.09 -4.17,1.87 -5.43,3.32 -4.2,4.85 -7.36,9.88 -12.82,13.56 a 70.71,70.71 0 0 0 -5.4,4.6 c 0.19,-1.59 0.43,-3.29 0.74,-5.11 a 50.27,50.27 0 0 1 4.5,-6.67 c 4.47,-5.55 11.27,-8.8 16.1,-14.09 1.48,-1.62 3.43,-7.44 -1.09,-6 -2,0.64 -4.38,3.69 -6,5.08 -4.45,4 -9,8.26 -11.9,13.52 0.12,-0.52 0.25,-1 0.37,-1.56 a 110.66,110.66 0 0 1 10.51,-14.19 c 6.42,-7.3 13,-12.08 13.11,-16.08 0.11,-4 -8.17,2.7 -15.2,11.86 a 47.92,47.92 0 0 0 -7.32,13.91 c 1.29,-5.18 2.66,-10.42 4,-15.44 0.92,-2.5 3.65,-9 8.68,-13.51 6.35,-5.67 11.49,-10.35 12.4,-16 0.91,-5.65 -1.64,-3.86 -7.27,4.48 z m -35.51,64.32 c -0.95,-1.29 -1.94,-2.69 -3,-4.24 a 51,51 0 0 1 -1.26,-8 33.67,33.67 0 0 1 0.32,-6.87 80.69,80.69 0 0 0 5.43,6.07 30.13,30.13 0 0 1 -0.73,5.94 69.66,69.66 0 0 0 -0.76,7.1 z m 5.44,6.59 c -1.29,-1.37 -2.7,-3 -4.23,-5 a 21,21 0 0 1 0.65,-4.7 33.64,33.64 0 0 1 2.62,-7 c 2.37,2.25 4.11,3.74 4.11,3.74 l 4,3.51 c -0.31,3.49 -0.49,6.77 -0.6,9.43 z m 7.2,-10.06 -1.79,-1.57 c -1,-0.9 -2.8,-4.38 -4.76,-8.39 a 50.58,50.58 0 0 0 2.22,-5.19 c 2.12,3.93 4,7 5.11,8.63 -0.32,2.17 -0.57,4.38 -0.78,6.52 z" />
      <path
         inkscape:connector-curvature="0"
         id="path49"
         style="opacity:0.5;fill:#ffffff"
         d="m 212.18,295.58 c -3.86,5.73 -9.24,13.18 -12.11,19.16 1.09,-3.94 2.16,-7.67 3.13,-11 1.47,-2.89 5.41,-10.18 10,-15 5.77,-6.18 8.24,-10.15 5.13,-10.49 -2.15,-0.24 -8.45,8.15 -12.4,16.48 0.86,-2.85 1.54,-5 2,-6.29 0.19,-0.58 0.37,-1.21 0.55,-1.88 a 166.85,166.85 0 0 0 11.14,-17.87 c 5.83,-10.89 7.71,-21.17 3.82,-16.75 -3.58,4.07 -9.81,24.31 -14.76,33.83 0.42,-1.64 0.82,-3.45 1.17,-5.24 0.7,-1.73 1.62,-3.49 2.14,-5.09 0.81,-2.46 1.52,-4.94 2.09,-7.47 a 51.77,51.77 0 0 0 1.42,-12 24.29,24.29 0 0 0 -3.72,-13.44 c -0.67,-1 -4.77,-7.13 -6,-4 a 3.36,3.36 0 0 0 -0.09,1.61 c 0.6,5.21 2.49,10 3.66,15.07 1.75,7.59 0.59,20.33 0,25.75 -0.22,0.86 -0.5,1.92 -0.83,3.15 0.81,-9.44 -3.28,-20.63 -7.07,-22.59 -4.69,-2.42 -0.09,7.08 3.53,15.38 a 24.79,24.79 0 0 1 2.35,11.64 c -0.74,2.72 -1.59,5.79 -2.47,8.89 -0.18,0.42 -0.34,0.85 -0.5,1.27 a 26,26 0 0 0 0.49,-6.15 c -0.34,-5.42 -6.48,-16.27 -10.56,-14.74 -4.08,1.53 2.83,7.25 6.52,13.91 a 20.08,20.08 0 0 1 2.13,12 c 0,0.25 -0.08,0.49 -0.11,0.72 -0.43,1.42 -0.85,2.78 -1.25,4.08 -1,3 -1.85,5.88 -2.7,8.66 a 43.4,43.4 0 0 0 1.36,-12.36 c -0.51,-7.94 -5.16,-15.44 -9,-16.47 -3.84,-1.03 3.49,11.93 5.95,19.21 a 26.12,26.12 0 0 1 0.66,13.14 c -1.19,3.94 -2.31,7.83 -3.46,11.94 a 99.51,99.51 0 0 0 -0.35,-16.15 c -0.75,-8.84 -6,-14.48 -9.62,-14.25 -3.62,0.23 0.16,5.25 5.38,16 a 35.91,35.91 0 0 1 3.56,18.18 c -0.47,1.73 -1,3.51 -1.44,5.37 -0.56,2.12 -1,4.43 -1.4,6.79 -0.52,-2.11 -1.3,-5.19 -2.21,-8.59 a 76.13,76.13 0 0 1 -2.3,-11.47 c -0.49,-4.51 -1.68,-10.14 -6.1,-12.48 a 2.51,2.51 0 0 0 -3.71,1 5,5 0 0 0 -0.26,3.06 33.77,33.77 0 0 0 3,8.83 10.25,10.25 0 0 0 -1.14,5.41 c 0,0.7 0.06,1.4 0.11,2.1 -0.39,-0.72 -0.76,-1.38 -1.11,-2 a 13.23,13.23 0 0 0 -2.32,-2.87 36.89,36.89 0 0 0 0.34,-5 c 0,-2.19 -2.57,-7.78 -4.89,-3.64 -0.93,1.66 -0.75,4.91 -0.84,7.07 -0.63,0.6 -0.82,1.82 -0.29,3.74 -0.36,5 -0.43,10.12 0.78,15 l -0.8,-1.39 a 112,112 0 0 1 -2,-17.54 c -0.29,-9.73 1.26,-17.71 -1.39,-20.71 -2.65,-3 -4.13,7.55 -3,19.05 a 47.7,47.7 0 0 0 4.14,15.16 c -2.6,-4.67 -5.17,-9.43 -7.6,-14 -1,-2.45 -3.48,-9.08 -2.87,-15.8 0.77,-8.47 1.33,-15.41 -1.89,-20.18 -3.22,-4.77 -3.89,-1.67 -2.31,8.27 1.08,6.82 2.23,15.94 4.21,22.27 -1.88,-3.63 -3.65,-7.08 -5.23,-10.2 -0.9,-3.12 -3,-11.13 -3,-17.78 0,-8.46 -0.9,-13 -3.4,-11.17 -1.74,1.29 -0.62,11.73 2.18,20.51 -1.31,-2.67 -2.3,-4.72 -2.87,-5.93 -0.26,-0.55 -0.55,-1.14 -0.88,-1.75 a 167.32,167.32 0 0 0 -4.05,-20.66 c -3.17,-11.94 -8.82,-20.74 -8.64,-14.85 0.16,5.42 9.42,24.46 12.31,34.8 -0.82,-1.49 -1.77,-3.08 -2.73,-4.63 -0.67,-1.75 -1.2,-3.66 -1.91,-5.18 -1.09,-2.35 -2.26,-4.65 -3.57,-6.89 A 51.85,51.85 0 0 0 127.11,270.38 24.33,24.33 0 0 0 115,262.9 c -1.18,-0.28 -8.34,-2 -7.12,1.2 a 3.33,3.33 0 0 0 1,1.24 c 4,3.4 8.64,5.61 13,8.52 6.46,4.36 14.31,14.46 17.55,18.85 l 1.54,2.87 c -5.85,-7.46 -16.48,-12.84 -20.58,-11.68 -5.08,1.43 4.76,5.23 13.07,8.82 a 24.71,24.71 0 0 1 9.66,6.91 c 1.32,2.5 2.79,5.31 4.26,8.18 0.17,0.43 0.33,0.85 0.5,1.27 a 26,26 0 0 0 -3.83,-4.83 c -3.95,-3.72 -15.85,-7.47 -17.78,-3.57 -1.93,3.9 7,3.38 14.26,5.72 a 20.12,20.12 0 0 1 9.71,7.29 c 0.14,0.2 0.27,0.41 0.41,0.6 0.66,1.32 1.28,2.61 1.87,3.83 1.36,2.87 2.66,5.56 3.93,8.17 a 43.35,43.35 0 0 0 -7.43,-10 c -5.8,-5.46 -14.32,-7.76 -17.85,-5.86 -3.53,1.9 10.69,6.33 17.46,10 a 26.11,26.11 0 0 1 9.45,9.16 c 1.82,3.69 3.65,7.3 5.62,11.09 a 100.33,100.33 0 0 0 -11.27,-11.57 c -6.59,-5.95 -14.28,-6.49 -16.77,-3.85 -2.49,2.64 3.7,3.73 14.84,8 a 35.91,35.91 0 0 1 15,10.85 c 0.84,1.59 1.7,3.22 2.62,4.92 1,1.92 2.27,3.92 3.61,5.91 -1.82,-1.18 -4.5,-2.9 -7.48,-4.76 a 74.56,74.56 0 0 1 -9.51,-6.83 c -3.44,-2.95 -8.15,-6.26 -13,-4.95 a 2.49,2.49 0 0 0 -2,3.26 4.88,4.88 0 0 0 1.89,2.42 c 4.56,3.53 10.69,5.23 16,7.32 a 118.38,118.38 0 0 0 14.93,4.76 c 1.26,1.81 2.57,3.6 3.89,5.3 l -2.38,0.07 c -2.82,0.09 -15.54,-5.68 -22,-7.53 -6.46,-1.85 -12.5,1.65 -5.73,5.29 6.77,3.64 25.18,2.83 25.18,2.83 l 5.31,-0.16 c 1.25,1.6 2.47,3.12 3.63,4.51 h -25.23 v 7 h 5 l 4,24.89 h 33.53 l 4.05,-24.89 h 5 v -7 H 190.1 a 63.88,63.88 0 0 1 0.24,-9.07 21.44,21.44 0 0 1 3.69,-3 c 7.34,-5.07 19.78,-5.49 23.09,-15.26 0.8,-2.35 -0.11,-5.37 -2.92,-5.24 -2,0.09 -4.17,1.87 -5.43,3.32 -4.2,4.85 -7.36,9.88 -12.82,13.56 a 70.71,70.71 0 0 0 -5.4,4.6 c 0.19,-1.59 0.43,-3.29 0.74,-5.11 a 50.27,50.27 0 0 1 4.5,-6.67 c 4.47,-5.55 11.27,-8.8 16.1,-14.09 1.48,-1.62 3.43,-7.44 -1.09,-6 -2,0.64 -4.38,3.69 -6,5.08 -4.45,4 -9,8.26 -11.9,13.52 0.12,-0.52 0.25,-1 0.37,-1.56 a 110.66,110.66 0 0 1 10.51,-14.19 c 6.42,-7.3 13,-12.08 13.11,-16.08 0.11,-4 -8.17,2.7 -15.2,11.86 a 47.92,47.92 0 0 0 -7.32,13.91 c 1.29,-5.18 2.66,-10.42 4,-15.44 0.92,-2.5 3.65,-9 8.68,-13.51 6.35,-5.67 11.49,-10.35 12.4,-16 0.91,-5.65 -1.64,-3.86 -7.27,4.48 z m -35.51,64.32 c -0.95,-1.29 -1.94,-2.69 -3,-4.24 a 51,51 0 0 1 -1.26,-8 33.67,33.67 0 0 1 0.32,-6.87 80.69,80.69 0 0 0 5.43,6.07 30.13,30.13 0 0 1 -0.73,5.94 69.66,69.66 0 0 0 -0.76,7.1 z m 5.44,6.59 c -1.29,-1.37 -2.7,-3 -4.23,-5 a 21,21 0 0 1 0.65,-4.7 33.64,33.64 0 0 1 2.62,-7 c 2.37,2.25 4.11,3.74 4.11,3.74 l 4,3.51 c -0.31,3.49 -0.49,6.77 -0.6,9.43 z m 7.2,-10.06 -1.79,-1.57 c -1,-0.9 -2.8,-4.38 -4.76,-8.39 a 50.58,50.58 0 0 0 2.22,-5.19 c 2.12,3.93 4,7 5.11,8.63 -0.32,2.17 -0.57,4.38 -0.78,6.52 z" />
    </g>
    <g
       id="freepik--Frames--inject-1--inject-2">
      <path
         inkscape:connector-curvature="0"
         id="path52"
         style="fill:#ffd700"
         d="m 113.55,107.26 v 101.4 h 77 v -101.4 z m 71.66,94.33 h -66.28 v -87.25 h 66.28 z" />
      <path
         inkscape:connector-curvature="0"
         id="path54"
         style="opacity:0.5;fill:#ffffff"
         d="m 113.55,107.26 v 101.4 h 77 v -101.4 z m 71.66,94.33 h -66.28 v -87.25 h 66.28 z" />
      <path
         inkscape:connector-curvature="0"
         id="path56"
         style="fill:#ffd700"
         d="m 383,156.73 v 74.88 h 56.88 v -74.88 z m 52.91,69.65 H 387 V 162 h 48.94 z" />
      <path
         inkscape:connector-curvature="0"
         id="path58"
         style="opacity:0.5;fill:#ffffff"
         d="m 383,156.73 v 74.88 h 56.88 v -74.88 z m 52.91,69.65 H 387 V 162 h 48.94 z" />
    </g>
    <g
       id="freepik--Device--inject-1--inject-2">
      <path
         inkscape:connector-curvature="0"
         id="path61"
         style="fill:#ffffff"
         d="m 57.78,408.82 c 2.87,-9.72 32.6,-110.76 32.5,-111.52 -0.1,-0.76 2.43,-14.33 8.35,-25.64 5.92,-11.31 14.14,-23.91 15.17,-25.45 a 22.09,22.09 0 0 0 3.08,-8.23 c 0.77,-4.11 9,-15.43 11.57,-18.51 2.57,-3.08 10.28,-19.28 10.8,-21.85 0.52,-2.57 3.59,-4.63 7.71,-5.4 4.12,-0.77 9.77,-1.54 9.77,-1.54 a 7.66,7.66 0 0 1 1.8,4.37 c 0,2.31 -9.26,57.58 -9.77,66.84 -0.51,9.26 0.77,14.39 -3.34,23.91 -4.11,9.52 -16.2,15.42 -22.11,19.28 -5.91,3.86 -5.46,4.66 -5.46,4.66 0,0 3.34,92.53 3.26,99.8" />
      <g
         id="g65"
         clip-path="url(#freepik--clip-path--inject-1--inject-2)">
        <path
           inkscape:connector-curvature="0"
           id="path63"
           style="opacity:0.7;mix-blend-mode:multiply;fill:#ffd700"
           d="m 162.29,251.31 c -1.07,-4.79 -8,-2.13 -8,-2.13 a 46.47,46.47 0 0 1 -17,11.69 206.17,206.17 0 0 0 -31.29,14.95 c 1.14,-2.29 2.38,-4.6 3.72,-7 6.91,-12.22 19.13,-28.69 26,-30.82 4.24,-1.3 8.47,1.39 11.11,3.67 l 0.3,-49.5 h -0.17 c -4.12,0.77 -7.2,2.83 -7.71,5.4 -0.51,2.57 -8.23,18.76 -10.8,21.85 -2.57,3.09 -10.8,14.4 -11.57,18.51 a 22.09,22.09 0 0 1 -3.08,8.23 c -1,1.54 -9.26,14.13 -15.17,25.45 -5.91,11.32 -8.45,24.87 -8.35,25.64 0.07,0.56 -11.37,42 -18.64,68.08 6,-11.8 15.33,-30.89 21,-45 2.23,-0.22 6.55,-6.26 10.13,-11.18 4.25,-5.84 10.62,-7.44 23.38,-17 12.76,-9.56 27.09,-22.85 29.22,-28.16 2.13,-5.31 7.98,-7.9 6.92,-12.68 z" />
      </g>
      <path
         inkscape:connector-curvature="0"
         id="path67"
         style="fill:none;stroke:#2e353a;stroke-linecap:round;stroke-linejoin:round"
         d="m 57.78,408.82 c 2.87,-9.72 32.6,-110.76 32.5,-111.52 -0.1,-0.76 2.43,-14.33 8.35,-25.64 5.92,-11.31 14.14,-23.91 15.17,-25.45 a 22.09,22.09 0 0 0 3.08,-8.23 c 0.77,-4.11 9,-15.43 11.57,-18.51 2.57,-3.08 10.28,-19.28 10.8,-21.85 0.52,-2.57 3.59,-4.63 7.71,-5.4 4.12,-0.77 9.77,-1.54 9.77,-1.54 a 7.66,7.66 0 0 1 1.8,4.37 c 0,2.31 -9.26,57.58 -9.77,66.84 -0.51,9.26 0.77,14.39 -3.34,23.91 -4.11,9.52 -16.2,15.42 -22.11,19.28 -5.91,3.86 -5.46,4.66 -5.46,4.66 0,0 3.34,92.53 3.26,99.8" />
      <path
         inkscape:connector-curvature="0"
         id="path69"
         style="fill:none;stroke:#2e353a;stroke-linecap:round;stroke-linejoin:round"
         d="m 146.44,253.66 c 0,0 -2.82,-0.26 -5.65,-5.4" />
      <path
         inkscape:connector-curvature="0"
         id="path71"
         style="fill:none;stroke:#2e353a;stroke-linecap:round;stroke-linejoin:round"
         d="m 143.36,220.5 c 0,0 8,1.54 9,8.22" />
      <path
         inkscape:connector-curvature="0"
         id="path73"
         style="fill:none;stroke:#2e353a;stroke-linecap:round;stroke-linejoin:round"
         d="M 145.93,199.67 A 15.76,15.76 0 0 1 152.1,211" />
      <path
         inkscape:connector-curvature="0"
         id="path75"
         style="fill:#2e353a;stroke:#363636;stroke-width:0.86867398px;stroke-linecap:round;stroke-linejoin:round"
         d="M 405.15,253.68 404.52,146.91 A 11.74,11.74 0 0 0 392.78,135.18 H 159.13 a 11.73,11.73 0 0 0 -11.73,11.73 l -0.64,106.77 a 11.84,11.84 0 0 0 11.85,11.85 H 393.3 a 11.84,11.84 0 0 0 11.85,-11.85 z" />
      <polygon
         id="polygon77"
         style="fill:#ffffff;stroke:#363636;stroke-width:0.65150499px;stroke-linecap:round;stroke-linejoin:round"
         points="391.51,140.92 160.4,140.92 159.9,259.73 392.02,259.73 " />
      <polygon
         id="polygon79"
         style="fill:#ffd700;stroke:#2e353a;stroke-linecap:round;stroke-linejoin:round"
         points="160.4,140.92 160.38,146.85 182.58,146.85 188.26,154.97 391.57,154.97 391.51,140.92 " />
      <polygon
         id="polygon81"
         style="opacity:0.5;mix-blend-mode:multiply;fill:#ffd700"
         points="229.06,259.73 392.02,259.73 391.51,164.56 " />
      <circle
         id="circle83"
         style="fill:#ffffff"
         transform="rotate(-89.26,397.97653,200.28334)"
         r="1.79"
         cy="200.28"
         cx="397.98999" />
      <circle
         id="circle85"
         style="fill:#ffd700;stroke:#2e353a;stroke-linecap:round;stroke-linejoin:round"
         r="9.5699997"
         cy="174.75999"
         cx="178.2" />
      <circle
         id="circle87"
         style="fill:#ffffff;stroke:#2e353a;stroke-linecap:round;stroke-linejoin:round"
         r="9.5699997"
         cy="214.11"
         cx="178.2" />
      <circle
         id="circle89"
         style="fill:#ffffff;stroke:#2e353a;stroke-linecap:round;stroke-linejoin:round"
         r="9.5699997"
         cy="174.75999"
         cx="243.60001" />
      <circle
         id="circle91"
         style="fill:#ffd700;stroke:#2e353a;stroke-linecap:round;stroke-linejoin:round"
         r="9.5699997"
         cy="214.11"
         cx="243.60001" />
      <circle
         id="circle93"
         style="fill:#ffd700;stroke:#2e353a;stroke-linecap:round;stroke-linejoin:round"
         r="9.5699997"
         cy="174.75999"
         cx="309.01001" />
      <circle
         id="circle95"
         style="fill:#ffd700;stroke:#2e353a;stroke-width:2px;stroke-linecap:round;stroke-linejoin:round"
         r="9.5699997"
         cy="214.11"
         cx="309.01001" />
      <circle
         id="circle97"
         style="fill:#ffd700;stroke:#2e353a;stroke-linecap:round;stroke-linejoin:round"
         r="9.5699997"
         cy="174.75999"
         cx="374.41" />
      <circle
         id="circle99"
         style="fill:#ffffff;stroke:#2e353a;stroke-linecap:round;stroke-linejoin:round"
         r="9.5699997"
         cy="214.11"
         cx="374.41" />
      <line
         id="line101"
         style="fill:none;stroke:#2e353a;stroke-linecap:round;stroke-linejoin:round"
         y2="187.72"
         x2="226.17999"
         y1="187.72"
         x1="194.83" />
      <line
         id="line103"
         style="fill:none;stroke:#2e353a;stroke-linecap:round;stroke-linejoin:round"
         y2="194.95"
         x2="226.17999"
         y1="194.95"
         x1="194.83" />
      <line
         id="line105"
         style="fill:none;stroke:#2e353a;stroke-linecap:round;stroke-linejoin:round"
         y2="202.19"
         x2="226.17999"
         y1="202.19"
         x1="194.83" />
      <line
         id="line107"
         style="fill:none;stroke:#2e353a;stroke-linecap:round;stroke-linejoin:round"
         y2="187.72"
         x2="290.69"
         y1="187.72"
         x1="259.34" />
      <line
         id="line109"
         style="fill:none;stroke:#2e353a;stroke-linecap:round;stroke-linejoin:round"
         y2="194.95"
         x2="290.69"
         y1="194.95"
         x1="259.34" />
      <line
         id="line111"
         style="fill:none;stroke:#2e353a;stroke-linecap:round;stroke-linejoin:round"
         y2="202.19"
         x2="290.69"
         y1="202.19"
         x1="259.34" />
      <line
         id="line113"
         style="fill:none;stroke:#2e353a;stroke-linecap:round;stroke-linejoin:round"
         y2="187.72"
         x2="359.42001"
         y1="187.72"
         x1="328.07001" />
      <line
         id="line115"
         style="fill:none;stroke:#2e353a;stroke-linecap:round;stroke-linejoin:round"
         y2="194.95"
         x2="359.42001"
         y1="194.95"
         x1="328.07001" />
      <line
         id="line117"
         style="fill:none;stroke:#2e353a;stroke-linecap:round;stroke-linejoin:round"
         y2="202.19"
         x2="359.42001"
         y1="202.19"
         x1="328.07001" />
      <line
         id="line119"
         style="fill:none;stroke:#2e353a;stroke-linecap:round;stroke-linejoin:round"
         y2="228.66"
         x2="226.17999"
         y1="228.66"
         x1="194.83" />
      <line
         id="line121"
         style="fill:none;stroke:#2e353a;stroke-linecap:round;stroke-linejoin:round"
         y2="235.89999"
         x2="226.17999"
         y1="235.89999"
         x1="194.83" />
      <line
         id="line123"
         style="fill:none;stroke:#2e353a;stroke-linecap:round;stroke-linejoin:round"
         y2="243.13"
         x2="226.17999"
         y1="243.13"
         x1="194.83" />
      <line
         id="line125"
         style="fill:none;stroke:#2e353a;stroke-linecap:round;stroke-linejoin:round"
         y2="228.66"
         x2="290.69"
         y1="228.66"
         x1="259.34" />
      <line
         id="line127"
         style="fill:none;stroke:#2e353a;stroke-linecap:round;stroke-linejoin:round"
         y2="235.89999"
         x2="290.69"
         y1="235.89999"
         x1="259.34" />
      <line
         id="line129"
         style="fill:none;stroke:#2e353a;stroke-linecap:round;stroke-linejoin:round"
         y2="243.13"
         x2="290.69"
         y1="243.13"
         x1="259.34" />
      <line
         id="line131"
         style="fill:none;stroke:#2e353a;stroke-linecap:round;stroke-linejoin:round"
         y2="228.66"
         x2="359.42001"
         y1="228.66"
         x1="328.07001" />
      <line
         id="line133"
         style="fill:none;stroke:#2e353a;stroke-linecap:round;stroke-linejoin:round"
         y2="235.89999"
         x2="359.42001"
         y1="235.89999"
         x1="328.07001" />
      <line
         id="line135"
         style="fill:none;stroke:#2e353a;stroke-linecap:round;stroke-linejoin:round"
         y2="243.13"
         x2="359.42001"
         y1="243.13"
         x1="328.07001" />
      <line
         id="line137"
         style="fill:#ffffff;stroke:#2e353a;stroke-linecap:round;stroke-linejoin:round"
         y2="214.60001"
         x2="296.07001"
         y1="214.60001"
         x1="290.13" />
      <line
         id="line139"
         style="fill:#ffffff;stroke:#2e353a;stroke-linecap:round;stroke-linejoin:round"
         y2="195.31"
         x2="309.64001"
         y1="202.73"
         x1="309.64001" />
      <line
         id="line141"
         style="fill:#ffffff;stroke:#2e353a;stroke-linecap:round;stroke-linejoin:round"
         y2="206.55"
         x2="300.31"
         y1="203.58"
         x1="296.48999" />
      <line
         id="line143"
         style="fill:#ffffff;stroke:#2e353a;stroke-linecap:round;stroke-linejoin:round"
         y2="224.78"
         x2="296.48999"
         y1="222.23"
         x1="301.16" />
      <line
         id="line145"
         style="fill:#ffffff;stroke:#2e353a;stroke-linecap:round;stroke-linejoin:round"
         y2="214.60001"
         x2="323.63"
         y1="214.60001"
         x1="329.57001" />
      <line
         id="line147"
         style="fill:#ffffff;stroke:#2e353a;stroke-linecap:round;stroke-linejoin:round"
         y2="206.55"
         x2="319.39001"
         y1="203.58"
         x1="323.20001" />
      <line
         id="line149"
         style="fill:none;stroke:#2e353a;stroke-linecap:round;stroke-linejoin:round"
         y2="252.12"
         x2="310.01999"
         y1="234.25999"
         x1="305.01999" />
      <line
         id="line151"
         style="fill:none;stroke:#2e353a;stroke-linecap:round;stroke-linejoin:round"
         y2="241.39999"
         x2="302.87"
         y1="232.11"
         x1="300.01001" />
      <path
         inkscape:connector-curvature="0"
         id="path153"
         style="fill:#ffffff"
         d="m 423.24,402.2 c 0,0 -23.75,-43.8 -27.13,-51.48 -3.38,-7.68 -5.93,-19.78 -6.76,-23.1 a 22.32,22.32 0 0 1 -0.32,-12 c 1.25,-5.6 0.51,-21.58 1.07,-25.25 0.56,-3.67 -1.71,-15.15 -3,-21.58 -1.29,-6.43 -4.21,-11 -8.15,-11.5 a 7,7 0 0 0 -6.16,2.41 c 0,0 -1.64,-13.69 -3.23,-16.53 -1.59,-2.84 -6.77,-2.43 -9.54,-1.75 -2.77,0.68 -4.1,9.54 -4.1,9.54 0,0 -2.4,-8.51 -2.47,-12.31 -0.07,-3.8 -4.69,-7.07 -8.29,-6.17 -3.6,0.9 -5.54,2.55 -6.52,10.43 -0.98,7.88 0.87,20.07 0.87,20.07 l -1.87,0.76 c 0,0 -6.74,-23.6 -8.88,-29.83 -2.14,-6.23 -4.2,-13.36 -5.64,-18 -1.44,-4.64 -3.58,-12 -9.47,-10.87 -5.89,1.13 -4.44,14 -4.44,14 0,0 9.21,39.44 9.69,42.55 0.48,3.11 2,13.91 1.7,17.51 -0.3,3.6 -0.29,13 -0.29,13 l -8.77,-10.46 a 45,45 0 0 0 -4.07,-8.1 c -3,-4.84 -9.67,-9.35 -14,-8 -4.33,1.35 -0.91,5.81 0.88,8.3 1.79,2.49 3.24,9.48 3.24,13 0,3.52 3,6 6.62,12.46 3.62,6.46 21.79,28.78 24.54,32.8 a 25.11,25.11 0 0 0 7.53,6.65 c 0,0 10.5,9.15 15.4,20.57 4.9,11.42 19.93,44.21 19.93,44.21" />
      <g
         id="g157"
         clip-path="url(#freepik--clip-path-2--inject-1--inject-2)">
        <path
           inkscape:connector-curvature="0"
           id="path155"
           style="opacity:0.7;mix-blend-mode:multiply;fill:#ffd700"
           d="m 387.28,391.78 c 4.91,-4.5 6.13,-40.85 5.51,-54.38 0,-0.11 0,-0.24 0,-0.36 -1.75,-4.52 -3.11,-8.19 -3.42,-9.42 a 22.32,22.32 0 0 1 -0.32,-12 c 1.25,-5.6 0.51,-21.58 1.07,-25.25 0.33,-2.17 -0.34,-7.11 -1.2,-12.11 -3.56,-0.31 -10.08,2.9 -10.08,2.9 0,0 -5.14,-7.48 -8.49,-7.74 -3.35,-0.26 -9.16,5 -9.16,5 0,0 -3.33,-11.22 -10.17,-10.07 -6.84,1.15 -8.76,0 -11.46,0.12 -2.7,0.12 -4.89,-6.45 -7.59,-12.9 -2.7,-6.45 -6.57,-30.57 -8.86,-35.57 0,0 -3.59,-10.06 -8.24,-6.71 -4.65,3.35 -0.28,14.3 1.9,20.87 2.18,6.57 3.35,19.05 5.12,25 2,6.63 1,16.48 2.83,23.7 1.83,7.22 6.53,9.56 3.94,19 -2.59,9.44 -8.25,6.43 -14.56,0.88 -6.31,-5.55 -9.43,-18.26 -13,-17 a 16,16 0 0 0 -3.56,1.37 c 0.08,3.46 3,6 6.62,12.32 3.62,6.32 21.84,28.65 24.59,32.67 a 25.11,25.11 0 0 0 7.53,6.65 c 0,0 10.5,9.15 15.4,20.57 0.88,2.05 2.28,5.08 4,8.68 2,1.6 -2.24,-6 -1.2,-4.74 6.93,8.13 27.9,33.03 32.8,28.52 z" />
      </g>
      <path
         inkscape:connector-curvature="0"
         id="path159"
         style="fill:none;stroke:#2e353a;stroke-linecap:round;stroke-linejoin:round"
         d="m 423.24,402.2 c 0,0 -23.75,-43.8 -27.13,-51.48 -3.38,-7.68 -5.93,-19.78 -6.76,-23.1 a 22.32,22.32 0 0 1 -0.32,-12 c 1.25,-5.6 0.51,-21.58 1.07,-25.25 0.56,-3.67 -1.71,-15.15 -3,-21.58 -1.29,-6.43 -4.21,-11 -8.15,-11.5 a 7,7 0 0 0 -6.16,2.41 c 0,0 -1.64,-13.69 -3.23,-16.53 -1.59,-2.84 -6.77,-2.43 -9.54,-1.75 -2.77,0.68 -4.1,9.54 -4.1,9.54 0,0 -2.4,-8.51 -2.47,-12.31 -0.07,-3.8 -4.69,-7.07 -8.29,-6.17 -3.6,0.9 -5.54,2.55 -6.52,10.43 -0.98,7.88 0.87,20.07 0.87,20.07 l -1.87,0.76 c 0,0 -6.74,-23.6 -8.88,-29.83 -2.14,-6.23 -4.2,-13.36 -5.64,-18 -1.44,-4.64 -3.58,-12 -9.47,-10.87 -5.89,1.13 -4.44,14 -4.44,14 0,0 9.21,39.44 9.69,42.55 0.48,3.11 2,13.91 1.7,17.51 -0.3,3.6 -0.29,13 -0.29,13 l -8.77,-10.46 a 45,45 0 0 0 -4.07,-8.1 c -3,-4.84 -9.67,-9.35 -14,-8 -4.33,1.35 -0.91,5.81 0.88,8.3 1.79,2.49 3.24,9.48 3.24,13 0,3.52 3,6 6.62,12.46 3.62,6.46 21.79,28.78 24.54,32.8 a 25.11,25.11 0 0 0 7.53,6.65 c 0,0 10.5,9.15 15.4,20.57 4.9,11.42 19.93,44.21 19.93,44.21" />
      <path
         inkscape:connector-curvature="0"
         id="path161"
         style="fill:none;stroke:#2e353a;stroke-linecap:round;stroke-linejoin:round"
         d="m 310.53,207.9 c 0,0 1.09,6.76 1.3,7.61 0.47,1.91 8.37,1 9,-0.47 0.56,-1.31 0.15,-4.15 0.15,-4.15" />
      <path
         inkscape:connector-curvature="0"
         id="path163"
         style="fill:none;stroke:#2e353a;stroke-linecap:round;stroke-linejoin:round"
         d="m 297,274.15 a 4.08,4.08 0 0 0 0.49,-5.12 c -1.86,-2.77 -2.9,-3.39 -2.9,-3.39" />
      <path
         inkscape:connector-curvature="0"
         id="path165"
         style="fill:none;stroke:#2e353a;stroke-width:0.75px;stroke-linecap:round;stroke-linejoin:round"
         d="m 319.67,247.07 c 0,0 3.53,1.18 6.85,-3.17" />
      <path
         inkscape:connector-curvature="0"
         id="path167"
         style="fill:none;stroke:#2e353a;stroke-width:0.75px;stroke-linecap:round;stroke-linejoin:round"
         d="m 320.09,244 c 0,0 4.71,-3.53 8.31,-3.24" />
      <path
         inkscape:connector-curvature="0"
         id="path169"
         style="fill:none;stroke:#2e353a;stroke-width:0.75px;stroke-linecap:round;stroke-linejoin:round"
         d="m 315.21,225.55 c 0,0 3.53,-3.52 6.36,-2.76" />
      <path
         inkscape:connector-curvature="0"
         id="path171"
         style="fill:none;stroke:#2e353a;stroke-width:0.75px;stroke-linecap:round;stroke-linejoin:round"
         d="m 318.53,224.72 a 10.35,10.35 0 0 0 4.36,-0.2" />
      <line
         id="line173"
         style="fill:none;stroke:#2e353a;stroke-linecap:round;stroke-linejoin:round"
         y2="262"
         x2="357.76999"
         y1="250.99001"
         x1="355.91" />
      <line
         id="line175"
         style="fill:none;stroke:#2e353a;stroke-linecap:round;stroke-linejoin:round"
         y2="271.29001"
         x2="374.76999"
         y1="259.73001"
         x1="372.78" />
      <path
         inkscape:connector-curvature="0"
         id="path177"
         style="fill:none;stroke:#2e353a;stroke-linecap:round;stroke-linejoin:round"
         d="m 320.3,292.17 c 0,0 -0.5,8.65 0.33,12" />
      <path
         inkscape:connector-curvature="0"
         id="path179"
         style="fill:none;stroke:#2e353a;stroke-width:0.75px;stroke-linecap:round;stroke-linejoin:round"
         d="m 357.78,267.86 c 0,0 2.05,5.43 1.55,9" />
      <path
         inkscape:connector-curvature="0"
         id="path181"
         style="fill:none;stroke:#2e353a;stroke-width:0.75px;stroke-linecap:round;stroke-linejoin:round"
         d="m 374.55,273.47 c 0,0 1.39,2.8 0.56,7.9" />
      <path
         inkscape:connector-curvature="0"
         id="path183"
         style="fill:#ffffff"
         d="m 136.93,257.77 c 0,0 8.49,-1.54 13.11,-7.19 4.62,-5.65 15.68,-12.86 19.28,-14.14 3.6,-1.28 9.26,-1.55 11.32,0.25 2.06,1.8 3.08,6.17 0,11.32 -3.08,5.15 -15.64,9.99 -18.26,12.33 -2.62,2.34 -4.88,3.86 -8,10.8 a 54.43,54.43 0 0 1 -12.85,17.74 c -4.89,4.37 -13.88,11.83 -18.51,14.65" />
      <g
         id="g187"
         clip-path="url(#freepik--clip-path-3--inject-1--inject-2)">
        <path
           inkscape:connector-curvature="0"
           id="path185"
           style="opacity:0.7;mix-blend-mode:multiply;fill:#ffd700"
           d="m 162.29,251.31 c -1.07,-4.79 -8,-2.13 -8,-2.13 a 46.47,46.47 0 0 1 -17,11.69 206.17,206.17 0 0 0 -31.29,14.95 c 1.14,-2.29 2.38,-4.6 3.72,-7 6.91,-12.22 19.13,-28.69 26,-30.82 4.24,-1.3 8.47,1.39 11.11,3.67 l 0.3,-49.5 h -0.17 c -4.12,0.77 -7.2,2.83 -7.71,5.4 -0.51,2.57 -8.23,18.76 -10.8,21.85 -2.57,3.09 -10.8,14.4 -11.57,18.51 a 22.09,22.09 0 0 1 -3.08,8.23 c -1,1.54 -9.26,14.13 -15.17,25.45 -5.91,11.32 -8.45,24.87 -8.35,25.64 0.07,0.56 -11.37,42 -18.64,68.08 6,-11.8 15.33,-30.89 21,-45 2.23,-0.22 6.55,-6.26 10.13,-11.18 4.25,-5.84 10.62,-7.44 23.38,-17 12.76,-9.56 27.09,-22.85 29.22,-28.16 2.13,-5.31 7.98,-7.9 6.92,-12.68 z" />
      </g>
      <path
         inkscape:connector-curvature="0"
         id="path189"
         style="fill:none;stroke:#2e353a;stroke-linecap:round;stroke-linejoin:round"
         d="m 136.93,257.77 c 0,0 8.49,-1.54 13.11,-7.19 4.62,-5.65 15.68,-12.86 19.28,-14.14 3.6,-1.28 9.26,-1.55 11.32,0.25 2.06,1.8 3.08,6.17 0,11.32 -3.08,5.15 -15.64,9.99 -18.26,12.33 -2.62,2.34 -4.88,3.86 -8,10.8 a 54.43,54.43 0 0 1 -12.85,17.74 c -4.89,4.37 -13.88,11.83 -18.51,14.65" />
      <path
         inkscape:connector-curvature="0"
         id="path191"
         style="fill:none;stroke:#2e353a;stroke-linecap:round;stroke-linejoin:round"
         d="m 180.89,246 c -1.54,2.31 -5.4,2.57 -5.4,2.57 0,0 -1.54,-3.34 -2.57,-5.4 a 9.16,9.16 0 0 0 -3.34,-3.34 c 0,0 1.29,-3.34 3.86,-3.34" />
      <path
         inkscape:connector-curvature="0"
         id="path193"
         style="fill:#ffffff;stroke:#2e353a;stroke-linecap:round;stroke-linejoin:round"
         d="m 80.25,309.92 a 110,110 0 0 1 28.9,-2.35 c 16.41,0.79 20.31,10.16 20.31,10.16 l -0.78,21.09 c 0,0 -8.59,-6.25 -26.56,-8.59 -17.97,-2.34 -27.34,-0.78 -27.34,-0.78 z" />
      <path
         inkscape:connector-curvature="0"
         id="path195"
         style="fill:#2e353a;stroke:#2e353a;stroke-linecap:round;stroke-linejoin:round"
         d="m 129.62,408.33 4.23,-67.69 C 106.51,324.23 74.78,329.45 74.78,329.45 l -27,78.88 z" />
      <path
         inkscape:connector-curvature="0"
         id="path197"
         style="fill:#ffffff;stroke:#2e353a;stroke-linecap:round;stroke-linejoin:round"
         d="m 343,356.33 c 0,0 2.67,-10.66 17.33,-19.33 14.66,-8.67 36.67,-5.33 36.67,-5.33 l 3.33,8.66 c 0,0 -18,-0.66 -31.33,6.67 -13.33,7.33 -20,16 -20,16 z" />
      <path
         inkscape:connector-curvature="0"
         id="path199"
         style="fill:#2e353a;stroke:#2e353a;stroke-linecap:round;stroke-linejoin:round"
         d="m 442.25,408.33 -39.56,-70.72 c 0,0 -15,-3.94 -33,3.39 -18,7.33 -25.34,21.33 -25.34,21.33 l 7.57,46 z" />
      <path
         inkscape:connector-curvature="0"
         id="path201"
         style="fill:#ffffff"
         d="m 352.94,364.47 c 0.5,2.15 -0.1,4.13 -1.36,4.42 -1.26,0.29 -2.68,-1.21 -3.18,-3.36 -0.5,-2.15 0.1,-4.13 1.35,-4.42 1.25,-0.29 2.68,1.21 3.19,3.36 z" />
    </g>
  </g>
</svg>
