<?xml version="1.0" encoding="UTF-8" standalone="no"?>
<svg
   xmlns:dc="http://purl.org/dc/elements/1.1/"
   xmlns:cc="http://creativecommons.org/ns#"
   xmlns:rdf="http://www.w3.org/1999/02/22-rdf-syntax-ns#"
   xmlns:svg="http://www.w3.org/2000/svg"
   xmlns="http://www.w3.org/2000/svg"
   xmlns:sodipodi="http://sodipodi.sourceforge.net/DTD/sodipodi-0.dtd"
   xmlns:inkscape="http://www.inkscape.org/namespaces/inkscape"
   role="img"
   viewBox="0 0 60.002644 60"
   version="1.1"
   id="svg6"
   sodipodi:docname="wireguard.svg"
   width="60.002644"
   height="60"
   inkscape:version="0.92.5 (2060ec1f9f, 2020-04-08)">
  <metadata
     id="metadata12">
    <rdf:RDF>
      <cc:Work
         rdf:about="">
        <dc:format>image/svg+xml</dc:format>
        <dc:type
           rdf:resource="http://purl.org/dc/dcmitype/StillImage" />
      </cc:Work>
    </rdf:RDF>
  </metadata>
  <defs
     id="defs10" />
  <sodipodi:namedview
     pagecolor="#ffffff"
     bordercolor="#666666"
     borderopacity="1"
     objecttolerance="10"
     gridtolerance="10"
     guidetolerance="10"
     inkscape:pageopacity="0"
     inkscape:pageshadow="2"
     inkscape:window-width="901"
     inkscape:window-height="480"
     id="namedview8"
     showgrid="false"
     inkscape:zoom="9.8333333"
     inkscape:cx="10.220676"
     inkscape:cy="12"
     inkscape:window-x="36"
     inkscape:window-y="0"
     inkscape:window-maximized="0"
     inkscape:current-layer="svg6" />
  <title
     id="title2">WireGuard icon</title>
  <path
     d="M 59.950843,29.1125 C 59.950843,29.1125 61.333342,0 29.338342,0 1.0458432,0 0.16084317,27.925001 0.16084317,27.925001 c 0,0 -4.16000007,32.074999 29.83249983,32.074999 32.607501,0 29.9575,-30.8875 29.9575,-30.8875 z M 20.388343,18.94 c 6.000001,-3.675 13.6725,-1.4275 16.545001,4.095 0.544999,1.0475 0.615,2.6575 0.27,3.7575 -1.192501,3.79 -4.0025,5.914999 -7.862502,6.82 1.1375,-0.975 2.042502,-2.08 2.332501,-3.605001 A 5.28,5.28 0 0 0 30.763342,25.815 5.3500001,5.3500001 0 0 0 24.600843,23.94 c -2.375,0.9 -3.675,3.070001 -3.4425,5.734999 0.217501,2.475 2.0975,4.08 5.6125,4.690001 -0.525,0.277499 -0.93,0.4825 -1.324999,0.7025 a 12.7825,12.7825 0 0 0 -4.110001,3.575 c -0.3575,0.48 -0.6,0.52 -1.145,0.187493 -7.0675,-4.322494 -7.5225,-15.167493 0.195,-19.889993 z m -5.2875,26.705 c -1.1375,0.289999 -2.2375,0.715001 -3.3975,1.095 0.5675,-3.829999 5.0525,-7.357501 8.8475,-6.955001 a 9.7750001,9.7750001 0 0 0 -1.85,5.180002 c -1.26,0.232506 -2.45,0.387498 -3.6,0.679999 z M 39.258344,8.25 c 1.119998,0.0425 2.244998,0.025 3.367499,0.05 a 5.8099999,5.8099999 0 0 1 0.835001,0.117501 8.1225,8.1225 0 0 1 -0.850001,1.085 c -0.400001,0.375 -0.852501,0.739999 -1.432499,0.172501 -0.137502,-0.1375 -0.467502,-0.105 -0.707502,-0.109999 -1.117499,-0.0125 -2.235,-0.05 -3.349999,-0.0075 a 20.8075,20.8075 0 0 0 -2.884999,0.294992 c -0.18,0.0325 -0.445001,0.625 -0.365002,0.845 0.195012,0.5175 0.4775,1.0875 0.8975,1.4175 1.5475,1.225 3.192501,2.32 4.750001,3.5325 1.510001,1.18 2.917499,2.475 3.775001,4.25 1.114999,2.32 1.149998,4.75 0.667499,7.1925 -0.805001,4.075001 -2.8675,7.450001 -6.207501,9.904999 -1.344998,0.987501 -3.0125,1.550002 -4.552498,2.257501 -1.357502,0.624999 -2.750002,1.162499 -4.11,1.779999 -2.450002,1.115001 -3.825,3.775001 -3.4225,6.5375 0.372498,2.5375 2.599999,4.655002 5.1475,5.092501 3.0575,0.525 6.214999,-1.465 6.962499,-4.575 0.84,-3.4925 -1.057501,-6.615 -4.612501,-7.56 l -0.639998,-0.165007 c 0.949999,-0.425002 1.77,-0.727501 2.529998,-1.145002 q 1.982502,-1.092498 3.895001,-2.312499 c 0.375,-0.24 0.577501,-0.24 0.9,0.035 2.4425,2.115 3.9,4.744999 4.309999,7.9675 0.675,5.3375 -1.849999,10.239998 -6.615,12.752499 -7.369999,3.8875 -16.392499,-0.5375 -18.019999,-8.710001 -1.395,-6.999998 3.545,-13.35 9.4925,-14.574998 2.557499,-0.527502 4.894999,-1.592502 6.712499,-3.562501 1.175002,-1.270001 1.742502,-2.359999 1.937502,-2.8525 a 7.9125,7.9125 0 0 0 0.5425,-2.89499 6.7750001,6.7750001 0 0 0 -0.592502,-2.48 c -0.619999,-1.415 -3,-3.665 -3.587499,-4.14 L 28.430844,14.06 c -0.197503,-0.1625 -0.42,-0.15 -0.9,-0.1175 -0.575002,0.04 -2.037501,0.12 -2.667501,-0.045 0.51,-0.3875 1.900001,-0.95 2.500001,-1.4 -1.815,-1.225 -3.885001,-0.785 -5.787501,-1.15 0.44,-0.82 2.615,-2.0775 3.852501,-2.22 a 18.3075,18.3075 0 0 0 -0.337501,-2.055 c -0.075,-0.2775 -0.385,-0.55 -0.6575,-0.7075 -0.655,-0.385 -1.3525,-0.7025 -2.1075,-1.085 a 4.3875,4.3875 0 0 1 2.265,-0.7 8.4625001,8.4625001 0 0 1 2.27,0.22 c 1.35,0.3075 2.425001,0.105 3.497499,-0.81 C 29.513343,3.65 28.668344,3.34 27.850843,2.9725 a 24.6075,24.6075 0 0 1 -2.355,-1.2325 c 2.125001,0.295 4.177501,1.0925 6.349999,0.8 l 0.055,-0.295 -5.044999,-1.175 c 3.007498,-0.275 5.807499,-0.32 8.46,0.97 0.7475,0.365 1.524998,0.665 2.242498,1.08 0.350002,0.199999 0.582501,0.6 0.87,0.9125 0.224988,0.244999 0.410002,0.575 0.69,0.725 1.060001,0.5625 2.225002,0.585 3.415001,0.5575 l 0.025,-0.4 c 1.197498,0.375 2.542499,1.755 2.542499,2.7625 -1.939999,0 -3.874999,-0.0075 -5.812499,0.01001 -0.20751,0 -0.412501,0.1525 -0.617502,0.235001 0.194987,0.115001 0.3875,0.32 0.587502,0.3275 z M 36.758343,5.3825 a 0.29500001,0.29500001 0 0 0 -0.04001,0.475 0.44749999,0.44749999 0 0 0 0.615,0.1625 C 37.520827,5.925 37.703334,5.825 37.928334,5.7075 37.748334,5.552501 37.603333,5.4225 37.453333,5.3 37.188335,5.082499 36.970833,5.22 36.758334,5.3825 Z"
     id="path4"
     inkscape:connector-curvature="0"
     style="stroke-width:2.50000024" />
</svg>
