<?xml version="1.0" encoding="UTF-8" standalone="no"?>
<svg
   xmlns:dc="http://purl.org/dc/elements/1.1/"
   xmlns:cc="http://creativecommons.org/ns#"
   xmlns:rdf="http://www.w3.org/1999/02/22-rdf-syntax-ns#"
   xmlns:svg="http://www.w3.org/2000/svg"
   xmlns="http://www.w3.org/2000/svg"
   xmlns:sodipodi="http://sodipodi.sourceforge.net/DTD/sodipodi-0.dtd"
   xmlns:inkscape="http://www.inkscape.org/namespaces/inkscape"
   role="img"
   viewBox="0 0 54.401176 60"
   version="1.1"
   id="svg6"
   sodipodi:docname="jenkins.svg"
   width="54.401176"
   height="60"
   inkscape:version="0.92.5 (2060ec1f9f, 2020-04-08)">
  <metadata
     id="metadata12">
    <rdf:RDF>
      <cc:Work
         rdf:about="">
        <dc:format>image/svg+xml</dc:format>
        <dc:type
           rdf:resource="http://purl.org/dc/dcmitype/StillImage" />
        <dc:title>Jenkins icon</dc:title>
      </cc:Work>
    </rdf:RDF>
  </metadata>
  <defs
     id="defs10" />
  <sodipodi:namedview
     pagecolor="#ffffff"
     bordercolor="#666666"
     borderopacity="1"
     objecttolerance="10"
     gridtolerance="10"
     guidetolerance="10"
     inkscape:pageopacity="0"
     inkscape:pageshadow="2"
     inkscape:window-width="1564"
     inkscape:window-height="872"
     id="namedview8"
     showgrid="false"
     inkscape:zoom="9.8333333"
     inkscape:cx="10.88039"
     inkscape:cy="36.40678"
     inkscape:window-x="36"
     inkscape:window-y="0"
     inkscape:window-maximized="1"
     inkscape:current-layer="svg6" />
  <title
     id="title2">Jenkins icon</title>
  <path
     d="M 4.3810087,60 H 1.9434866 A 9.665076,9.665076 0 0 1 1.7684881,59.507488 C 1.2309835,57.842464 0.28347699,55.78248 0.03847309,54.122422 -0.32652831,51.662414 1.9884868,51.524973 3.473501,50.459969 c 2.2875187,-1.650053 4.0875309,-2.562567 6.56755,-4.050061 0.737511,-0.447512 2.955022,-1.560024 3.20253,-2.072514 C 13.746086,43.317391 12.381068,41.88238 12.018575,41.087376 11.456058,39.81984 11.156057,38.744834 11.078561,37.499827 9.0185419,37.174816 7.4410316,35.932312 6.4685241,34.537298 4.8935142,32.224789 3.8035037,27.949755 5.156016,24.697225 c 0.1124996,-0.257501 0.6350038,-0.762506 0.7125043,-1.157507 0.15,-0.770002 -0.2625008,-1.800017 -0.3000019,-2.620018 -0.15,-4.230044 0.7100029,-7.875072 3.5625215,-9.150081 1.1575171,-4.600027 5.2825521,-6.132546 9.1825691,-8.417551 1.450022,-0.855004 3.060026,-1.405037 4.725061,-2.017532 5.930019,-2.19252004 15.067583,-1.77999204 19.98513,1.957532 2.090031,1.582501 5.440018,4.925029 6.640022,7.347547 3.155035,6.387552 2.925034,17.062629 0.717562,24.835196 -0.300001,1.052524 -0.725018,2.58002 -1.332564,3.83252 -0.420001,0.875025 -1.722497,2.625032 -1.562445,3.400053 0.160017,0.784987 2.974988,2.925011 3.580013,3.487482 1.085002,1.055045 3.150013,2.437539 3.310005,3.750075 0.174983,1.392491 -0.619998,3.339988 -1.024999,4.687482 -0.542508,1.802544 -1.090026,3.602568 -1.635006,5.327573 H 4.376006 Z M 32.141231,51.149971 c -1.362498,-0.750002 -3.402522,-1.555055 -5.16257,-1.892561 -2.175008,-0.410006 -1.950007,2.970027 -1.875007,4.985012 0.0753,1.607543 0.900004,3.290039 1.275005,4.360066 0.19005,0.492513 0.225137,1.025 0.640006,1.122515 0.75002,0.169975 3.225046,-0.81501 3.937544,-1.197515 1.500023,-0.820024 2.660004,-2.110058 3.935008,-2.972519 0.04004,-0.425006 0.04004,-0.849986 0.07524,-1.269987 A 6.6200511,6.6200511 0 0 0 32.22889,53.59247 c 0.784994,-0.375001 1.875012,-0.375001 2.587487,-0.830033 l 0.04004,-0.482514 c -1.240029,-0.07525 -1.725005,-0.634949 -2.552515,-1.089978 z m 18.635133,7.337513 a 44.450376,44.450376 0 0 0 1.162519,-4.380062 c 0.15,-0.717492 0.537512,-2.295008 0.444973,-2.94001 -0.147427,-1.147471 -1.710003,-1.997477 -2.510033,-2.715008 -1.459955,-1.312536 -2.374985,-2.437538 -3.900011,-3.672543 -0.62247,0.937537 -1.950007,1.53754 -2.457501,2.285007 3.617522,-1.72247 4.275016,6.562552 2.852519,9.225124 0.225106,0.822467 0.977526,1.125004 1.284986,1.837473 l -0.21505,0.415023 h 3.225031 c 0.03234,0 0.07515,0 0.109951,0.03521 z m -16.585131,-0.03 C 34.066188,58.27248 33.941237,58.119998 33.816232,57.93499 l -0.752513,0.487498 h 1.125004 z m 6.925053,0 c 0.01952,-0.522494 0.04521,-1.009999 0.07517,-1.495025 -1.324997,0.0722 -2.062497,-1.200003 -2.990002,-1.31749 -0.810005,-0.11254 -1.500009,0.902513 -2.550015,0.48746 -0.237581,0.262563 -0.457523,0.567561 -0.710026,0.790054 0.384998,0.450002 0.737513,0.937507 1.060001,1.460001 h 2.037509 c 0.03511,-0.409998 0.337528,-0.712488 0.750003,-0.712488 0.412533,0 0.710026,0.30249 0.710026,0.675002 h 1.650002 z m 5.290086,0 c -0.785029,-1.197514 -2.367566,-2.245027 -4.200061,-1.38749 l -0.07529,1.352494 h 4.275032 z m -21.275206,0 -0.259979,-0.859999 C 24.308653,55.79748 23.971184,54.447472 23.858652,53.397469 21.573617,52.307416 19.171115,51.222434 17.223603,49.832408 16.848602,49.56994 14.451089,46.457398 14.148591,46.569867 9.8010469,48.259912 5.7510191,51.219945 2.1134914,54.029981 2.7534967,55.422478 3.3135,56.882431 3.8385017,58.379995 H 25.101166 Z m 20.662645,-5.282505 c -0.0722,-1.280031 -0.40998,-3.900044 -1.200004,-4.350063 -1.650005,-0.975003 -4.615017,1.950054 -5.850018,2.357497 0.112538,0.375001 0.337466,0.677509 0.375001,1.200003 0.712468,-0.185004 1.612471,-0.0722 2.245011,0.229991 -0.747513,0.07513 -1.572515,0.07513 -2.060031,0.410026 -0.18506,0.487487 0.04004,1.200004 -0.0722,1.909984 1.725016,0.492562 3.750064,0.757545 5.962533,0.830021 0.410025,-0.567477 0.562539,-1.612463 0.527515,-2.705027 z M 35.593779,52.274976 c -0.109947,0.937462 0.11485,1.275004 0.300001,2.357447 3.15001,0.977542 2.584987,-4.350013 -0.337544,-2.3975 z m -16.492661,-3.52506 c -1.125004,1.142492 3.17506,2.705005 4.535047,2.787519 0,-0.725025 0.412459,-1.410004 0.337459,-1.925029 -1.624956,-0.294996 -3.754991,-0.104995 -4.862509,-0.867469 z m 13.912653,0.537494 c 0,0.107787 -0.152464,0.07499 -0.169974,0.160025 1.449999,1.127527 2.53501,1.362526 4.505013,1.275004 0.885002,-0.654972 1.675027,-1.40749 2.607564,-2.017466 -2.137566,0.185016 -4.827571,1.517448 -6.935112,0.574964 z M 41.563798,4.97208 C 37.548765,2.707065 30.688733,0.99454696 26.373647,3.144576 c -3.450026,1.729993 -8.17504,4.600024 -9.747552,8.23005 1.500019,3.505017 -0.415018,6.715043 -0.565019,10.272576 -0.04478,1.892516 0.900051,3.550027 0.977529,5.605039 -0.500006,0.845022 -2.062514,0.950022 -3.15002,0.890022 -0.365011,-1.822529 -1.000002,-3.872538 -2.887534,-4.075042 -2.6600119,-0.289999 -4.612528,1.910009 -4.7250303,4.20754 -0.15,2.70002 2.0825189,7.160044 5.2125423,6.862541 1.220019,-0.114939 1.520021,-1.350014 2.847512,-1.350014 0.71252,1.425013 -1.112501,1.875023 -1.307501,2.885049 -0.04002,0.262477 0.149999,1.277494 0.260007,1.762484 0.582492,2.360021 1.860016,5.400016 3.112513,7.200063 1.587512,2.250008 4.710035,2.627518 8.072559,2.852518 0.600001,-1.312491 2.81254,-1.200003 4.265056,-0.864997 -1.727512,-0.675002 -3.34008,-2.362541 -4.687547,-3.822522 -1.537494,-1.69005 -3.075033,-3.525039 -3.152547,-5.700052 2.887551,4.010002 5.250032,7.500056 10.500099,9.26006 3.975016,1.312517 8.625076,-0.634982 11.660092,-2.772517 1.275004,-0.897515 2.02756,-2.325009 2.925027,-3.597531 3.375039,-4.840028 4.950047,-11.775077 4.615019,-18.485136 -0.15,-2.777517 -0.15,-5.55254 -1.08998,-7.387563 -0.972494,-1.952515 -4.237555,-3.677527 -6.187562,-1.952515 -0.375001,-1.910003 1.575005,-3.07502 3.862527,-2.400016 C 45.533832,8.629602 43.843805,6.119575 41.518798,4.804572 Z M 31.15121,37.239814 c 1.537508,3.860055 6.81007,3.407544 11.262594,3.307559 -0.21,0.484964 -0.640006,1.087473 -1.162518,1.287499 -1.42503,0.579985 -5.362524,1.020006 -7.34254,-0.03 -1.265028,-0.675003 -2.06003,-2.18254 -2.755012,-3.067543 -0.34253,-0.429982 -1.987538,-1.519989 -0.03,-1.522501 z m 0.409997,-2.175011 c 2.232566,1.160012 6.300019,1.292532 9.327589,1.200004 0.165068,0.667532 0.165068,1.482515 0.169963,2.282541 -3.874988,0.199944 -8.465048,-0.759995 -9.485053,-3.487544 h -0.01162 z m 16.68766,-1.465004 c -1.182493,2.250016 -2.862499,4.742556 -6.347602,4.820022 -0.05748,-0.709992 -0.112679,-1.837486 0,-2.260014 2.660082,-0.257495 4.317565,-1.615004 6.35757,-2.542505 z m -1.622521,-1.667524 c -2.550008,1.650007 -5.385084,3.437535 -9.560122,3.025025 -0.877461,-0.775016 -1.212493,-2.500023 -0.349951,-3.645036 0.452511,0.782518 0.15,2.212535 1.425008,2.42504 2.360003,0.412495 5.095055,-1.447521 6.825067,-2.100023 1.050023,-1.782512 -0.114979,-2.440024 -1.050015,-3.582526 -1.955001,-2.325015 -4.575048,-5.250047 -4.505076,-8.775073 0.785029,-0.560005 0.865026,0.865004 0.977541,1.125008 1.009999,2.400018 3.560007,5.437542 5.435013,7.500065 0.450002,0.525004 1.200003,0.975007 1.275003,1.310011 0.229991,0.975006 -0.634979,2.135018 -0.522493,2.775016 z m -33.597772,-1.6875 c -0.784998,-0.460005 -0.982503,-2.475021 -1.920013,-2.525017 -1.3375141,-0.075 -1.095008,2.625016 -1.090006,4.20003 C 9.0935419,31.094782 8.9310439,28.507251 9.6085439,27.194751 8.8385415,26.81975 8.4960404,27.604753 8.0635365,27.904755 8.6135404,23.929721 13.913587,26.069747 13.038584,30.304775 Z M 8.9835449,14.987158 c -1.7125135,1.890008 -1.3500103,5.435037 -1.1475087,7.970054 3.1100198,-1.962511 7.2450558,0.15 7.2075608,3.485025 1.487511,-0.04 0.557494,-1.860014 0.287492,-3.03752 -0.882496,-3.820029 1.480037,-7.967555 0.102296,-11.475089 -2.660011,0.21 -4.847536,1.300008 -6.4450461,3.037515 z m 22.8002031,2.78251 c 0.767462,1.405014 1.009971,2.870024 2.100026,3.925033 0.487459,0.47501 1.434986,1.060015 0.96746,2.375019 -0.112538,0.302501 -0.912487,0.977507 -1.377489,1.125009 -1.68503,0.487507 -5.635057,0.07499 -4.302541,-2.025013 1.407533,0.03747 3.285028,0.900004 4.330027,-0.112514 -0.785021,-1.31001 -2.212484,-3.825029 -1.685024,-5.325039 z m 15.495067,-0.03247 h 0.169976 c 0.82501,1.67001 1.500013,3.437525 2.510037,4.912539 -0.675001,1.570004 -5.132507,2.975021 -5.057507,0.142502 0.975,-0.425 2.625006,-0.08755 3.487475,-0.625008 -0.482431,-1.390014 -1.199992,-2.515023 -1.084969,-4.427534 z M 29.961199,13.69466 c -3.555029,-0.825005 -5.327573,1.480012 -6.400034,3.882532 -0.960003,-0.234995 -0.577544,-1.537505 -0.337543,-2.207516 0.637544,-1.752511 3.200037,-4.082527 5.297572,-3.765037 0.897496,0.142512 2.120014,0.965014 1.440005,2.085014 z m -8.65507,-9.712561 c -3.900018,1.100004 -8.900052,3.935024 -10.500078,7.435053 1.237515,-0.175005 2.100021,-0.802519 3.325033,-0.877519 0.465,-0.04002 1.070008,0.185009 1.602516,0.03749 1.06,-0.260013 1.950007,-2.662528 2.755007,-3.525036 C 19.26361,6.189586 20.201142,5.812086 20.838615,5.027064 21.256174,4.802059 21.861129,4.842071 21.888618,4.202054 21.706161,4.014572 21.513617,3.864576 21.308636,3.939575 v 0.0423 z"
     id="path4"
     inkscape:connector-curvature="0"
     style="stroke-width:2.50001884" />
</svg>
