<?xml version="1.0" encoding="UTF-8" standalone="no"?>
<svg
   xmlns:dc="http://purl.org/dc/elements/1.1/"
   xmlns:cc="http://creativecommons.org/ns#"
   xmlns:rdf="http://www.w3.org/1999/02/22-rdf-syntax-ns#"
   xmlns:svg="http://www.w3.org/2000/svg"
   xmlns="http://www.w3.org/2000/svg"
   xmlns:sodipodi="http://sodipodi.sourceforge.net/DTD/sodipodi-0.dtd"
   xmlns:inkscape="http://www.inkscape.org/namespaces/inkscape"
   role="img"
   viewBox="0 0 60.018932 59.999992"
   version="1.1"
   id="svg68"
   sodipodi:docname="rust.svg"
   width="60.018932"
   height="59.999992"
   inkscape:version="0.92.5 (2060ec1f9f, 2020-04-08)">
  <metadata
     id="metadata74">
    <rdf:RDF>
      <cc:Work
         rdf:about="">
        <dc:format>image/svg+xml</dc:format>
        <dc:type
           rdf:resource="http://purl.org/dc/dcmitype/StillImage" />
      </cc:Work>
    </rdf:RDF>
  </metadata>
  <defs
     id="defs72" />
  <sodipodi:namedview
     pagecolor="#ffffff"
     bordercolor="#666666"
     borderopacity="1"
     objecttolerance="10"
     gridtolerance="10"
     guidetolerance="10"
     inkscape:pageopacity="0"
     inkscape:pageshadow="2"
     inkscape:window-width="1564"
     inkscape:window-height="872"
     id="namedview70"
     showgrid="false"
     inkscape:zoom="9.8333333"
     inkscape:cx="10.220138"
     inkscape:cy="11.99596"
     inkscape:window-x="36"
     inkscape:window-y="0"
     inkscape:window-maximized="1"
     inkscape:current-layer="svg68" />
  <title
     id="title64">Rust icon</title>
  <path
     d="m 59.605801,29.258121 -2.519087,-1.559519 a 34.328406,34.328406 0 0 0 -0.07077,-0.734243 l 2.16472,-2.01792 a 0.8710394,0.8710394 0 0 0 -0.288596,-1.445481 l -2.76742,-1.035344 A 21.246559,21.246559 0 0 0 55.907076,21.751377 L 57.63365,19.35383 a 0.86578766,0.86578766 0 0 0 -0.564438,-1.361952 l -2.916719,-0.473657 a 23.401275,23.401275 0 0 0 -0.351867,-0.655718 l 1.225407,-2.691144 a 0.85953558,0.85953558 0 0 0 -0.06852,-0.84053 0.87178965,0.87178965 0 0 0 -0.75175,-0.385128 l -2.962234,0.104035 a 16.866604,16.866604 0 0 0 -0.468406,-0.567189 l 0.680976,-2.8834584 a 0.86828849,0.86828849 0 0 0 -1.042846,-1.043346 l -2.883958,0.681226 a 35.057398,35.057398 0 0 0 -0.56969,-0.468406 l 0.103785,-2.962234 a 0.86078599,0.86078599 0 0 0 -1.225407,-0.820272 l -2.690894,1.227908 c -0.218073,-0.11904 -0.435645,-0.238079 -0.655968,-0.351867 l -0.475909,-2.91922 A 0.8710394,0.8710394 0 0 0 40.65301,2.3784396 l -2.400048,1.726824 a 21.223802,21.223802 0 0 0 -0.713987,-0.215071 l -1.035344,-2.76742 A 0.8710394,0.8710394 0 0 0 35.057901,0.83417658 L 33.03998,3.0013966 a 23.241722,23.241722 0 0 0 -0.734243,-0.07102 L 30.746218,0.41103958 a 0.86578766,0.86578766 0 0 0 -1.473489,0 L 27.713211,2.9301266 a 34.357165,34.357165 0 0 0 -0.734244,0.07102 L 24.958545,0.83392658 a 0.86578766,0.86578766 0 0 0 -1.44548,0.28859602 l -1.035594,2.767169 c -0.24058,0.06852 -0.475908,0.141798 -0.713987,0.215072 l -2.397547,-1.726324 a 0.8710394,0.8710394 0 0 0 -1.362202,0.564688 l -0.475908,2.91897 a 23.401275,23.401275 0 0 0 -0.655718,0.351867 l -2.691395,-1.227908 a 0.86578766,0.86578766 0 0 0 -1.225407,0.820272 l 0.104035,2.962234 a 19.963133,19.963133 0 0 0 -0.569689,0.468406 L 9.6059442,8.5554926 A 0.86828849,0.86828849 0 0 0 8.5628477,9.5985886 L 9.2413231,12.482297 C 9.0842709,12.66986 8.9274688,12.859673 8.7754183,13.049486 L 5.8131841,12.945701 a 0.86578766,0.86578766 0 0 0 -0.8202725,1.225407 l 1.2279079,2.691145 A 22.925117,22.925117 0 0 0 5.8689526,17.51797 l -2.916469,0.473658 A 0.8710394,0.8710394 0 0 0 2.387796,19.35358 l 1.7265737,2.397547 A 33.268553,33.268553 0 0 0 3.8967974,22.465114 L 1.129628,23.500458 a 0.8710394,0.8710394 0 0 0 -0.28884599,1.44573 l 2.16471319,2.018171 a 23.241722,23.241722 0 0 0 -0.070774,0.733993 l -2.51908694,1.559519 a 0.86078599,0.86078599 0 0 0 0,1.473489 l 2.51908694,1.559518 c 0.020007,0.245582 0.045515,0.491163 0.070774,0.734244 l -2.16471969,2.020422 a 0.86578766,0.86578766 0 0 0 0.28884599,1.44548 l 2.7671694,1.035594 c 0.068273,0.24058 0.1417971,0.478659 0.2175723,0.713987 L 2.38779,40.638152 a 0.86328683,0.86328683 0 0 0 0.5671885,1.362202 l 2.916469,0.473408 c 0.1140378,0.220073 0.2305766,0.437895 0.3521169,0.655717 l -1.2279079,2.691395 a 0.86578766,0.86578766 0 0 0 0.8202725,1.225407 l 2.9594833,-0.103784 c 0.1545513,0.192314 0.3088526,0.382127 0.4684056,0.569439 l -0.6784754,2.886209 a 0.86578766,0.86578766 0 0 0 1.0430966,1.040596 l 2.8834579,-0.678476 c 0.187563,0.159553 0.377626,0.313854 0.56994,0.465905 l -0.103785,2.962234 a 0.86078599,0.86078599 0 0 0 1.225407,0.817772 l 2.691145,-1.225407 c 0.217572,0.12154 0.435394,0.237829 0.655717,0.351867 l 0.475909,2.916469 a 0.8710394,0.8710394 0 0 0 1.362202,0.567188 l 2.397547,-1.726574 a 23.255227,23.255227 0 0 0 0.713987,0.217573 l 1.035344,2.767419 a 0.86328683,0.86328683 0 0 0 1.44573,0.288596 l 2.020422,-2.164719 c 0.24308,0.02776 0.488662,0.05077 0.734243,0.07352 l 1.559519,2.519087 a 0.86828849,0.86828849 0 0 0 1.473489,0 l 1.559518,-2.519087 c 0.245582,-0.02276 0.491164,-0.04576 0.734244,-0.07352 l 2.017921,2.164719 a 0.8710394,0.8710394 0 0 0 1.44548,-0.288596 l 1.035594,-2.767419 a 21.163532,21.163532 0 0 0 0.713987,-0.217573 l 2.397547,1.726574 a 0.86328683,0.86328683 0 0 0 1.362202,-0.567188 l 0.475909,-2.916469 c 0.220073,-0.114038 0.437895,-0.232828 0.655717,-0.351867 l 2.691395,1.225407 a 0.86828849,0.86828849 0 0 0 1.225407,-0.817772 L 46.959849,51.22617 a 16.822339,16.822339 0 0 0 0.566939,-0.465905 l 2.883708,0.678476 a 0.86828849,0.86828849 0 0 0 1.043096,-1.040346 l -0.678475,-2.886459 c 0.157052,-0.187312 0.313854,-0.377125 0.465905,-0.569689 l 2.962234,0.103784 a 0.86078599,0.86078599 0 0 0 0.820272,-1.225407 l -1.225407,-2.690895 c 0.11879,-0.218072 0.237829,-0.435644 0.351867,-0.655967 l 2.916469,-0.473408 a 0.8710394,0.8710394 0 0 0 0.564688,-1.362202 l -1.726574,-2.397547 0.217572,-0.713987 2.76742,-1.035344 a 0.86578766,0.86578766 0 0 0 0.288596,-1.44573 L 57.01344,33.025122 c 0.02526,-0.243081 0.05052,-0.488662 0.07077,-0.734244 l 2.519087,-1.559518 a 0.86078599,0.86078599 0 0 0 0,-1.473489 z M 42.74695,50.152813 a 1.7850931,1.7850931 0 0 1 0.746748,-3.49116 1.7855933,1.7855933 0 1 1 -0.749499,3.49116 z M 41.891165,44.36539 a 1.6230393,1.6230393 0 0 0 -1.929391,1.250415 l -0.893547,4.172637 C 36.30856,51.041359 33.245043,51.73784 30.01697,51.73784 a 21.849259,21.849259 0 0 1 -9.24082,-2.035676 l -0.893797,-4.172387 a 1.6205384,1.6205384 0 0 0 -1.929141,-1.247915 l -3.683724,0.789763 a 21.811247,21.811247 0 0 1 -1.903883,-2.245746 h 17.924956 c 0.202567,0 0.339113,-0.03526 0.339113,-0.220074 v -6.342107 c 0,-0.185061 -0.134045,-0.220323 -0.339113,-0.220323 h -5.243242 v -4.020586 h 5.671134 c 0.516422,0 2.76717,0.146799 3.486158,3.023005 0.225325,0.883543 0.718989,3.76225 1.058352,4.683806 0.336612,1.032843 1.708818,3.096279 3.172304,3.096279 h 8.931968 a 1.8736225,1.8736225 0 0 0 0.324107,-0.03276 21.975801,21.975801 0 0 1 -2.030424,2.382291 z m -24.793737,5.701395 a 1.7855933,1.7855933 0 1 1 -0.749499,-3.49116 1.7855933,1.7855933 0 0 1 0.749499,3.49116 z m -6.80026,-27.576162 a 1.784843,1.784843 0 1 1 -3.2610836,1.448231 1.784843,1.784843 0 0 1 3.2610836,-1.447981 z m -2.0886941,4.954895 3.8380251,-1.706566 a 1.6255401,1.6255401 0 0 0 0.825275,-2.146963 l -0.789763,-1.787344 h 3.109033 V 35.815549 H 8.9197102 A 21.945541,21.945541 0 0 1 8.2109748,27.442767 Z M 25.04982,26.085817 v -4.129372 h 7.402709 c 0.382627,0 2.698897,0.443147 2.698897,2.174973 0,1.437978 -1.777341,1.954399 -3.238076,1.954399 z m 26.902438,3.716735 c 0,0.546931 -0.02001,1.091112 -0.06077,1.62804 H 49.64074 c -0.225075,0 -0.316355,0.146549 -0.316355,0.369373 v 1.032843 c 0,2.433309 -1.372206,2.962485 -2.574856,3.096529 -1.14438,0.129293 -2.412801,-0.478409 -2.569603,-1.179642 -0.676225,-3.797762 -1.800098,-4.610532 -3.577439,-6.010497 2.204983,-1.400215 4.498995,-3.466151 4.498995,-6.23082 0,-2.984991 -2.048181,-4.866116 -3.443394,-5.790173 -1.9569,-1.291179 -4.12412,-1.549265 -4.709065,-1.549265 H 13.67454 A 21.920033,21.920033 0 0 1 25.946118,8.2418876 l 2.744411,2.8784574 a 1.6205384,1.6205384 0 0 0 2.296263,0.05327 l 3.06852,-2.9367264 A 21.945541,21.945541 0 0 1 49.071301,18.930942 l -2.101448,4.747077 a 1.6305417,1.6305417 0 0 0 0.825274,2.146963 l 4.045844,1.797597 c 0.07077,0.718989 0.106285,1.44298 0.106285,2.179975 z M 28.69303,5.7963256 a 1.7826446,1.7826446 0 1 1 2.460818,2.579857 1.784843,1.784843 0 0 1 -2.460818,-2.579857 z M 49.547209,22.576901 a 1.7773405,1.7773405 0 0 1 2.349531,-0.906551 1.784843,1.784843 0 1 1 -2.352032,0.909052 z"
     id="path66"
     inkscape:connector-curvature="0"
     style="stroke-width:2.50083089" />
</svg>
