<?xml version="1.0" encoding="UTF-8" standalone="no"?>
<svg
   xmlns:dc="http://purl.org/dc/elements/1.1/"
   xmlns:cc="http://creativecommons.org/ns#"
   xmlns:rdf="http://www.w3.org/1999/02/22-rdf-syntax-ns#"
   xmlns:svg="http://www.w3.org/2000/svg"
   xmlns="http://www.w3.org/2000/svg"
   xmlns:sodipodi="http://sodipodi.sourceforge.net/DTD/sodipodi-0.dtd"
   xmlns:inkscape="http://www.inkscape.org/namespaces/inkscape"
   width="3380"
   height="2590"
   viewBox="0 0 3380 2590"
   version="1.1"
   id="svg64"
   sodipodi:docname="conseiller-numerique-assistance.svg"
   inkscape:version="0.92.5 (2060ec1f9f, 2020-04-08)">
  <metadata
     id="metadata70">
    <rdf:RDF>
      <cc:Work
         rdf:about="">
        <dc:format>image/svg+xml</dc:format>
        <dc:type
           rdf:resource="http://purl.org/dc/dcmitype/StillImage" />
        <dc:title></dc:title>
      </cc:Work>
    </rdf:RDF>
  </metadata>
  <defs
     id="defs68" />
  <sodipodi:namedview
     pagecolor="#ffffff"
     bordercolor="#666666"
     borderopacity="1"
     objecttolerance="10"
     gridtolerance="10"
     guidetolerance="10"
     inkscape:pageopacity="0"
     inkscape:pageshadow="2"
     inkscape:window-width="1564"
     inkscape:window-height="872"
     id="namedview66"
     showgrid="false"
     inkscape:zoom="0.25772541"
     inkscape:cx="2214.6297"
     inkscape:cy="1321.3081"
     inkscape:window-x="36"
     inkscape:window-y="0"
     inkscape:window-maximized="1"
     inkscape:current-layer="svg64" />
  <g
     transform="matrix(7.1628696,0,0,7.1628696,-61.270551,-576.99163)"
     id="g527">
    <g
       id="freepik--Shadow--inject-80">
      <ellipse
         style="fill:#f5f5f5"
         ry="11.32"
         rx="193.89"
         cy="416.23999"
         cx="250"
         id="freepik--path--inject-80" />
    </g>
    <g
       id="freepik--Table--inject-80">
      <polygon
         id="polygon131"
         style="fill:#ffd700"
         points="50.86,310.41 449.14,310.41 442.06,317.11 57.94,317.11 " />
      <polygon
         id="polygon133"
         style="opacity:0.5;fill:#ffffff"
         points="50.86,310.41 449.14,310.41 442.06,317.11 57.94,317.11 " />
      <polygon
         id="polygon135"
         style="fill:#ffd700"
         points="85.01,317.11 414.99,317.11 409.12,320.72 90.88,320.72 " />
      <polygon
         id="polygon137"
         style="opacity:0.5"
         points="85.01,317.11 414.99,317.11 409.12,320.72 90.88,320.72 " />
      <polygon
         id="polygon139"
         style="fill:#ffd700"
         points="97.96,320.72 108.15,320.72 88.36,416.24 83.79,416.24 " />
      <polygon
         id="polygon141"
         style="opacity:0.5"
         points="97.96,320.72 108.15,320.72 88.36,416.24 83.79,416.24 " />
      <polygon
         id="polygon143"
         style="fill:#ffd700"
         points="122.71,320.72 132.9,320.72 113.1,416.24 108.54,416.24 " />
      <polygon
         id="polygon145"
         style="opacity:0.5"
         points="122.71,320.72 132.9,320.72 113.1,416.24 108.54,416.24 " />
      <polygon
         id="polygon147"
         style="fill:#ffd700"
         points="402.04,320.72 391.85,320.72 411.64,416.24 416.21,416.24 " />
      <polygon
         id="polygon149"
         style="opacity:0.5"
         points="402.04,320.72 391.85,320.72 411.64,416.24 416.21,416.24 " />
      <polygon
         id="polygon151"
         style="fill:#ffd700"
         points="377.29,320.72 367.1,320.72 386.9,416.24 391.46,416.24 " />
      <polygon
         id="polygon153"
         style="opacity:0.5"
         points="377.29,320.72 367.1,320.72 386.9,416.24 391.46,416.24 " />
    </g>
    <g
       id="freepik--Gear--inject-80">
      <path
         inkscape:connector-curvature="0"
         id="path156"
         style="fill:#ffd700"
         d="m 224.28,95.14 12.91,0.87 a 2.75,2.75 0 0 1 2.34,1.62 l 1.36,3 a 2.76,2.76 0 0 0 1.49,1.42 37.35,37.35 0 0 1 4.7,2.33 2.78,2.78 0 0 0 2,0.32 l 3.24,-0.76 a 2.78,2.78 0 0 1 2.71,0.87 l 8.52,9.74 a 2.77,2.77 0 0 1 0.5,2.81 l -1.18,3.1 a 2.77,2.77 0 0 0 0.05,2.06 37.7,37.7 0 0 1 1.68,5 2.72,2.72 0 0 0 1.21,1.66 l 2.82,1.75 a 2.75,2.75 0 0 1 1.3,2.53 l -0.86,12.92 a 2.74,2.74 0 0 1 -1.63,2.33 l -3,1.36 a 2.83,2.83 0 0 0 -1.42,1.49 36,36 0 0 1 -2.32,4.7 2.75,2.75 0 0 0 -0.32,2 l 0.75,3.23 a 2.75,2.75 0 0 1 -0.87,2.71 l -9.74,8.52 a 2.75,2.75 0 0 1 -2.8,0.5 l -3.11,-1.18 a 2.79,2.79 0 0 0 -2.05,0 38.72,38.72 0 0 1 -5,1.68 2.76,2.76 0 0 0 -1.66,1.21 l -1.75,2.82 a 2.77,2.77 0 0 1 -2.54,1.3 l -12.91,-0.86 a 2.77,2.77 0 0 1 -2.34,-1.62 l -1.36,-3 a 2.76,2.76 0 0 0 -1.49,-1.42 37.35,37.35 0 0 1 -4.7,-2.33 2.77,2.77 0 0 0 -2,-0.32 l -3.23,0.76 a 2.76,2.76 0 0 1 -2.71,-0.87 l -8.53,-9.74 a 2.79,2.79 0 0 1 -0.5,-2.81 l 1.18,-3.1 a 2.74,2.74 0 0 0 -0.05,-2.05 38.34,38.34 0 0 1 -1.68,-5 2.72,2.72 0 0 0 -1.21,-1.66 l -2.82,-1.75 a 2.75,2.75 0 0 1 -1.3,-2.53 l 0.86,-12.92 a 2.78,2.78 0 0 1 1.63,-2.34 l 3,-1.35 a 2.76,2.76 0 0 0 1.42,-1.49 37.48,37.48 0 0 1 2.33,-4.71 2.79,2.79 0 0 0 0.33,-2 l -0.76,-3.23 a 2.76,2.76 0 0 1 0.87,-2.71 l 9.74,-8.52 a 2.76,2.76 0 0 1 2.8,-0.51 l 3.11,1.18 a 2.74,2.74 0 0 0 2.05,0 37.23,37.23 0 0 1 5,-1.68 2.81,2.81 0 0 0 1.66,-1.2 l 1.75,-2.82 a 2.78,2.78 0 0 1 2.53,-1.31 z m -20.75,40.37 a 24.49,24.49 0 1 0 26.06,-22.8 24.5,24.5 0 0 0 -26.06,22.8 z" />
      <path
         inkscape:connector-curvature="0"
         id="path158"
         style="fill:#ffd700"
         d="m 275.45,149.72 4.43,-1.5 a 1.38,1.38 0 0 1 1.37,0.3 l 0.73,0.7 a 1.41,1.41 0 0 0 0.93,0.36 13.68,13.68 0 0 1 1.82,0.12 1.33,1.33 0 0 0 1,-0.24 l 0.82,-0.59 a 1.38,1.38 0 0 1 1.4,-0.11 l 4.19,2.08 a 1.36,1.36 0 0 1 0.76,1.17 v 1 a 1.38,1.38 0 0 0 0.4,0.92 13.07,13.07 0 0 1 1.2,1.37 1.39,1.39 0 0 0 0.85,0.52 l 1,0.16 a 1.35,1.35 0 0 1 1.06,0.91 l 1.5,4.43 a 1.35,1.35 0 0 1 -0.29,1.37 l -0.7,0.73 a 1.39,1.39 0 0 0 -0.36,0.93 13.79,13.79 0 0 1 -0.12,1.82 1.34,1.34 0 0 0 0.23,1 l 0.59,0.82 a 1.34,1.34 0 0 1 0.12,1.39 l -2.08,4.2 a 1.36,1.36 0 0 1 -1.17,0.76 h -1 a 1.33,1.33 0 0 0 -0.91,0.4 17.55,17.55 0 0 1 -1.37,1.2 1.39,1.39 0 0 0 -0.52,0.85 l -0.16,1 a 1.35,1.35 0 0 1 -0.91,1.06 l -4.43,1.5 a 1.35,1.35 0 0 1 -1.37,-0.3 l -0.74,-0.69 a 1.32,1.32 0 0 0 -0.93,-0.36 13.64,13.64 0 0 1 -1.81,-0.12 1.33,1.33 0 0 0 -1,0.23 l -0.82,0.59 a 1.36,1.36 0 0 1 -1.4,0.12 l -4.19,-2.08 a 1.36,1.36 0 0 1 -0.76,-1.18 v -1 a 1.38,1.38 0 0 0 -0.4,-0.91 14.18,14.18 0 0 1 -1.2,-1.37 1.3,1.3 0 0 0 -0.85,-0.52 l -1,-0.16 a 1.4,1.4 0 0 1 -1.07,-0.91 l -1.5,-4.44 a 1.36,1.36 0 0 1 0.3,-1.36 l 0.7,-0.73 a 1.41,1.41 0 0 0 0.36,-0.94 13.79,13.79 0 0 1 0.12,-1.82 1.35,1.35 0 0 0 -0.24,-1 l -0.58,-0.82 a 1.34,1.34 0 0 1 -0.12,-1.39 l 2.08,-4.2 a 1.33,1.33 0 0 1 1.17,-0.75 h 1 a 1.38,1.38 0 0 0 0.92,-0.4 14.18,14.18 0 0 1 1.37,-1.2 1.39,1.39 0 0 0 0.52,-0.85 l 0.16,-1 a 1.35,1.35 0 0 1 0.9,-1.07 z m 2.65,16.18 a 5,5 0 1 0 3.14,-6.35 5,5 0 0 0 -3.14,6.35 z" />
      <path
         inkscape:connector-curvature="0"
         id="path160"
         style="opacity:0.5;fill:#ffffff"
         d="m 275.45,149.72 4.43,-1.5 a 1.38,1.38 0 0 1 1.37,0.3 l 0.73,0.7 a 1.41,1.41 0 0 0 0.93,0.36 13.68,13.68 0 0 1 1.82,0.12 1.33,1.33 0 0 0 1,-0.24 l 0.82,-0.59 a 1.38,1.38 0 0 1 1.4,-0.11 l 4.19,2.08 a 1.36,1.36 0 0 1 0.76,1.17 v 1 a 1.38,1.38 0 0 0 0.4,0.92 13.07,13.07 0 0 1 1.2,1.37 1.39,1.39 0 0 0 0.85,0.52 l 1,0.16 a 1.35,1.35 0 0 1 1.06,0.91 l 1.5,4.43 a 1.35,1.35 0 0 1 -0.29,1.37 l -0.7,0.73 a 1.39,1.39 0 0 0 -0.36,0.93 13.79,13.79 0 0 1 -0.12,1.82 1.34,1.34 0 0 0 0.23,1 l 0.59,0.82 a 1.34,1.34 0 0 1 0.12,1.39 l -2.08,4.2 a 1.36,1.36 0 0 1 -1.17,0.76 h -1 a 1.33,1.33 0 0 0 -0.91,0.4 17.55,17.55 0 0 1 -1.37,1.2 1.39,1.39 0 0 0 -0.52,0.85 l -0.16,1 a 1.35,1.35 0 0 1 -0.91,1.06 l -4.43,1.5 a 1.35,1.35 0 0 1 -1.37,-0.3 l -0.74,-0.69 a 1.32,1.32 0 0 0 -0.93,-0.36 13.64,13.64 0 0 1 -1.81,-0.12 1.33,1.33 0 0 0 -1,0.23 l -0.82,0.59 a 1.36,1.36 0 0 1 -1.4,0.12 l -4.19,-2.08 a 1.36,1.36 0 0 1 -0.76,-1.18 v -1 a 1.38,1.38 0 0 0 -0.4,-0.91 14.18,14.18 0 0 1 -1.2,-1.37 1.3,1.3 0 0 0 -0.85,-0.52 l -1,-0.16 a 1.4,1.4 0 0 1 -1.07,-0.91 l -1.5,-4.44 a 1.36,1.36 0 0 1 0.3,-1.36 l 0.7,-0.73 a 1.41,1.41 0 0 0 0.36,-0.94 13.79,13.79 0 0 1 0.12,-1.82 1.35,1.35 0 0 0 -0.24,-1 l -0.58,-0.82 a 1.34,1.34 0 0 1 -0.12,-1.39 l 2.08,-4.2 a 1.33,1.33 0 0 1 1.17,-0.75 h 1 a 1.38,1.38 0 0 0 0.92,-0.4 14.18,14.18 0 0 1 1.37,-1.2 1.39,1.39 0 0 0 0.52,-0.85 l 0.16,-1 a 1.35,1.35 0 0 1 0.9,-1.07 z m 2.65,16.18 a 5,5 0 1 0 3.14,-6.35 5,5 0 0 0 -3.14,6.35 z" />
      <path
         inkscape:connector-curvature="0"
         id="path162"
         style="fill:#ffd700"
         d="m 249.9,197.74 5.5,-9.53 a 2.35,2.35 0 0 0 -2,-3.52 h -11 a 2.34,2.34 0 0 0 -2,3.52 l 5.5,9.53 a 2.35,2.35 0 0 0 4,0 z" />
    </g>
    <g
       id="freepik--character-1--inject-80">
      <path
         inkscape:connector-curvature="0"
         id="path165"
         style="fill:#ffd700"
         d="M 69.69,306.42 H 204.5 a 3.44,3.44 0 0 0 3.45,-3.56 l -3.19,-96.38 a 3.74,3.74 0 0 0 -3.69,-3.57 H 66.27 a 3.43,3.43 0 0 0 -3.45,3.57 L 66,302.86 a 3.71,3.71 0 0 0 3.69,3.56 z" />
      <path
         inkscape:connector-curvature="0"
         id="path167"
         style="fill:#ffd700"
         d="M 70.79,306.42 H 205.6 a 3.44,3.44 0 0 0 3.45,-3.56 l -3.19,-96.38 a 3.74,3.74 0 0 0 -3.69,-3.57 H 67.37 a 3.44,3.44 0 0 0 -3.45,3.57 l 3.19,96.38 a 3.71,3.71 0 0 0 3.68,3.56 z" />
      <g
         id="g171"
         style="opacity:0.6">
        <path
           inkscape:connector-curvature="0"
           id="path169"
           style="fill:#263238"
           d="M 70.79,306.42 H 205.6 a 3.44,3.44 0 0 0 3.45,-3.56 l -3.19,-96.38 a 3.74,3.74 0 0 0 -3.69,-3.57 H 67.37 a 3.44,3.44 0 0 0 -3.45,3.57 l 3.19,96.38 a 3.71,3.71 0 0 0 3.68,3.56 z" />
      </g>
      <path
         inkscape:connector-curvature="0"
         id="path173"
         style="fill:#ffd700"
         d="m 72.53,306.25 h 162.81 a 4.27,4.27 0 0 1 3.84,2.4 1.23,1.23 0 0 1 -1.12,1.76 H 69.81 a 1.23,1.23 0 0 1 -1.13,-1.76 4.28,4.28 0 0 1 3.85,-2.4 z" />
      <path
         inkscape:connector-curvature="0"
         id="path175"
         style="opacity:0.6;fill:#263238"
         d="M 235.34,306.25 H 105.42 a 4.28,4.28 0 0 0 -3.85,2.4 1.23,1.23 0 0 0 1.13,1.76 h 135.36 a 1.23,1.23 0 0 0 1.12,-1.76 4.27,4.27 0 0 0 -3.84,-2.4 z" />
      <path
         inkscape:connector-curvature="0"
         id="path177"
         style="opacity:0.3;fill:#ffffff"
         d="m 157.68,308.89 h 33.8 a 1.52,1.52 0 0 1 1.51,1.52 h -36.83 a 1.52,1.52 0 0 1 1.52,-1.52 z" />
      <path
         inkscape:connector-curvature="0"
         id="path179"
         style="opacity:0.9;fill:#ffffff"
         d="m 205.83,299.37 -3,-89.4 a 1.46,1.46 0 0 0 -1.44,-1.39 H 68.48 A 1.33,1.33 0 0 0 67.14,210 l 3,89.4 a 1.44,1.44 0 0 0 1.43,1.39 h 133 a 1.34,1.34 0 0 0 1.26,-1.42 z" />
      <polygon
         id="polygon181"
         style="fill:#ffffff"
         points="99.06,208.58 117.39,208.58 96.26,300.76 77.93,300.76 " />
      <polygon
         id="polygon183"
         style="fill:#ffffff"
         points="122.47,208.58 129.07,208.58 107.94,300.76 101.34,300.76 " />
      <polygon
         id="polygon185"
         style="fill:#ffffff"
         points="189.9,208.58 196.49,208.58 175.37,300.76 168.77,300.76 " />
      <path
         inkscape:connector-curvature="0"
         id="path187"
         style="opacity:0.4;fill:#ffffff"
         d="m 133.82,205.9 a 1.1,1.1 0 0 0 1.08,1 1,1 0 0 0 1,-1 1.08,1.08 0 0 0 -1.08,-1 1,1 0 0 0 -1,1 z" />
      <path
         inkscape:connector-curvature="0"
         id="path189"
         style="fill:#ffc3bd"
         d="m 176.74,196.06 c 1.77,2.84 3.68,5.85 5.59,8.75 1.91,2.9 3.87,5.8 5.87,8.64 a 181.63,181.63 0 0 0 12.57,16.23 63.62,63.62 0 0 0 6.85,6.73 l 0.86,0.68 a 6.44,6.44 0 0 0 0.59,0.45 16.11,16.11 0 0 0 1.61,0.93 30.08,30.08 0 0 0 4.18,1.66 c 1.51,0.51 3.1,1 4.72,1.37 1.62,0.37 3.29,0.8 5,1.15 3.35,0.71 6.85,1.36 10.22,1.94 v 7 c -1.92,0.28 -3.72,0.42 -5.59,0.55 -1.87,0.13 -3.72,0.18 -5.6,0.19 a 69.62,69.62 0 0 1 -11.46,-0.91 42.18,42.18 0 0 1 -6.05,-1.52 23.62,23.62 0 0 1 -3.22,-1.38 c -0.55,-0.26 -1.13,-0.63 -1.69,-1 l -1.29,-0.9 a 69.42,69.42 0 0 1 -8.9,-7.79 159.27,159.27 0 0 1 -14.29,-17.18 q -3.25,-4.45 -6.26,-9 c -2,-3.08 -4,-6.1 -5.86,-9.38 z" />
      <path
         inkscape:connector-curvature="0"
         id="path191"
         style="fill:#ffd700"
         d="m 159.91,198 c -1,8.78 19.93,29.76 19.93,29.76 L 194,215.94 A 192.12,192.12 0 0 0 180.25,195.73 C 172.2,185.76 161,188.07 159.91,198 Z" />
      <path
         inkscape:connector-curvature="0"
         id="path193"
         style="opacity:0.3"
         d="m 171.35,204.23 c -5.59,-6 -8.26,-7.55 -11.48,-5.16 0.43,9.27 20,28.67 20,28.67 1.28,-9.95 -3.79,-16.35 -8.52,-23.51 z" />
      <polygon
         id="polygon195"
         style="fill:#ffd700"
         points="178.5,229.21 175.37,225.96 192.85,211.89 194.34,216.21 " />
      <polygon
         id="polygon197"
         style="opacity:0.3;fill:#263238"
         points="178.5,229.21 175.37,225.96 192.85,211.89 194.34,216.21 " />
      <path
         inkscape:connector-curvature="0"
         id="path199"
         style="fill:#ffc3bd"
         d="m 234.05,244.45 11,1.89 L 239,256 c -1.44,0.23 -7.18,-2.88 -9.72,-6.74 z" />
      <polygon
         id="polygon201"
         style="fill:#ffc3bd"
         points="238.99,255.95 245.03,246.34 251.8,252.86 247.41,257.84 " />
      <path
         inkscape:connector-curvature="0"
         id="path203"
         style="fill:#ffd700"
         d="m 171.3,189.59 c 0,0 12,28.22 3.36,80.78 h -50 c -0.61,-7.67 2.91,-45.1 -5.74,-81.26 a 127.93,127.93 0 0 1 16.67,-2.11 183.59,183.59 0 0 1 21.25,0 95.13,95.13 0 0 1 14.46,2.59 z" />
      <path
         inkscape:connector-curvature="0"
         id="path205"
         style="opacity:0.3"
         d="m 130.09,198 c 1,6 -0.34,20.18 -5.44,36.64 a 238.66,238.66 0 0 0 -4.91,-42 v -0.07 c 3.26,-0.27 9.36,-0.11 10.35,5.43 z" />
      <path
         inkscape:connector-curvature="0"
         id="path207"
         style="fill:#ffc3bd"
         d="m 136.86,163.07 c 1.58,6.84 3.35,19.37 -1.27,23.93 0,0 2,5.66 14.7,5.66 14,0 6.55,-5.66 6.55,-5.66 -7.69,-1.82 -7.69,-7.48 -6.55,-12.79 z" />
      <path
         inkscape:connector-curvature="0"
         id="path209"
         style="fill:#ffffff"
         d="m 151.15,193.19 3,3.17 a 0.64,0.64 0 0 1 0.12,0.72 l -1.5,3.13 a 0.63,0.63 0 0 1 -0.55,0.37 l -2.27,0.11 a 0.63,0.63 0 0 1 -0.55,-0.28 l -2.1,-3 a 0.65,0.65 0 0 1 0,-0.78 l 2.88,-3.41 a 0.63,0.63 0 0 1 0.97,-0.03 z" />
      <path
         inkscape:connector-curvature="0"
         id="path211"
         style="fill:#263238"
         d="m 150.66,192.66 a 16.29,16.29 0 0 0 -2.43,7.7 c 0,0 -16.23,-5.55 -15.49,-13.67 a 32.15,32.15 0 0 0 4.15,-2.41 c 0,0 0.53,5.13 13.77,8.38 z" />
      <path
         inkscape:connector-curvature="0"
         id="path213"
         style="fill:#263238"
         d="m 150.66,192.66 a 22.15,22.15 0 0 1 3.07,7.21 c 0,0 7.52,-5.15 5.38,-13.18 l -4.42,-0.95 c 0,0 0.93,5.18 -4.03,6.92 z" />
      <path
         inkscape:connector-curvature="0"
         id="path215"
         style="fill:#ffffff"
         d="m 152.5,200.24 c 1,3.32 8.54,27.94 8.73,33.83 a 0.76,0.76 0 0 1 0,0.15 c -0.7,3.17 -3.84,8.73 -5.12,10.91 a 0.53,0.53 0 0 1 -0.95,-0.06 c -0.88,-2.15 -3,-7.3 -4.4,-10.31 a 0.61,0.61 0 0 1 -0.05,-0.18 c -0.66,-10.75 -0.84,-27.47 -1.17,-34.15 a 0.53,0.53 0 0 1 0.53,-0.56 H 152 a 0.53,0.53 0 0 1 0.5,0.37 z" />
      <path
         inkscape:connector-curvature="0"
         id="path217"
         style="opacity:0.2"
         d="m 142.34,167.61 7.95,6.59 a 21.51,21.51 0 0 0 -0.53,3.77 c -2.93,-0.42 -7,-3.61 -7.45,-6.66 a 10,10 0 0 1 0.03,-3.7 z" />
      <path
         inkscape:connector-curvature="0"
         id="path219"
         style="fill:#263238"
         d="m 156.44,142.74 c 1.89,1.41 5.12,7.37 1,8.93 -4.12,1.56 -5.63,-12.39 -1,-8.93 z" />
      <path
         inkscape:connector-curvature="0"
         id="path221"
         style="fill:#ffc3bd"
         d="m 134.4,154.87 c 1.89,9.11 2.54,14.52 7.87,18.71 a 12.09,12.09 0 0 0 19.64,-8.53 c 0.78,-8.45 -2.46,-21.92 -12,-24.58 a 12.23,12.23 0 0 0 -15.51,14.4 z" />
      <path
         inkscape:connector-curvature="0"
         id="path223"
         style="fill:#263238"
         d="m 135.59,161.73 3.82,-2.55 0.25,-2.22 a 16.54,16.54 0 0 0 -1.73,-9.35 v 0 c 0,0 18.57,0.69 20.87,-5.12 2.3,-5.81 -4.24,-10.18 -4.24,-10.18 0,0 -6.57,3.77 -11,4.07 -4.43,0.3 -18,-5.24 -18,6.23 -6,1.85 -5.8,11.72 10,19.12" />
      <path
         inkscape:connector-curvature="0"
         id="path225"
         style="fill:#263238"
         d="m 126.23,143.06 c 0,0 -2.46,-1.95 -0.63,-7.91 -2.25,1.12 -3.33,7.21 0.63,7.91 z" />
      <path
         inkscape:connector-curvature="0"
         id="path227"
         style="fill:#ffc3bd"
         d="m 131.71,165.44 a 9.25,9.25 0 0 0 6,3.25 c 3.1,0.33 4,-2.53 2.66,-5.16 -1.24,-2.36 -4.34,-5.38 -7.2,-4.49 -2.86,0.89 -3.31,4.15 -1.46,6.4 z" />
      <path
         inkscape:connector-curvature="0"
         id="path229"
         style="fill:#263238"
         d="m 178.88,300.76 h -31.95 c -2.87,-17.34 -5.18,-30.39 -5.18,-30.39 h 32.91 c 0,0 1.85,12.83 4.22,30.39 z" />
      <path
         inkscape:connector-curvature="0"
         id="path231"
         style="fill:#263238"
         d="m 125.88,300.76 c -0.72,-17.34 -1.26,-30.39 -1.26,-30.39 h 32.26 c 0,0 0.16,13.21 0.23,30.39 z" />
      <path
         inkscape:connector-curvature="0"
         id="path233"
         style="fill:#263238"
         d="m 148.73,155.9 c 0.11,0.75 0.59,1.31 1.08,1.26 0.49,-0.05 0.8,-0.71 0.69,-1.45 -0.11,-0.74 -0.59,-1.31 -1.08,-1.26 -0.49,0.05 -0.8,0.7 -0.69,1.45 z" />
      <path
         inkscape:connector-curvature="0"
         id="path235"
         style="fill:#263238"
         d="m 157.2,155 c 0.11,0.75 0.59,1.31 1.08,1.25 0.49,-0.06 0.8,-0.7 0.69,-1.44 -0.11,-0.74 -0.59,-1.31 -1.08,-1.26 -0.49,0.05 -0.8,0.67 -0.69,1.45 z" />
      <path
         inkscape:connector-curvature="0"
         id="path237"
         style="fill:#ed847e"
         d="m 154.56,155.64 a 28.32,28.32 0 0 0 4.5,6 c -1.14,1.38 -3.48,1.06 -3.48,1.06 z" />
      <path
         inkscape:connector-curvature="0"
         id="path239"
         style="fill:#263238"
         d="m 152.14,165 a 7.33,7.33 0 0 0 1.55,0 0.22,0.22 0 0 0 0.2,-0.24 0.23,0.23 0 0 0 -0.25,-0.2 6.2,6.2 0 0 1 -5.18,-1.78 0.22343903,0.22343903 0 0 0 -0.34,0.29 6.44,6.44 0 0 0 4.02,1.93 z" />
      <path
         inkscape:connector-curvature="0"
         id="path241"
         style="fill:#263238"
         d="m 145.67,153.46 a 0.43,0.43 0 0 0 0.43,-0.22 3.35,3.35 0 0 1 2.6,-1.76 0.45,0.45 0 0 0 0.42,-0.47 0.44,0.44 0 0 0 -0.46,-0.42 4.27,4.27 0 0 0 -3.33,2.21 0.44,0.44 0 0 0 0.17,0.61 0.34,0.34 0 0 0 0.17,0.05 z" />
      <path
         inkscape:connector-curvature="0"
         id="path243"
         style="fill:#263238"
         d="m 160.37,151.67 a 0.47,0.47 0 0 0 0.3,-0.08 0.45,0.45 0 0 0 0.12,-0.61 4.56,4.56 0 0 0 -3.51,-2.11 0.45,0.45 0 0 0 -0.45,0.43 0.45,0.45 0 0 0 0.44,0.45 3.68,3.68 0 0 1 2.78,1.72 0.47,0.47 0 0 0 0.32,0.2 z" />
      <path
         inkscape:connector-curvature="0"
         id="path245"
         style="fill:#ffc3bd"
         d="m 128.47,203.16 -2.22,3.84 q -1.12,2 -2.19,4 -2.16,4 -4.14,8.06 c -1.3,2.71 -2.54,5.43 -3.65,8.17 -0.53,1.36 -1.07,2.73 -1.53,4.1 l -0.71,2.05 -0.59,2 -0.15,0.51 -0.08,0.26 c 0,0.09 0,0 0,0.06 0,0.06 0,0.11 -0.07,0.22 a 5.69,5.69 0 0 0 0,1.18 17.34,17.34 0 0 0 0.74,3.5 61.33,61.33 0 0 0 3.2,8 c 2.53,5.43 5.61,10.91 8.64,16.26 l -5.53,4.32 c -2.36,-2.37 -4.48,-4.78 -6.56,-7.32 -2.08,-2.54 -4,-5.18 -5.89,-8 a 60.2,60.2 0 0 1 -5,-9.09 29.64,29.64 0 0 1 -1.84,-5.62 17.32,17.32 0 0 1 -0.38,-3.55 12.5,12.5 0 0 1 0.16,-2.14 l 0.08,-0.52 0.07,-0.32 0.13,-0.65 a 75.77,75.77 0 0 1 2.63,-10 c 1.06,-3.22 2.3,-6.32 3.62,-9.38 1.32,-3.06 2.77,-6 4.32,-8.94 0.78,-1.45 1.57,-2.89 2.4,-4.33 0.83,-1.44 1.65,-2.8 2.64,-4.33 z" />
      <path
         inkscape:connector-curvature="0"
         id="path247"
         style="fill:#ffd700"
         d="m 118.93,189.11 c -8.8,1.29 -17.87,31.93 -17.87,31.93 L 120,231.53 c 0,0 7.67,-14.58 11.33,-25.4 3.83,-11.34 -2.97,-18.4 -12.4,-17.02 z" />
      <polygon
         id="polygon249"
         style="fill:#ffd700"
         points="120.11,231.93 122.7,228.22 101.45,216.72 100.65,221.22 " />
      <polygon
         id="polygon251"
         style="opacity:0.3;fill:#263238"
         points="120.11,231.93 122.7,228.22 101.45,216.72 100.65,221.22 " />
      <path
         inkscape:connector-curvature="0"
         id="path253"
         style="fill:#ffc3bd"
         d="m 123.2,263.29 9.3,-1.62 -4.77,10.77 c 0,0 -8.5,-0.05 -8.11,-4.43 z" />
      <polygon
         id="polygon255"
         style="fill:#ffc3bd"
         points="127.73,272.44 132.5,261.67 139.45,267.08 135.07,275.78 " />
    </g>
    <g
       id="freepik--character-2--inject-80">
      <path
         inkscape:connector-curvature="0"
         id="path258"
         style="fill:#ffd700"
         d="M 430.31,306.42 H 295.5 a 3.44,3.44 0 0 1 -3.45,-3.56 l 3.19,-96.38 a 3.74,3.74 0 0 1 3.69,-3.57 h 134.8 a 3.43,3.43 0 0 1 3.45,3.57 L 434,302.86 a 3.71,3.71 0 0 1 -3.69,3.56 z" />
      <path
         inkscape:connector-curvature="0"
         id="path260"
         style="opacity:0.6;fill:#263238"
         d="M 430.31,306.42 H 295.5 a 3.44,3.44 0 0 1 -3.45,-3.56 l 3.19,-96.38 a 3.74,3.74 0 0 1 3.69,-3.57 h 134.8 a 3.43,3.43 0 0 1 3.45,3.57 L 434,302.86 a 3.71,3.71 0 0 1 -3.69,3.56 z" />
      <path
         inkscape:connector-curvature="0"
         id="path262"
         style="fill:#ffd700"
         d="M 429.21,306.42 H 294.4 a 3.44,3.44 0 0 1 -3.45,-3.56 l 3.19,-96.38 a 3.74,3.74 0 0 1 3.69,-3.57 h 134.8 a 3.44,3.44 0 0 1 3.45,3.57 l -3.19,96.38 a 3.71,3.71 0 0 1 -3.68,3.56 z" />
      <path
         inkscape:connector-curvature="0"
         id="path264"
         style="fill:#ffd700"
         d="M 427.47,306.25 H 264.66 a 4.27,4.27 0 0 0 -3.84,2.4 1.23,1.23 0 0 0 1.12,1.76 h 168.25 a 1.23,1.23 0 0 0 1.13,-1.76 4.28,4.28 0 0 0 -3.85,-2.4 z" />
      <path
         inkscape:connector-curvature="0"
         id="path266"
         style="opacity:0.6;fill:#263238"
         d="m 427.47,306.25 h -25 a 4.28,4.28 0 0 0 -3.85,2.4 1.23,1.23 0 0 0 1.13,1.76 h 30.39 a 1.23,1.23 0 0 0 1.13,-1.76 4.28,4.28 0 0 0 -3.8,-2.4 z" />
      <path
         inkscape:connector-curvature="0"
         id="path268"
         style="opacity:0.2"
         d="m 342.32,308.89 h -33.8 a 1.52,1.52 0 0 0 -1.51,1.52 h 36.83 a 1.52,1.52 0 0 0 -1.52,-1.52 z" />
      <path
         inkscape:connector-curvature="0"
         id="path270"
         style="opacity:0.9;fill:#ffffff"
         d="m 294.17,299.37 3,-89.4 a 1.46,1.46 0 0 1 1.44,-1.39 h 133 a 1.33,1.33 0 0 1 1.34,1.39 l -3,89.4 a 1.44,1.44 0 0 1 -1.43,1.39 h -133 a 1.34,1.34 0 0 1 -1.35,-1.39 z" />
      <polygon
         id="polygon272"
         style="fill:#ffffff"
         points="391.52,208.58 409.85,208.58 388.72,300.76 370.39,300.76 " />
      <polygon
         id="polygon274"
         style="fill:#ffffff"
         points="323.66,208.58 330.25,208.58 309.13,300.76 302.53,300.76 " />
      <polygon
         id="polygon276"
         style="fill:#ffffff"
         points="418.28,208.58 424.88,208.58 403.75,300.76 397.15,300.76 " />
      <path
         inkscape:connector-curvature="0"
         id="path278"
         style="opacity:0.4"
         d="m 366.18,205.9 a 1.1,1.1 0 0 1 -1.08,1 1,1 0 0 1 -1,-1 1.08,1.08 0 0 1 1.08,-1 1,1 0 0 1 1,1 z" />
      <path
         inkscape:connector-curvature="0"
         id="path280"
         style="fill:#b55b52"
         d="m 356.46,163.07 c -1.57,6.84 -3.35,19.37 1.28,23.93 0,0 -2,5.66 -14.7,5.66 -14,0 -6.55,-5.66 -6.55,-5.66 7.69,-1.82 7.69,-7.48 6.54,-12.79 z" />
      <path
         inkscape:connector-curvature="0"
         id="path282"
         style="fill:#b65b52"
         d="m 376.81,195.56 c 1,1.53 1.82,2.87 2.64,4.33 0.82,1.46 1.63,2.88 2.41,4.33 1.54,2.92 3,5.89 4.32,8.94 1.32,3.05 2.56,6.16 3.61,9.38 a 75.79,75.79 0 0 1 2.64,10 l 0.13,0.65 0.06,0.32 0.09,0.52 a 14.91,14.91 0 0 1 0.16,2.14 18.84,18.84 0 0 1 -0.38,3.55 29.63,29.63 0 0 1 -1.85,5.62 59.3,59.3 0 0 1 -5,9.09 c -1.86,2.79 -3.82,5.43 -5.9,8 a 97.82,97.82 0 0 1 -6.56,7.32 l -5.52,-4.32 c 3,-5.35 6.11,-10.83 8.64,-16.26 a 61.23,61.23 0 0 0 3.19,-8 17.34,17.34 0 0 0 0.74,-3.5 5.18,5.18 0 0 0 0,-1.18 c 0,-0.11 0,-0.21 -0.08,-0.22 v -0.06 l -0.07,-0.26 -0.15,-0.51 -0.6,-2 -0.7,-2.05 c -0.47,-1.37 -1,-2.74 -1.54,-4.1 -1.11,-2.74 -2.35,-5.46 -3.64,-8.17 -1.29,-2.71 -2.71,-5.39 -4.14,-8.06 q -1.06,-2 -2.19,-4 l -2.22,-3.83 z" />
      <path
         inkscape:connector-curvature="0"
         id="path284"
         style="fill:#263238"
         d="m 374.4,189.11 c 8.8,1.29 17.86,31.93 17.86,31.93 l -18.93,10.49 c 0,0 -7.68,-14.53 -11.33,-25.4 -3.84,-11.34 3,-18.4 12.4,-17.02 z" />
      <path
         inkscape:connector-curvature="0"
         id="path286"
         style="opacity:0.3"
         d="m 368.67,205.9 -1.43,13.1 c 1.43,3.15 2.83,6 3.92,8.25 0.41,-5.25 0.4,-13.79 -2.49,-21.35 z" />
      <polygon
         id="polygon288"
         style="fill:#ffd700"
         points="373.22,231.93 370.63,228.22 391.87,216.72 392.68,221.22 " />
      <polygon
         id="polygon290"
         style="opacity:0.3;fill:#263238"
         points="373.22,231.93 370.63,228.22 391.87,216.72 392.68,221.22 " />
      <path
         inkscape:connector-curvature="0"
         id="path292"
         style="fill:#b55b52"
         d="m 370.13,263.29 -9.31,-1.62 4.78,10.77 c 0,0 8.49,-0.05 8.1,-4.43 z" />
      <polygon
         id="polygon294"
         style="fill:#b55b52"
         points="365.6,272.44 360.82,261.67 353.88,267.08 358.25,275.78 " />
      <path
         inkscape:connector-curvature="0"
         id="path296"
         style="fill:#263238"
         d="m 322,189.59 c 0,0 -12,28.22 -3.35,80.78 h 50 c 0.61,-7.67 -2.92,-45.1 5.74,-81.26 A 128.23,128.23 0 0 0 357.74,187 183.59,183.59 0 0 0 336.49,187 95.11,95.11 0 0 0 322,189.59 Z" />
      <path
         inkscape:connector-curvature="0"
         id="path298"
         style="opacity:0.3"
         d="m 316.65,213.73 a 169.84,169.84 0 0 0 -1.11,19.05 c 6.8,-4.43 9.22,-14.59 10.18,-21.95 z" />
      <path
         inkscape:connector-curvature="0"
         id="path300"
         style="fill:#b65b52"
         d="m 328.78,203.28 c -1.91,3.28 -3.84,6.3 -5.86,9.38 -2.02,3.08 -4.09,6.07 -6.26,9 a 159.38,159.38 0 0 1 -14.3,17.18 70,70 0 0 1 -8.89,7.79 l -1.3,0.9 c -0.56,0.34 -1.14,0.71 -1.68,1 a 24.27,24.27 0 0 1 -3.23,1.38 42.18,42.18 0 0 1 -6.05,1.52 69.53,69.53 0 0 1 -11.46,0.91 c -1.87,0 -3.74,0 -5.59,-0.19 -1.85,-0.19 -3.68,-0.27 -5.6,-0.55 v -7 c 3.37,-0.58 6.87,-1.23 10.21,-1.94 1.68,-0.35 3.35,-0.73 5,-1.15 1.65,-0.42 3.22,-0.86 4.72,-1.37 a 29.59,29.59 0 0 0 4.18,-1.66 16.11,16.11 0 0 0 1.61,-0.93 c 0.25,-0.15 0.4,-0.31 0.6,-0.45 l 0.86,-0.68 a 65.51,65.51 0 0 0 6.85,-6.73 185.42,185.42 0 0 0 12.57,-16.23 c 2,-2.84 3.93,-5.74 5.87,-8.64 1.94,-2.9 3.81,-5.91 5.59,-8.75 z" />
      <path
         inkscape:connector-curvature="0"
         id="path302"
         style="fill:#263238"
         d="m 333.41,198 c 1,8.78 -18.58,30.08 -18.58,30.08 l -15.49,-12.12 a 191.23,191.23 0 0 1 13.74,-20.21 c 8.04,-9.99 19.22,-7.68 20.33,2.25 z" />
      <polygon
         id="polygon304"
         style="fill:#ffd700"
         points="314.82,229.21 317.96,225.96 300.48,211.89 298.99,216.21 " />
      <polygon
         id="polygon306"
         style="opacity:0.3;fill:#263238"
         points="314.82,229.21 317.96,225.96 300.48,211.89 298.99,216.21 " />
      <path
         inkscape:connector-curvature="0"
         id="path308"
         style="fill:#b55b52"
         d="m 258.56,244.63 -11.15,0.16 4.49,10.44 c 1.38,0.45 7.54,-1.74 10.64,-5.16 z" />
      <polygon
         id="polygon310"
         style="fill:#b55b52"
         points="251.9,255.22 247.41,244.79 239.72,250.2 245.81,257.84 " />
      <path
         inkscape:connector-curvature="0"
         id="path312"
         style="fill:#263238"
         d="m 333.35,155 c -0.11,0.75 -0.59,1.31 -1.08,1.25 -0.49,-0.06 -0.8,-0.7 -0.7,-1.44 0.1,-0.74 0.6,-1.31 1.09,-1.26 0.49,0.05 0.8,0.67 0.69,1.45 z" />
      <path
         inkscape:connector-curvature="0"
         id="path314"
         style="fill:#a02724"
         d="m 333.56,155.64 a 28.13,28.13 0 0 1 -4.51,6 c 1.15,1.38 3.49,1.06 3.49,1.06 z" />
      <path
         inkscape:connector-curvature="0"
         id="path316"
         style="fill:#263238"
         d="m 332.29,161.16 c -1.67,0 -3.18,-2.41 -3.45,-5.49 a 6.72,6.72 0 0 1 1.16,-4.87 1.88,1.88 0 0 1 1.4,-0.68 v 0 c 1.67,0 3.18,2.4 3.45,5.48 v 0 a 6.7,6.7 0 0 1 -1.14,4.88 1.92,1.92 0 0 1 -1.4,0.68 z m -0.9,-10.54 v 0 a 1.39,1.39 0 0 0 -1,0.51 6.26,6.26 0 0 0 -1,4.5 c 0.24,2.73 1.59,5 3,5 v 0 a 1.4,1.4 0 0 0 1,-0.52 6.18,6.18 0 0 0 1,-4.49 c -0.29,-2.7 -1.64,-5 -3,-5 z" />
      <path
         inkscape:connector-curvature="0"
         id="path318"
         style="fill:#263238"
         d="m 336,151.67 a 0.44,0.44 0 0 0 0.29,-0.08 0.44,0.44 0 0 0 0.13,-0.61 4.56,4.56 0 0 0 -3.51,-2.11 0.45,0.45 0 0 0 -0.45,0.43 0.45,0.45 0 0 0 0.44,0.45 3.68,3.68 0 0 1 2.78,1.72 0.47,0.47 0 0 0 0.32,0.2 z" />
      <path
         inkscape:connector-curvature="0"
         id="path320"
         style="fill:#b55b52"
         d="m 358.93,154.87 c -1.9,9.11 -2.54,14.52 -7.88,18.71 a 12.09,12.09 0 0 1 -19.63,-8.53 c -0.78,-8.45 2.45,-21.92 12,-24.58 a 12.24,12.24 0 0 1 15.51,14.4 z" />
      <path
         inkscape:connector-curvature="0"
         id="path322"
         style="fill:#ffd700"
         d="m 371.35,300.76 a 115.12,115.12 0 0 0 -2.65,-30.39 h -32.26 a 121.63,121.63 0 0 1 3.69,30.39 z" />
      <path
         inkscape:connector-curvature="0"
         id="path324"
         style="opacity:0.3;fill:#ffffff"
         d="m 371.35,300.76 a 115.12,115.12 0 0 0 -2.65,-30.39 h -32.26 a 121.63,121.63 0 0 1 3.69,30.39 z" />
      <path
         inkscape:connector-curvature="0"
         id="path326"
         style="fill:#263238"
         d="m 339.17,157.61 c -1.78,-0.89 -4,-9.78 -3.39,-12.94 0.61,-3.16 7.78,-6.56 14.83,-5.28 7.05,1.28 10.08,3.75 11.45,10.17 1.41,6.66 -3.73,17.75 -6.27,18.61 a 11.24,11.24 0 0 1 -9.23,-0.78 c -2.27,-1.39 -3.45,-11.61 -7.39,-9.78 z" />
      <path
         inkscape:connector-curvature="0"
         id="path328"
         style="fill:#263238"
         d="m 337.3,147.86 c -3.44,0.2 -6.72,-5.28 -3.56,-10.17 a 8.65,8.65 0 0 1 8.56,-3.83 c 0,0 -1.44,2.81 3.36,2.22 4.8,-0.59 13.74,0.75 16.86,4.11 3.86,4.14 1.53,12.28 -4.28,10.28 -5.81,-2 -20.94,-2.61 -20.94,-2.61 z" />
      <path
         inkscape:connector-curvature="0"
         id="path330"
         style="fill:#263238"
         d="m 336.38,148 a 5.07,5.07 0 0 1 -3.72,-1.9 7.56,7.56 0 0 1 -1.14,-7.85 0.25347584,0.25347584 0 1 1 0.47,0.19 7,7 0 0 0 1.05,7.33 4.22,4.22 0 0 0 4.07,1.64 0.26,0.26 0 0 1 0.3,0.18 0.26,0.26 0 0 1 -0.18,0.31 3.53,3.53 0 0 1 -0.85,0.1 z" />
      <path
         inkscape:connector-curvature="0"
         id="path332"
         style="fill:#b55b52"
         d="m 344.82,156.46 a 9.28,9.28 0 0 1 -2.13,6.51 c -2,2.37 -4.67,0.94 -5.48,-1.91 -0.73,-2.57 -0.56,-6.89 2.13,-8.22 2.69,-1.33 5.27,0.73 5.48,3.62 z" />
      <path
         inkscape:connector-curvature="0"
         id="path334"
         style="fill:#ffd700"
         d="m 314.45,300.76 h 35.85 a 117.84,117.84 0 0 0 1.27,-30.39 h -32.9 c 0,0 -1.85,12.83 -4.22,30.39 z" />
      <path
         inkscape:connector-curvature="0"
         id="path336"
         style="opacity:0.3;fill:#ffffff"
         d="m 314.45,300.76 h 35.85 a 117.84,117.84 0 0 0 1.27,-30.39 h -32.9 c 0,0 -1.85,12.83 -4.22,30.39 z" />
    </g>
  </g>
</svg>
