<?xml version="1.0" encoding="UTF-8" standalone="no"?>
<svg
   xmlns:dc="http://purl.org/dc/elements/1.1/"
   xmlns:cc="http://creativecommons.org/ns#"
   xmlns:rdf="http://www.w3.org/1999/02/22-rdf-syntax-ns#"
   xmlns:svg="http://www.w3.org/2000/svg"
   xmlns="http://www.w3.org/2000/svg"
   xmlns:sodipodi="http://sodipodi.sourceforge.net/DTD/sodipodi-0.dtd"
   xmlns:inkscape="http://www.inkscape.org/namespaces/inkscape"
   role="img"
   viewBox="0 0 52.762501 60"
   version="1.1"
   id="svg6"
   sodipodi:docname="shopify.svg"
   width="52.762501"
   height="60"
   inkscape:version="0.92.5 (2060ec1f9f, 2020-04-08)">
  <metadata
     id="metadata12">
    <rdf:RDF>
      <cc:Work
         rdf:about="">
        <dc:format>image/svg+xml</dc:format>
        <dc:type
           rdf:resource="http://purl.org/dc/dcmitype/StillImage" />
      </cc:Work>
    </rdf:RDF>
  </metadata>
  <defs
     id="defs10" />
  <sodipodi:namedview
     pagecolor="#ffffff"
     bordercolor="#666666"
     borderopacity="1"
     objecttolerance="10"
     gridtolerance="10"
     guidetolerance="10"
     inkscape:pageopacity="0"
     inkscape:pageshadow="2"
     inkscape:window-width="1564"
     inkscape:window-height="872"
     id="namedview8"
     showgrid="false"
     inkscape:zoom="9.8333333"
     inkscape:cx="8.772339"
     inkscape:cy="12"
     inkscape:window-x="36"
     inkscape:window-y="0"
     inkscape:window-maximized="1"
     inkscape:current-layer="svg6" />
  <title
     id="title2">Shopify icon</title>
  <path
     d="m 34.7225,59.9475 18.04,-3.9025 c 0,0 -6.51,-44.0325 -6.5625,-44.325 -0.045,-0.29 -0.285,-0.48 -0.5275,-0.48 -0.2425,0 -4.8225,-0.34 -4.8225,-0.34 0,0 -3.1875,-3.185 -3.5975,-3.5275 C 37.14,7.28 37.065,7.23 36.95,7.1875 l -2.285,52.76 z M 25.655,28.2625 c 0,0 -2.025,-1.06 -4.435,-1.06 -3.6175,0 -3.76,2.265 -3.76,2.8525 0,3.08 8.1,4.2875 8.1,11.5725 0,5.7375 -3.6,9.4 -8.515,9.4 -5.885,0 -8.85,-3.6625 -8.85,-3.6625 L 9.81,42.15 c 0,0 3.1125,2.665 5.7,2.665 1.6875,0 2.4375,-1.3625 2.4375,-2.33 0,-4.0475 -6.635,-4.235 -6.635,-10.8975 -0.085,-5.5925 3.9275,-11.04 12.0675,-11.04 3.1425,0 4.6875,0.9025 4.6875,0.9025 L 25.705,28.2375 Z M 24.305,2.075 c 0.34,0 0.6775,0.095 1.0125,0.3375 -2.46,1.1625 -5.16,4.0975 -6.27,9.98 -1.64,0.5325 -3.2325,1.0125 -4.7225,1.445 C 15.6225,9.375 18.7575,2.1 24.305,2.1 Z m 3.0875,7.3725 V 9.785 c -1.885,0.58 -3.9575,1.21 -5.985,1.84 1.165,-4.4425 3.3325,-6.6125 5.2125,-7.4275 0.4825,1.2525 0.7725,2.94 0.7725,5.25 z M 28.74,3.8625 C 30.475,4.0475 31.5925,6.03 32.3125,8.25 31.44,8.535 30.475,8.8275 29.4175,9.165 v -0.63 c 0,-1.88 -0.24,-3.4275 -0.6775,-4.6775 z m 7.48,3.2225 c -0.05,0 -0.15,0.0525 -0.195,0.0525 -0.045,0 -0.7225,0.1875 -1.785,0.525 C 33.1825,4.58 31.3,1.7375 27.97,1.7375 H 27.6825 C 26.7175,0.5225 25.5525,0 24.5425,0 16.7775,0 13.0675,9.6925 11.905,14.615 8.92,15.5275 6.7475,16.205 6.505,16.3 4.8175,16.8325 4.77,16.88 4.575,18.475 4.3875,19.63 0,53.6325 0,53.6325 L 33.9025,60 Z"
     id="path4"
     inkscape:connector-curvature="0"
     style="stroke-width:2.5" />
</svg>
