<?xml version="1.0" encoding="UTF-8" standalone="no"?>
<!-- Created with Inkscape (http://www.inkscape.org/) -->

<svg
   xmlns:dc="http://purl.org/dc/elements/1.1/"
   xmlns:cc="http://creativecommons.org/ns#"
   xmlns:rdf="http://www.w3.org/1999/02/22-rdf-syntax-ns#"
   xmlns:svg="http://www.w3.org/2000/svg"
   xmlns="http://www.w3.org/2000/svg"
   xmlns:sodipodi="http://sodipodi.sourceforge.net/DTD/sodipodi-0.dtd"
   xmlns:inkscape="http://www.inkscape.org/namespaces/inkscape"
   width="80.144577mm"
   height="15.399808mm"
   viewBox="0 0 80.144577 15.399808"
   version="1.1"
   id="svg97"
   inkscape:version="0.92.5 (2060ec1f9f, 2020-04-08)"
   sodipodi:docname="dessin.svg">
  <defs
     id="defs91" />
  <sodipodi:namedview
     id="base"
     pagecolor="#ffffff"
     bordercolor="#666666"
     borderopacity="1.0"
     inkscape:pageopacity="0.0"
     inkscape:pageshadow="2"
     inkscape:zoom="0.98994949"
     inkscape:cx="608.51522"
     inkscape:cy="-103.66239"
     inkscape:document-units="mm"
     inkscape:current-layer="layer1"
     showgrid="false"
     fit-margin-top="0"
     fit-margin-left="0"
     fit-margin-right="0"
     fit-margin-bottom="0"
     inkscape:window-width="1564"
     inkscape:window-height="872"
     inkscape:window-x="36"
     inkscape:window-y="0"
     inkscape:window-maximized="1" />
  <metadata
     id="metadata94">
    <rdf:RDF>
      <cc:Work
         rdf:about="">
        <dc:format>image/svg+xml</dc:format>
        <dc:type
           rdf:resource="http://purl.org/dc/dcmitype/StillImage" />
        <dc:title></dc:title>
      </cc:Work>
    </rdf:RDF>
  </metadata>
  <g
     inkscape:label="Calque 1"
     inkscape:groupmode="layer"
     id="layer1"
     transform="translate(68.798478,-153.22867)">
    <g
       transform="matrix(0.26458333,0,0,0.26458333,-69.644671,153.21222)"
       id="g74">
      <path
         style="fill:#2d2d2d;stroke-width:2.42477155"
         inkscape:connector-curvature="0"
         id="path2"
         d="m 29.338106,0.0682384 c -0.12156,0.07268 -1.50073,2.4755513 0.29358,4.7548283 -4.19486,0.80016 -7.17711,3.099138 -9.50488,5.6451583 -4.7283,0.169737 -9.94307,0.344014 -10.64625,4.053907 -0.31522,0.07268 -1.36052,0.09432 -1.50601,0.312568 -0.0243,0.04848 -0.24096,0.946218 -0.2652,1.794887 0.0485,1.648841 0.77744,3.004624 2.76575,2.713668 0.53346,2.836965 0.19226,4.800857 1.88962,7.08014 -0.1455,0.775911 -0.23982,1.554103 -0.31256,2.330014 -5.57698,2.691499 -9.8944,4.439205 -8.63351,8.003612 1.26087,3.055228 5.8416,2.010132 8.77556,0.506774 1.33363,7.419779 6.33,12.052789 13.48302,13.871352 -4.17059,-0.169623 -6.98334,-0.170397 -7.27431,-0.170397 -2.44899,0 -2.44899,3.684512 0,3.684512 0.26679,0 2.81201,-0.385508 7.10383,-0.506773 l -0.1183,1.453918 c -0.21826,1.794384 2.20537,2.594326 3.07831,1.018216 0,2.158051 3.2471,2.229658 3.31984,0.04689 l 0.0757,-0.606187 c 0.1455,2.667257 3.41682,2.208434 3.31983,0.122816 0.48497,2.109539 3.685257,1.380221 3.248797,-0.729318 l -0.11829,-1.359156 c 3.73415,-0.121465 8.83413,-0.03722 14.21709,-1.273938 2.88548,-0.678937 3.85368,-0.992443 5.52677,-1.283438 1.72159,-0.218251 -0.0447,-1.650352 -0.35992,-1.553362 -0.1939,0.07295 -0.60793,0.1448 -1.14132,0.241526 1.57605,-1.600329 0.99431,-3.927915 0.80033,-4.049151 -0.21826,-0.145488 -2.5483,0.121904 -3.54244,1.600693 -0.82442,-1.163862 -2.37341,-1.456166 -2.54317,-1.35917 -0.16947,0.121468 -1.1675,2.860827 1.1603,4.46118 -3.95236,0.581947 -7.91155,0.889586 -11.83966,0.719862 -3.05522,-0.121536 -2.78832,-9.34e-4 -2.83678,-0.122888 8.00171,-1.50335 13.23771,-6.449321 14.81377,-14.572292 2.73998,1.430619 7.25177,3.153718 8.41566,0.341001 1.16387,-2.861105 -3.63964,-5.068956 -7.97997,-8.027182 -0.0971,-1.479092 -0.28742,-2.908574 -0.55413,-4.290695 0.70319,-1.721582 0.63029,-3.566318 1.01822,-5.578863 1.96409,0.266751 2.68826,-1.089036 2.761,-2.713634 -0.0485,-0.848577 -0.24043,-1.745736 -0.28891,-1.818479 -0.12128,-0.193971 -1.1624,-0.21613 -1.47763,-0.288875 -0.63041,-3.297678 -4.80216,-3.807838 -9.04552,-4.001815 -2.78848,-3.0309573 -6.54782,-5.5313183 -11.276077,-5.9435243 1.33361,-1.285121 0.70372,-2.958214 0.58247,-3.030946 -0.14548,-0.09706 -1.67589,0.221842 -2.30636,1.264468 -0.58192,-2.230776 -2.88434,-2.8148093 -3.07829,-2.7420843 z m 14.259697,2.4579243 c -1.42532,-0.151155 -2.77979,0.198517 -2.88891,1.326051 -0.0971,2.909712 3.25258,-0.0964 6.52604,0.776675 0.84868,-0.654697 -2.10938,-1.746422 -2.2306,-1.794902 -0.4486,-0.151536 -0.93144,-0.257422 -1.40653,-0.307824 z m -22.462287,0.0032 c -0.52209,0.05613 -1.05289,0.171228 -1.54385,0.340955 -0.12143,0.04849 -3.36988,1.237955 -2.44843,1.965393 3.61285,-0.945675 7.27181,2.352967 7.17483,-0.84772 -0.1276,-1.236615 -1.6163,-1.626849 -3.18255,-1.458624 z m 1.42075,10.9351203 c 3.29278,0.08382 5.83633,0.88272 5.76361,4.541706 0.0239,2.041652 -0.74922,6.463483 -1.7191,7.51583 -1.50337,1.648928 -8.97561,1.310095 -10.13955,0.781481 -2.01255,-0.916534 -4.04727,-8.891256 -2.71364,-11.22873 0.77593,-1.328767 2.78661,-1.420455 5.3326,-1.534417 1.19421,-0.05155 2.37852,-0.103697 3.47608,-0.07575 z m 18.896167,0.0095 c 1.08129,-0.0279 2.2467,0.02424 3.42878,0.07575 2.54602,0.113965 4.67982,0.205651 5.45572,1.534423 1.43062,2.492631 -1.01765,10.391939 -2.86047,11.238178 -1.13966,0.504413 -8.60772,0.846117 -10.11108,-0.800305 -0.96994,-1.052345 -1.626107,-5.474283 -1.553357,-7.511096 -0.091,-3.657141 2.396497,-4.453301 5.640407,-4.536947 z m -19.009757,3.566195 c -1.34332,0 -2.43903,1.100844 -2.43903,2.424761 0,1.353034 1.09571,2.424767 2.43903,2.424767 1.3142,0 2.41051,-1.071733 2.41051,-2.424767 0,-1.321429 -1.09631,-2.424707 -2.41051,-2.424707 z m 19.369707,0 c -1.31423,0 -2.4106,1.100844 -2.4106,2.424761 0,1.353034 1.09637,2.424767 2.4106,2.424767 1.34331,0 2.43894,-1.071733 2.43894,-2.424767 0,-1.321429 -1.09563,-2.424707 -2.43894,-2.424707 z M 31.606546,20.89983 c 0.23278,-0.05089 0.99858,-0.05089 1.23136,0 1.04503,0.334606 1.22699,2.518791 1.71436,4.063392 -1.48392,0.358865 -1.71483,1.775943 -2.20215,1.775943 -0.48743,0 -0.93061,-1.207626 -2.64739,-1.207626 0.69592,-1.879187 0.78845,-4.272831 1.90382,-4.631686 z" />
      <text
         id="text20"
         y="20.918587"
         x="66.294479"
         style="font-style:normal;font-variant:normal;font-weight:bold;font-stretch:normal;font-size:26.13544464px;line-height:1.25;font-family:FreeMono;-inkscape-font-specification:'FreeMono, Bold';font-variant-ligatures:normal;font-variant-caps:normal;font-variant-numeric:normal;font-feature-settings:normal;text-align:start;letter-spacing:0px;word-spacing:-0.6370514px;writing-mode:lr-tb;text-anchor:start;fill:#000000;fill-opacity:1;stroke:none;stroke-width:1.22509897"
         xml:space="preserve"><tspan
           style="word-spacing:-11.16999912px;fill:#2d2d2d;stroke-width:1.22509897"
           y="20.918587"
           x="66.294479"
           id="tspan22"
           sodipodi:role="line">VOTRE <tspan
   id="tspan26"
   style="fill:#ff6600">CONSEILLER</tspan></tspan><tspan
           style="word-spacing:-11.16999912px;fill:#2d2d2d;stroke-width:1.22509897"
           y="53.587891"
           x="66.294479"
           id="tspan24"
           sodipodi:role="line"><tspan
   id="tspan28"
   style="fill:#ff6600">NUMERIQUE</tspan>.COM</tspan></text>
    </g>
  </g>
</svg>
