<?xml version="1.0" encoding="UTF-8" standalone="no"?>
<!-- Created with Inkscape (http://www.inkscape.org/) -->

<svg
   xmlns:dc="http://purl.org/dc/elements/1.1/"
   xmlns:cc="http://creativecommons.org/ns#"
   xmlns:rdf="http://www.w3.org/1999/02/22-rdf-syntax-ns#"
   xmlns:svg="http://www.w3.org/2000/svg"
   xmlns="http://www.w3.org/2000/svg"
   xmlns:sodipodi="http://sodipodi.sourceforge.net/DTD/sodipodi-0.dtd"
   xmlns:inkscape="http://www.inkscape.org/namespaces/inkscape"
   width="80.144577mm"
   height="15.399808mm"
   viewBox="0 0 80.144577 15.399808"
   version="1.1"
   id="svg97"
   inkscape:version="0.92.5 (2060ec1f9f, 2020-04-08)"
   sodipodi:docname="dessin2.svg">
  <defs
     id="defs91" />
  <sodipodi:namedview
     id="base"
     pagecolor="#ffffff"
     bordercolor="#666666"
     borderopacity="1.0"
     inkscape:pageopacity="0.0"
     inkscape:pageshadow="2"
     inkscape:zoom="1.979899"
     inkscape:cx="85.794657"
     inkscape:cy="-29.229081"
     inkscape:document-units="mm"
     inkscape:current-layer="layer1"
     showgrid="false"
     fit-margin-top="0"
     fit-margin-left="0"
     fit-margin-right="0"
     fit-margin-bottom="0"
     inkscape:window-width="1564"
     inkscape:window-height="872"
     inkscape:window-x="36"
     inkscape:window-y="0"
     inkscape:window-maximized="1" />
  <metadata
     id="metadata94">
    <rdf:RDF>
      <cc:Work
         rdf:about="">
        <dc:format>image/svg+xml</dc:format>
        <dc:type
           rdf:resource="http://purl.org/dc/dcmitype/StillImage" />
        <dc:title></dc:title>
      </cc:Work>
    </rdf:RDF>
  </metadata>
  <g
     inkscape:label="Calque 1"
     inkscape:groupmode="layer"
     id="layer1"
     transform="translate(68.798478,-153.22867)">
    <path
       d="m -61.882297,153.23027 c -0.03216,0.0192 -0.397068,0.65499 0.07768,1.25805 -1.10989,0.21171 -1.898944,0.81998 -2.514833,1.49362 -1.251029,0.0449 -2.63077,0.091 -2.81682,1.07259 -0.0834,0.0192 -0.359971,0.025 -0.398465,0.0827 -0.0064,0.0128 -0.06375,0.25036 -0.07017,0.4749 0.01283,0.43626 0.205698,0.79497 0.731772,0.71799 0.141144,0.75062 0.05087,1.27023 0.499962,1.87329 -0.0385,0.20529 -0.06345,0.41119 -0.0827,0.61648 -1.475576,0.71213 -2.617894,1.17454 -2.284283,2.11763 0.333605,0.80836 1.54559,0.53184 2.321867,0.13408 0.352856,1.96315 1.674812,3.18897 3.567382,3.67013 -1.103469,-0.0449 -1.847675,-0.0451 -1.924661,-0.0451 -0.647962,0 -0.647962,0.97486 0,0.97486 0.07059,0 0.744011,-0.102 1.879555,-0.13408 l -0.0313,0.38468 c -0.05775,0.47477 0.583504,0.68642 0.814469,0.26941 0,0.57098 0.859129,0.58993 0.878374,0.0124 l 0.02003,-0.16039 c 0.0385,0.70572 0.904034,0.58432 0.878372,0.0325 0.128315,0.55815 0.975058,0.36518 0.859578,-0.19297 l -0.0313,-0.35961 c 0.987994,-0.0321 2.337364,-0.01 3.761605,-0.33706 0.76345,-0.17963 1.01962,-0.26258 1.462291,-0.33957 0.455504,-0.0577 -0.01183,-0.43666 -0.09523,-0.411 -0.0513,0.0193 -0.160848,0.0383 -0.301974,0.0639 0.416997,-0.42342 0.263078,-1.03927 0.211754,-1.07134 -0.05775,-0.0385 -0.674238,0.0323 -0.93727,0.42351 -0.218128,-0.30793 -0.627965,-0.38527 -0.672881,-0.35961 -0.04484,0.0321 -0.308901,0.75693 0.306996,1.18035 -1.045728,0.15398 -2.093264,0.23537 -3.132576,0.19047 -0.808361,-0.0322 -0.737743,-2.5e-4 -0.750565,-0.0325 2.117119,-0.39776 3.502477,-1.70638 3.919476,-3.85558 0.724953,0.37852 1.918698,0.83442 2.226644,0.0902 0.30794,-0.757 -0.962988,-1.34116 -2.111367,-2.12386 -0.02569,-0.39134 -0.07605,-0.76956 -0.146614,-1.13524 0.186053,-0.45551 0.166764,-0.94359 0.269404,-1.47608 0.519666,0.0706 0.711269,-0.28814 0.730515,-0.71798 -0.01283,-0.22452 -0.06361,-0.46189 -0.07644,-0.48114 -0.03209,-0.0513 -0.307552,-0.0572 -0.390956,-0.0764 -0.166796,-0.87251 -1.270572,-1.00749 -2.393294,-1.05881 -0.737785,-0.80194 -1.732444,-1.4635 -2.983462,-1.57256 0.352851,-0.34002 0.186193,-0.7827 0.154112,-0.80194 -0.03849,-0.0257 -0.443413,0.0587 -0.610225,0.33456 -0.153966,-0.59023 -0.763148,-0.74475 -0.814464,-0.72551 z m 3.772878,0.65033 c -0.377116,-0.04 -0.735486,0.0525 -0.764358,0.35085 -0.02569,0.76986 0.860579,-0.0255 1.726682,0.2055 0.224546,-0.17323 -0.558107,-0.46208 -0.59018,-0.4749 -0.118692,-0.0401 -0.246443,-0.0681 -0.372144,-0.0815 z m -5.943147,8.5e-4 c -0.138136,0.0148 -0.278577,0.0453 -0.408477,0.0902 -0.03213,0.0128 -0.891614,0.32754 -0.647814,0.52001 0.9559,-0.25021 1.924,0.62255 1.898341,-0.22429 -0.03376,-0.32719 -0.427646,-0.43044 -0.84205,-0.38593 z m 0.375907,2.89325 c 0.871215,0.0222 1.544196,0.23355 1.524955,1.20166 0.0063,0.54018 -0.198231,1.71013 -0.454845,1.98856 -0.397767,0.43628 -2.374797,0.34663 -2.682756,0.20677 -0.532487,-0.2425 -1.07084,-2.35248 -0.717984,-2.97094 0.205298,-0.35157 0.737291,-0.37583 1.410917,-0.40598 0.315968,-0.0136 0.629317,-0.0274 0.919713,-0.02 z m 4.999611,0.003 c 0.286091,-0.007 0.594439,0.006 0.907198,0.02 0.673634,0.0302 1.238202,0.0544 1.443492,0.40599 0.378519,0.6595 -0.269253,2.74953 -0.756832,2.97343 -0.301535,0.13346 -2.27746,0.22387 -2.675224,-0.21175 -0.256629,-0.27843 -0.43024,-1.4484 -0.410992,-1.98731 -0.02408,-0.96762 0.634073,-1.17827 1.492358,-1.2004 z m -5.029665,0.94356 c -0.35542,0 -0.645327,0.29126 -0.645327,0.64155 0,0.35799 0.289907,0.64155 0.645327,0.64155 0.347715,0 0.637781,-0.28356 0.637781,-0.64155 0,-0.34963 -0.290066,-0.64154 -0.637781,-0.64154 z m 5.124902,0 c -0.347724,0 -0.637805,0.29126 -0.637805,0.64155 0,0.35799 0.290081,0.64155 0.637805,0.64155 0.355417,0 0.645302,-0.28356 0.645302,-0.64155 0,-0.34963 -0.289885,-0.64154 -0.645302,-0.64154 z m -2.700295,1.0212 c 0.06159,-0.0135 0.264208,-0.0135 0.325798,0 0.276497,0.0885 0.324641,0.66643 0.453591,1.0751 -0.392621,0.095 -0.453716,0.46989 -0.582653,0.46989 -0.128965,0 -0.246223,-0.31952 -0.700455,-0.31952 0.184129,-0.4972 0.208611,-1.13052 0.503719,-1.22547 z"
       id="path2"
       inkscape:connector-curvature="0"
       style="fill:#2d2d2d;stroke-width:0.64155412" />
    <text
       xml:space="preserve"
       style="font-style:normal;font-variant:normal;font-weight:bold;font-stretch:normal;font-size:6.91500282px;line-height:1.25;font-family:FreeMono;-inkscape-font-specification:'FreeMono, Bold';font-variant-ligatures:normal;font-variant-caps:normal;font-variant-numeric:normal;font-feature-settings:normal;text-align:start;letter-spacing:0px;word-spacing:-0.16855319px;writing-mode:lr-tb;text-anchor:start;fill:#000000;fill-opacity:1;stroke:none;stroke-width:0.32414076"
       x="-52.104256"
       y="158.74693"
       id="text20"><tspan
         sodipodi:role="line"
         id="tspan22"
         x="-52.104256"
         y="158.74693"
         style="word-spacing:-2.95539546px;fill:#2d2d2d;stroke-width:0.32414076"><tspan
   style="letter-spacing:-0.62706253px"
   id="tspan20">VOTRE</tspan> <tspan
   style="fill:#ff9900;stroke-width:0.32414076;letter-spacing:-0.30162498px"
   id="tspan26">CONSEILLER</tspan></tspan><tspan
         sodipodi:role="line"
         id="tspan24"
         x="-52.104256"
         y="167.39069"
         style="word-spacing:-2.95539546px;fill:#2d2d2d;stroke-width:0.32414076"><tspan
   style="fill:#ff9900;stroke-width:0.32414076;letter-spacing:0.4048125px"
   id="tspan28">NUMERIQUE</tspan>.COM</tspan></text>
  </g>
</svg>
