<?xml version="1.0" encoding="UTF-8" standalone="no"?>
<svg
   xmlns:dc="http://purl.org/dc/elements/1.1/"
   xmlns:cc="http://creativecommons.org/ns#"
   xmlns:rdf="http://www.w3.org/1999/02/22-rdf-syntax-ns#"
   xmlns:svg="http://www.w3.org/2000/svg"
   xmlns="http://www.w3.org/2000/svg"
   xmlns:sodipodi="http://sodipodi.sourceforge.net/DTD/sodipodi-0.dtd"
   xmlns:inkscape="http://www.inkscape.org/namespaces/inkscape"
   width="32px"
   height="32px"
   viewBox="0 0 32 32"
   version="1.1"
   id="svg4"
   sodipodi:docname="earlybirds-svgrepo-com-1.svg"
   inkscape:version="0.92.5 (2060ec1f9f, 2020-04-08)">
  <metadata
     id="metadata10">
    <rdf:RDF>
      <cc:Work
         rdf:about="">
        <dc:format>image/svg+xml</dc:format>
        <dc:type
           rdf:resource="http://purl.org/dc/dcmitype/StillImage" />
        <dc:title></dc:title>
      </cc:Work>
    </rdf:RDF>
  </metadata>
  <defs
     id="defs8" />
  <sodipodi:namedview
     pagecolor="#ffffff"
     bordercolor="#666666"
     borderopacity="1"
     objecttolerance="10"
     gridtolerance="10"
     guidetolerance="10"
     inkscape:pageopacity="0"
     inkscape:pageshadow="2"
     inkscape:window-width="1564"
     inkscape:window-height="872"
     id="namedview6"
     showgrid="false"
     inkscape:zoom="5.2149125"
     inkscape:cx="26.365608"
     inkscape:cy="8.1391349"
     inkscape:window-x="36"
     inkscape:window-y="0"
     inkscape:window-maximized="1"
     inkscape:current-layer="svg4" />
  <path
     d="m -30.265432,-18.264284 c -0.121562,0.07268 -1.500731,2.475551 0.29358,4.754829 -4.194856,0.80016 -7.177112,3.099137 -9.504879,5.6451569 -4.728303,0.169737 -9.943072,0.344014 -10.64625,4.0539074 -0.315219,0.07268 -1.360517,0.09432 -1.506007,0.312568 -0.02426,0.04848 -0.240961,0.946218 -0.265205,1.794887 0.04849,1.64884105 0.777439,3.004624 2.765755,2.713668 0.533456,2.8369652 0.192256,4.8008568 1.889621,7.08014 -0.1455,0.7759098 -0.239825,1.5541022 -0.312566,2.3300137 -5.57698,2.691499 -9.894396,4.439205 -8.633512,8.003612 1.260876,3.055228 5.841608,2.010132 8.77557,0.506774 1.333622,7.419779 6.329993,12.052789 13.48301,13.871352 -4.170581,-0.169623 -6.983334,-0.170397 -7.2743,-0.170397 -2.448991,0 -2.448991,3.684512 0,3.684512 0.266782,0 2.812005,-0.385508 7.103828,-0.506773 l -0.118301,1.453918 c -0.21826,1.794384 2.205368,2.594326 3.078303,1.018216 0,2.158051 3.247101,2.229658 3.319844,0.04689 l 0.07571,-0.606187 c 0.145498,2.667257 3.416817,2.208434 3.319833,0.122816 0.484961,2.109539 3.68526,1.380221 3.248797,-0.729318 l -0.118296,-1.359156 c 3.734159,-0.121465 8.834138,-0.03722 14.2170927,-1.273938 2.885483,-0.678937 3.85368,-0.992443 5.526768,-1.283438 1.72159299,-0.218251 -0.04472,-1.650352 -0.35992,-1.553362 -0.1939,0.07295 -0.607921,0.1448 -1.141313,0.241526 1.576046,-1.600329 0.994308,-3.927915 0.800331,-4.049151 -0.21826,-0.145488 -2.5483,0.121904 -3.542445,1.600693 -0.824418,-1.163862 -2.373413,-1.456166 -2.543165,-1.35917 -0.169474,0.121468 -1.167505,2.860827 1.160301,4.46118 -3.9523687,0.581947 -7.9115577,0.889586 -11.8396687,0.719862 -3.055216,-0.121536 -2.788317,-9.34e-4 -2.83678,-0.122888 8.001712,-1.50335 13.2377117,-6.449321 14.8137707,-14.572292 2.739984,1.430619 7.25176999,3.153718 8.41566,0.341001 1.163869,-2.861105 -3.639633,-5.068956 -7.979965,-8.027182 -0.09708,-1.4790924 -0.287417,-2.9085735 -0.554127,-4.2906954 0.703183,-1.7215813 0.630286,-3.5663171 1.018214,-5.5788623 1.964093,0.266751 2.68826,-1.08903595 2.761005,-2.713634 -0.04848,-0.848577 -0.240434,-1.745736 -0.288909,-1.818479 -0.121282,-0.193971 -1.162409,-0.21613 -1.477636,-0.288875 -0.630407,-3.2976784 -4.80216,-3.8078384 -9.0455147,-4.0018154 -2.788481,-3.0309569 -6.547829,-5.5313169 -11.276086,-5.9435229 1.333613,-1.285122 0.703725,-2.958215 0.582473,-3.030947 -0.145479,-0.09706 -1.675894,0.221842 -2.306358,1.264468 -0.581923,-2.230776 -2.884348,-2.814809 -3.078292,-2.742084 z m 14.259695,2.457924 c -1.425314,-0.151155 -2.779783,0.198517 -2.888909,1.326052 -0.09709,2.909712 3.252587,-0.0964 6.526042,0.776675 0.848677,-0.654697 -2.109377,-1.746423 -2.230599,-1.794903 -0.448598,-0.151536 -0.931441,-0.257422 -1.406534,-0.307824 z m -22.462287,0.0032 c -0.522087,0.05613 -1.052882,0.171228 -1.543846,0.340955 -0.12143,0.04849 -3.369878,1.237956 -2.448426,1.965394 3.612851,-0.945675 7.271811,2.352966 7.174822,-0.84772 -0.127591,-1.236616 -1.616295,-1.62685 -3.18255,-1.458625 z m 1.420759,10.9351203 c 3.292775,0.08382 5.836326,0.88272 5.763604,4.54170605 0.02392,2.04165195 -0.749225,6.46348235 -1.719103,7.51583005 -1.503365,1.6489276 -8.975607,1.310095 -10.139541,0.7814809 -2.012558,-0.9165345 -4.04727,-8.89125595 -2.713645,-11.22873 0.775929,-1.328767 2.786614,-1.420455 5.3326,-1.534417 1.194208,-0.05155 2.378521,-0.103697 3.476085,-0.07575 z m 18.896166,0.0095 c 1.081289,-0.0279 2.246699,0.02424 3.428779,0.07575 2.546013,0.113965 4.679817,0.205651 5.4557187,1.534423 1.430618,2.49263105 -1.0176517,10.3919387 -2.8604737,11.2381775 -1.139658,0.5044129 -8.607718,0.8461172 -10.111081,-0.8003044 -0.969941,-1.0523456 -1.626107,-5.4742831 -1.553361,-7.51109605 -0.09104,-3.65714105 2.396509,-4.45330105 5.640418,-4.53694705 z m -19.009759,3.566195 c -1.343318,0 -2.439034,1.10084405 -2.439034,2.424761 0,1.3530342 1.095716,2.4247669 2.439034,2.4247669 1.314201,0 2.410506,-1.0717327 2.410506,-2.4247669 0,-1.32142895 -1.096305,-2.424707 -2.410506,-2.424707 z m 19.369701,0 c -1.314229,0 -2.410597,1.10084405 -2.410597,2.424761 0,1.3530342 1.096368,2.4247669 2.410597,2.4247669 1.343315,0 2.438949,-1.0717327 2.438949,-2.4247669 0,-1.32142895 -1.095634,-2.424707 -2.438949,-2.424707 z m -10.205837,3.8596515 c 0.232786,-0.050892 0.998583,-0.050892 1.231366,0 1.045027,0.3346069 1.226987,2.5187912 1.714353,4.0633925 -1.483919,0.3588644 -1.714826,1.7759432 -2.202145,1.7759432 -0.48743,0 -0.930615,-1.2076268 -2.647397,-1.2076268 0.69592,-1.8791866 0.788453,-4.2728302 1.903823,-4.6316853 z"
     id="path2"
     inkscape:connector-curvature="0"
     style="stroke-width:2.42477155;fill:#2d2d2d" />
  <text
     xml:space="preserve"
     style="font-style:normal;font-weight:normal;font-size:40px;line-height:1.25;font-family:sans-serif;letter-spacing:0px;word-spacing:-0.51999998px;fill:#000000;fill-opacity:1;stroke:none"
     x="12.08074"
     y="-0.79057884"
     id="text14"><tspan
       sodipodi:role="line"
       id="tspan12"
       x="12.08074"
       y="34.600044" /></text>
</svg>
