<?xml version="1.0" encoding="UTF-8" standalone="no"?>
<!-- Generator: Adobe Illustrator 19.0.0, SVG Export Plug-In . SVG Version: 6.00 Build 0)  -->

<svg
   xmlns:dc="http://purl.org/dc/elements/1.1/"
   xmlns:cc="http://creativecommons.org/ns#"
   xmlns:rdf="http://www.w3.org/1999/02/22-rdf-syntax-ns#"
   xmlns:svg="http://www.w3.org/2000/svg"
   xmlns="http://www.w3.org/2000/svg"
   xmlns:sodipodi="http://sodipodi.sourceforge.net/DTD/sodipodi-0.dtd"
   xmlns:inkscape="http://www.inkscape.org/namespaces/inkscape"
   version="1.1"
   id="Layer_1"
   x="0px"
   y="0px"
   viewBox="0 0 512 512"
   style="enable-background:new 0 0 512 512;"
   xml:space="preserve"
   sodipodi:docname="engineer-svgrepo-com.svg"
   inkscape:version="0.92.5 (2060ec1f9f, 2020-04-08)"><metadata
   id="metadata73"><rdf:RDF><cc:Work
       rdf:about=""><dc:format>image/svg+xml</dc:format><dc:type
         rdf:resource="http://purl.org/dc/dcmitype/StillImage" /><dc:title /></cc:Work></rdf:RDF></metadata><defs
   id="defs71" /><sodipodi:namedview
   pagecolor="#ffffff"
   bordercolor="#666666"
   borderopacity="1"
   objecttolerance="10"
   gridtolerance="10"
   guidetolerance="10"
   inkscape:pageopacity="0"
   inkscape:pageshadow="2"
   inkscape:window-width="1564"
   inkscape:window-height="872"
   id="namedview69"
   showgrid="false"
   inkscape:zoom="0.4609375"
   inkscape:cx="-318.91525"
   inkscape:cy="256"
   inkscape:window-x="36"
   inkscape:window-y="0"
   inkscape:window-maximized="1"
   inkscape:current-layer="Layer_1" />




















<g
   id="g127"
   transform="matrix(0.98060558,0,0,0.97656059,4.9649597,6.0004986)"
   style="fill:#cccccc"><g
     style="fill:#cccccc"
     id="g6">
	<g
   style="fill:#cccccc"
   id="g4">
		<path
   style="fill:#cccccc"
   id="path2"
   d="m 335.004,211.97 c -2.745,-3.403 -7.73,-3.938 -11.133,-1.193 -5.126,4.133 -10.783,4.579 -12.976,4.579 -6.584,0 -11.269,-3.204 -12.977,-4.581 -3.405,-2.744 -8.388,-2.207 -11.133,1.195 -2.744,3.405 -2.208,8.389 1.195,11.133 3.747,3.02 11.706,8.088 22.915,8.088 4.813,0 14.188,-1.051 22.917,-8.089 3.403,-2.744 3.937,-7.728 1.192,-11.132 z"
   inkscape:connector-curvature="0" />
	</g>
</g><g
     style="fill:#cccccc"
     id="g12">
	<g
   style="fill:#cccccc"
   id="g10">
		<path
   style="fill:#cccccc"
   id="path8"
   d="m 359.456,175.241 h -5.278 c -4.373,0 -7.917,3.545 -7.917,7.917 0,4.373 3.545,7.918 7.917,7.918 h 5.278 c 4.373,0 7.918,-3.545 7.918,-7.918 -0.001,-4.372 -3.546,-7.917 -7.918,-7.917 z"
   inkscape:connector-curvature="0" />
	</g>
</g><g
     style="fill:#cccccc"
     id="g18">
	<g
   style="fill:#cccccc"
   id="g16">
		<path
   style="fill:#cccccc"
   id="path14"
   d="m 267.612,175.241 h -5.278 c -4.373,0 -7.918,3.545 -7.918,7.917 0,4.373 3.545,7.918 7.918,7.918 h 5.278 c 4.373,0 7.918,-3.545 7.918,-7.918 0,-4.372 -3.545,-7.917 -7.918,-7.917 z"
   inkscape:connector-curvature="0" />
	</g>
</g><g
     style="fill:#cccccc"
     id="g24">
	<g
   style="fill:#cccccc"
   id="g22">
		<path
   style="fill:#cccccc"
   id="path20"
   d="m 491.942,338.293 v -81.237 c 0,-17.172 -13.971,-31.142 -31.142,-31.142 h -46.449 c -4.887,0 -8.689,4.588 -7.779,9.392 l 6.227,32.834 h -67.015 c 11.642,-3.62 22.7,-9.077 32.671,-16.092 9.867,-6.943 18.661,-15.395 25.99,-24.979 4.719,-6.173 8.834,-12.819 12.25,-19.802 3.856,1.837 8.066,2.812 12.436,2.812 16.008,0 29.031,-13.023 29.031,-29.031 0,-16.008 -13.023,-29.032 -29.031,-29.032 -0.197,0 -0.395,0.011 -0.592,0.015 -0.011,-0.357 -0.024,-0.714 -0.038,-1.07 h 13.298 c 4.373,0 7.917,-3.545 7.917,-7.918 V 121.93 c 0,-4.373 -3.545,-7.918 -7.917,-7.918 H 426.785 C 418.777,68.736 384.41,31.811 339.927,20.505 V 7.918 C 339.927,3.545 336.382,0 332.009,0 h -42.227 c -4.373,0 -7.917,3.545 -7.917,7.918 v 12.588 c -44.484,11.306 -78.85,48.232 -86.858,93.507 h -15.014 c -4.373,0 -7.918,3.545 -7.918,7.918 v 21.113 c 0,4.373 3.545,7.918 7.918,7.918 h 13.298 c -0.014,0.357 -0.027,0.714 -0.038,1.07 -0.197,-0.004 -0.395,-0.015 -0.592,-0.015 -16.008,0 -29.031,13.023 -29.031,29.031 0,16.008 13.023,29.031 29.031,29.031 4.369,0 8.579,-0.975 12.436,-2.812 5.741,11.734 13.438,22.478 22.681,31.706 8.557,8.541 18.418,15.768 29.154,21.33 6.111,3.167 12.502,5.795 19.075,7.838 h -60.121 c -16.44,0 -31.107,10.244 -36.934,25.336 H 45.922 c -13.098,0 -23.753,10.655 -23.753,23.753 v 85.509 c 0,4.373 3.545,7.918 7.918,7.918 4.373,0 7.918,-3.545 7.918,-7.918 v -64.22 H 237.527 V 462.384 H 38.004 v -17.419 c 0,-4.373 -3.545,-7.918 -7.918,-7.918 -4.373,0 -7.918,3.545 -7.918,7.918 v 17.419 H 8.973 c -4.373,0 -7.918,3.545 -7.918,7.917 v 17.946 C 1.056,501.345 11.711,512 24.808,512 h 225.913 c 0.235,0 0.469,-0.011 0.702,-0.018 0.118,0.005 0.234,0.018 0.354,0.018 h 105.567 c 4.373,0 7.917,-3.545 7.917,-7.917 0,-4.373 -3.545,-7.918 -7.917,-7.918 h -84.232 c 0.879,-2.478 1.362,-5.142 1.362,-7.918 v -17.946 c 0,-4.373 -3.545,-7.917 -7.918,-7.917 H 253.36 V 317.229 c 0,-13.098 -10.655,-23.753 -23.753,-23.753 h -32.703 c 4.397,-5.831 11.365,-9.501 18.979,-9.501 h 57.223 l 10.783,41.334 -10.445,125.332 c -0.221,2.653 0.906,5.239 2.998,6.884 l 29.559,23.225 c 2.838,2.23 6.945,2.23 9.784,0 l 29.559,-23.225 c 2.092,-1.645 3.22,-4.231 2.998,-6.884 l -10.445,-125.332 10.785,-41.334 h 67.12 l 10.364,54.646 c -10.134,2.71 -17.621,11.968 -17.621,22.946 v 59.118 c 0,12.205 9.254,22.285 21.113,23.603 v 51.878 h -30.087 c -4.373,0 -7.918,3.545 -7.918,7.918 0,4.373 3.545,7.917 7.918,7.917 h 38.004 c 4.373,0 7.918,-3.545 7.918,-7.917 v -12.945 c 4.521,2.534 9.743,3.971 15.307,3.971 15.74,0 28.759,-11.46 30.849,-26.888 0.191,-0.682 0.293,-1.401 0.293,-2.143 V 443.96 c 10.829,-2.206 19.002,-11.803 19.002,-23.274 v -59.118 c 0,-11.472 -8.173,-21.069 -19.002,-23.275 z M 258.639,478.219 v 10.029 c 0,4.366 -3.551,7.918 -7.917,7.918 H 24.808 c -4.366,0 -7.917,-3.551 -7.917,-7.918 V 478.219 Z M 229.608,309.311 c 0.546,0 1.079,0.056 1.594,0.162 3.605,0.74 6.323,3.937 6.323,7.756 v 5.455 H 38.004 v -5.455 c 0,-3.819 2.719,-7.017 6.323,-7.756 0.515,-0.106 1.048,-0.162 1.594,-0.162 z M 407.489,188.095 v -31.912 c 1.751,-0.68 3.5,-1.373 5.24,-2.09 0.008,0.539 0.038,1.08 0.038,1.618 0,11.316 -1.857,22.206 -5.278,32.384 z m 21.64,-20.243 c 7.278,0 13.197,5.919 13.197,13.196 0,7.277 -5.919,13.196 -13.196,13.196 -2.29,0 -4.484,-0.584 -6.442,-1.685 2.605,-7.885 4.403,-16.133 5.284,-24.65 0.384,-0.033 0.769,-0.057 1.157,-0.057 z M 339.926,36.925 c 35.706,10.623 63.209,40.491 70.745,77.087 h -70.745 z m -42.227,-21.09 h 26.392 v 98.177 H 297.699 Z M 192.66,194.243 c -7.277,0 -13.196,-5.919 -13.196,-13.196 0,-7.277 5.919,-13.196 13.196,-13.196 0.387,0 0.773,0.024 1.157,0.057 0.88,8.517 2.678,16.765 5.284,24.65 -1.957,1.102 -4.151,1.685 -6.441,1.685 z m 21.641,-6.148 c -3.421,-10.178 -5.278,-21.068 -5.278,-32.384 0,-0.538 0.031,-1.079 0.038,-1.618 1.741,0.718 3.488,1.411 5.24,2.091 z m -26.392,-52.969 v -5.278 h 42.755 c 4.373,0 7.918,-3.545 7.918,-7.917 0,-4.373 -3.545,-7.918 -7.918,-7.918 h -19.545 c 7.535,-36.596 35.039,-66.464 70.745,-77.087 v 77.087 h -17.419 c -4.373,0 -7.918,3.545 -7.918,7.918 0,4.373 3.545,7.917 7.918,7.917 H 433.88 v 5.278 z m 183.744,15.835 c -19.736,4.899 -40.05,7.39 -60.758,7.39 -20.707,0 -41.022,-2.49 -60.758,-7.39 z m -60.758,313.494 -21.314,-16.747 9.597,-115.172 h 23.434 l 9.597,115.172 z M 323.78,316.701 h -25.77 l -8.537,-32.726 h 42.844 z m -12.885,-59.118 c -32.852,0 -62.118,-15.637 -80.759,-39.853 v -55.95 c 25.993,8.24 53.052,12.405 80.759,12.405 27.707,0 54.766,-4.166 80.759,-12.405 v 55.951 c -18.641,24.216 -47.907,39.852 -80.759,39.852 z M 460.8,241.748 c 8.44,0 15.307,6.867 15.307,15.307 0,8.44 -6.867,15.307 -15.307,15.307 -8.44,0 -15.307,-6.867 -15.307,-15.307 0,-8.44 6.867,-15.307 15.307,-15.307 z m -15.307,42.412 c 4.525,2.565 9.746,4.038 15.307,4.038 5.561,0 10.783,-1.473 15.307,-4.038 v 53.654 h -30.614 z m -21.582,-42.412 h 9.785 c -2.565,4.525 -4.038,9.746 -4.038,15.307 v 14.995 z m 52.196,223.075 c -0.029,0.178 -0.052,0.36 -0.068,0.545 -0.715,7.928 -7.266,13.906 -15.24,13.906 -7.973,0 -14.525,-5.978 -15.24,-13.906 -0.017,-0.183 -0.039,-0.363 -0.068,-0.542 v -20.389 h 30.614 v 20.386 z m 19.002,-44.138 c 0,4.366 -3.551,7.917 -7.918,7.917 h -54.895 c -4.188,0 -7.618,-3.27 -7.891,-7.39 h 17.392 c 4.373,0 7.917,-3.545 7.917,-7.918 0,-4.373 -3.545,-7.918 -7.917,-7.918 h -17.419 v -5.278 h 17.419 c 4.373,0 7.917,-3.545 7.917,-7.918 0,-4.373 -3.545,-7.918 -7.917,-7.918 h -17.419 v -5.278 h 17.419 c 4.373,0 7.917,-3.545 7.917,-7.918 0,-4.373 -3.545,-7.918 -7.917,-7.918 h -17.419 v -1.583 c 0,-4.366 3.551,-7.918 7.918,-7.918 h 54.895 c 4.366,0 7.918,3.551 7.918,7.918 z"
   inkscape:connector-curvature="0" />
	</g>
</g><g
     style="fill:#cccccc"
     id="g30">
	<g
   style="fill:#cccccc"
   id="g28">
		<path
   style="fill:#cccccc"
   id="path26"
   d="M 198.994,432.825 H 76.008 v -72.313 c 0,-4.373 -3.545,-7.918 -7.918,-7.918 -4.373,0 -7.917,3.545 -7.917,7.918 v 80.231 c 0,4.373 3.545,7.917 7.917,7.917 h 130.903 c 4.373,0 7.918,-3.545 7.918,-7.917 0,-4.373 -3.545,-7.918 -7.917,-7.918 z"
   inkscape:connector-curvature="0" />
	</g>
</g><g
     style="fill:#cccccc"
     id="g36">
	<g
   style="fill:#cccccc"
   id="g34">
		<path
   style="fill:#cccccc"
   id="path32"
   d="m 195.874,365.208 c -3.236,-2.941 -8.244,-2.703 -11.185,0.533 l -17.079,18.787 -15.748,-7.874 c -2.909,-1.456 -6.417,-0.982 -8.837,1.196 l -15,13.5 -15.848,-19.018 c -3.704,-4.444 -11.02,-3.397 -13.336,1.895 l -14.779,33.781 c -2.245,5.135 1.625,11.095 7.249,11.095 3.05,0 5.957,-1.773 7.258,-4.746 l 9.645,-22.044 12.912,15.494 c 2.831,3.398 8.087,3.778 11.379,0.816 l 17.103,-15.393 16.287,8.143 c 3.172,1.586 7.014,0.869 9.4,-1.756 l 21.113,-23.225 c 2.941,-3.235 2.702,-8.242 -0.534,-11.184 z"
   inkscape:connector-curvature="0" />
	</g>
</g><g
     style="fill:#cccccc"
     id="g38">
</g><g
     style="fill:#cccccc"
     id="g40">
</g><g
     style="fill:#cccccc"
     id="g42">
</g><g
     style="fill:#cccccc"
     id="g44">
</g><g
     style="fill:#cccccc"
     id="g46">
</g><g
     style="fill:#cccccc"
     id="g48">
</g><g
     style="fill:#cccccc"
     id="g50">
</g><g
     style="fill:#cccccc"
     id="g52">
</g><g
     style="fill:#cccccc"
     id="g54">
</g><g
     style="fill:#cccccc"
     id="g56">
</g><g
     style="fill:#cccccc"
     id="g58">
</g><g
     style="fill:#cccccc"
     id="g60">
</g><g
     style="fill:#cccccc"
     id="g62">
</g><g
     style="fill:#cccccc"
     id="g64">
</g><g
     style="fill:#cccccc"
     id="g66">
</g></g>
</svg>