<?xml version="1.0" encoding="UTF-8" standalone="no"?>
<svg
   xmlns:dc="http://purl.org/dc/elements/1.1/"
   xmlns:cc="http://creativecommons.org/ns#"
   xmlns:rdf="http://www.w3.org/1999/02/22-rdf-syntax-ns#"
   xmlns:svg="http://www.w3.org/2000/svg"
   xmlns="http://www.w3.org/2000/svg"
   xmlns:sodipodi="http://sodipodi.sourceforge.net/DTD/sodipodi-0.dtd"
   xmlns:inkscape="http://www.inkscape.org/namespaces/inkscape"
   width="32px"
   height="32px"
   viewBox="0 0 32 32"
   version="1.1"
   id="svg4"
   sodipodi:docname="earlybirds-svgrepo-com-1.svg"
   inkscape:version="0.92.5 (2060ec1f9f, 2020-04-08)">
  <metadata
     id="metadata10">
    <rdf:RDF>
      <cc:Work
         rdf:about="">
        <dc:format>image/svg+xml</dc:format>
        <dc:type
           rdf:resource="http://purl.org/dc/dcmitype/StillImage" />
        <dc:title />
      </cc:Work>
    </rdf:RDF>
  </metadata>
  <defs
     id="defs8" />
  <sodipodi:namedview
     pagecolor="#ffffff"
     bordercolor="#666666"
     borderopacity="1"
     objecttolerance="10"
     gridtolerance="10"
     guidetolerance="10"
     inkscape:pageopacity="0"
     inkscape:pageshadow="2"
     inkscape:window-width="1564"
     inkscape:window-height="872"
     id="namedview6"
     showgrid="false"
     inkscape:zoom="5.2149125"
     inkscape:cx="23.009847"
     inkscape:cy="8.1391349"
     inkscape:window-x="36"
     inkscape:window-y="0"
     inkscape:window-maximized="1"
     inkscape:current-layer="svg4" />
  <path
     d="m 15.372917,-34.371937 c -0.12156,0.07268 -1.50073,2.475551 0.29358,4.754828 -4.194856,0.80016 -7.1771117,3.099138 -9.5048787,5.645158 -4.728303,0.169737 -9.943072,0.344014 -10.64625,4.053907 -0.315219,0.07268 -1.360516,0.09432 -1.506006,0.312568 -0.02426,0.04848 -0.240961,0.946218 -0.265205,1.794887 0.04849,1.648841 0.777438,3.004624 2.765754,2.713668 0.533456,2.836965 0.192256,4.800857 1.889621,7.0801404 -0.1455,0.775911 -0.239825,1.554103 -0.312566,2.330014 -5.576979,2.691499 -9.8943953,4.439205 -8.6335113,8.003612 1.2608763,3.055228 5.8416073,2.010132 8.7755693,0.506774 1.333622,7.4197786 6.329993,12.0527886 13.4830127,13.8713516 -4.1705837,-0.169623 -6.9833367,-0.170397 -7.2743027,-0.170397 -2.448991,0 -2.448991,3.684512 0,3.684512 0.266782,0 2.812005,-0.385508 7.1038277,-0.506773 l -0.118301,1.453918 c -0.21826,1.794384 2.205366,2.594326 3.078306,1.018216 0,2.158051 3.2471,2.229658 3.31984,0.04689 l 0.0757,-0.606187 c 0.1455,2.667257 3.41682,2.208434 3.31983,0.122816 0.48497,2.109539 3.68526,1.380221 3.2488,-0.729318 l -0.11829,-1.359156 c 3.73415,-0.121465 8.83413,-0.03722 14.21709,-1.273938 2.88548,-0.678937 3.85368,-0.992443 5.52677,-1.283438 1.72159,-0.218251 -0.0447,-1.650352 -0.35992,-1.553362 -0.1939,0.07295 -0.60793,0.1448 -1.14132,0.241526 1.57605,-1.600329 0.99431,-3.927915 0.80033,-4.049151 -0.21826,-0.145488 -2.5483,0.121904 -3.54244,1.600693 -0.82442,-1.163862 -2.37341,-1.456166 -2.54317,-1.35917 -0.16947,0.121468 -1.1675,2.860827 1.1603,4.46118 -3.95236,0.581947 -7.91155,0.889586 -11.83966,0.719862 -3.05522,-0.121536 -2.78832,-9.34e-4 -2.83678,-0.122888 8.00171,-1.50335 13.23771,-6.449321 14.81377,-14.5722916 2.73998,1.430619 7.25177,3.153718 8.41566,0.341001 1.16387,-2.86110498 -3.63964,-5.068956 -7.97997,-8.027182 -0.0971,-1.479092 -0.28742,-2.908574 -0.55413,-4.290695 0.70319,-1.7215824 0.63029,-3.5663184 1.01822,-5.5788634 1.96409,0.266751 2.68826,-1.089036 2.761,-2.713634 -0.0485,-0.848577 -0.24043,-1.745736 -0.28891,-1.818479 -0.12128,-0.193971 -1.1624,-0.21613 -1.47763,-0.288875 -0.63041,-3.297678 -4.80216,-3.807838 -9.04552,-4.001815 -2.78848,-3.030957 -6.54782,-5.531318 -11.27608,-5.943524 1.33361,-1.285121 0.70372,-2.958214 0.58247,-3.030946 -0.14548,-0.09706 -1.67589,0.221842 -2.30636,1.264468 -0.58192,-2.230776 -2.88434,-2.814809 -3.07829,-2.742084 z m 14.2597,2.457924 c -1.42532,-0.151155 -2.77979,0.198517 -2.88891,1.326051 -0.0971,2.909712 3.25258,-0.0964 6.52604,0.776675 0.84868,-0.654697 -2.10938,-1.746422 -2.2306,-1.794902 -0.4486,-0.151536 -0.93144,-0.257422 -1.40653,-0.307824 z m -22.4622917,0.0032 c -0.522087,0.05613 -1.052882,0.171228 -1.543846,0.340955 -0.12143,0.04849 -3.369878,1.237955 -2.448426,1.965393 3.612851,-0.945675 7.2718107,2.352967 7.1748217,-0.84772 -0.127591,-1.236615 -1.6162947,-1.626849 -3.1825497,-1.458624 z m 1.420759,10.93512 c 3.2927727,0.08382 5.8363227,0.88272 5.7636027,4.541706 0.0239,2.041652 -0.74922,6.4634834 -1.7191,7.5158304 -1.503367,1.648928 -8.9756087,1.310095 -10.1395427,0.781481 -2.012558,-0.916534 -4.04727,-8.8912564 -2.713645,-11.2287304 0.775929,-1.328767 2.786614,-1.420455 5.3326,-1.534417 1.194208,-0.05155 2.378521,-0.103697 3.476085,-0.07575 z m 18.8961627,0.0095 c 1.08129,-0.0279 2.2467,0.02424 3.42878,0.07575 2.54602,0.113965 4.67982,0.205651 5.45572,1.534423 1.43062,2.492631 -1.01765,10.3919394 -2.86047,11.2381784 -1.13966,0.504413 -8.60772,0.846117 -10.11108,-0.800305 -0.96994,-1.052345 -1.62611,-5.4742834 -1.55336,-7.5110964 -0.091,-3.657141 2.3965,-4.453301 5.64041,-4.536947 z m -19.0097557,3.566195 c -1.343318,0 -2.439034,1.100844 -2.439034,2.424761 0,1.353034 1.095716,2.424767 2.439034,2.424767 1.314201,0 2.4105057,-1.071733 2.4105057,-2.424767 0,-1.321429 -1.0963047,-2.424707 -2.4105057,-2.424707 z m 19.3697057,0 c -1.31423,0 -2.4106,1.100844 -2.4106,2.424761 0,1.353034 1.09637,2.424767 2.4106,2.424767 1.34331,0 2.43894,-1.071733 2.43894,-2.424767 0,-1.321429 -1.09563,-2.424707 -2.43894,-2.424707 z m -10.20584,3.859652 c 0.23278,-0.05089 0.99858,-0.05089 1.23136,0 1.04503,0.334606 1.22699,2.518791 1.71436,4.0633924 -1.48392,0.358865 -1.71483,1.775943 -2.20215,1.775943 -0.48743,0 -0.93061,-1.207626 -2.64739,-1.207626 0.69592,-1.8791874 0.78845,-4.2728314 1.90382,-4.6316864 z"
     id="path2"
     inkscape:connector-curvature="0"
     style="fill:#2d2d2d;stroke-width:2.42477155" />
  <text
     xml:space="preserve"
     style="font-style:normal;font-weight:normal;font-size:40px;line-height:1.25;font-family:sans-serif;letter-spacing:0px;word-spacing:-0.51999998px;fill:#000000;fill-opacity:1;stroke:none"
     x="12.08074"
     y="-0.79057884"
     id="text14"><tspan
       sodipodi:role="line"
       id="tspan12"
       x="12.08074"
       y="34.600044" /></text>
</svg>
