<?xml version="1.0" encoding="UTF-8" standalone="no"?>
<svg
   xmlns:dc="http://purl.org/dc/elements/1.1/"
   xmlns:cc="http://creativecommons.org/ns#"
   xmlns:rdf="http://www.w3.org/1999/02/22-rdf-syntax-ns#"
   xmlns:svg="http://www.w3.org/2000/svg"
   xmlns="http://www.w3.org/2000/svg"
   xmlns:sodipodi="http://sodipodi.sourceforge.net/DTD/sodipodi-0.dtd"
   xmlns:inkscape="http://www.inkscape.org/namespaces/inkscape"
   role="img"
   viewBox="0 0 10.074 11.311736"
   version="1.1"
   id="svg6"
   sodipodi:docname="hugo.svg"
   inkscape:version="0.92.5 (2060ec1f9f, 2020-04-08)"
   width="10.074"
   height="11.311736">
  <metadata
     id="metadata12">
    <rdf:RDF>
      <cc:Work
         rdf:about="">
        <dc:format>image/svg+xml</dc:format>
        <dc:type
           rdf:resource="http://purl.org/dc/dcmitype/StillImage" />
        <dc:title>Hugo icon</dc:title>
      </cc:Work>
    </rdf:RDF>
  </metadata>
  <defs
     id="defs10" />
  <sodipodi:namedview
     pagecolor="#ffffff"
     bordercolor="#666666"
     borderopacity="1"
     objecttolerance="10"
     gridtolerance="10"
     guidetolerance="10"
     inkscape:pageopacity="0"
     inkscape:pageshadow="2"
     inkscape:window-width="1564"
     inkscape:window-height="872"
     id="namedview8"
     showgrid="false"
     inkscape:zoom="9.8333333"
     inkscape:cx="10.687"
     inkscape:cy="12.000048"
     inkscape:window-x="36"
     inkscape:window-y="0"
     inkscape:window-maximized="1"
     inkscape:current-layer="svg6" />
  <title
     id="title2">Hugo icon</title>
  <path
     d="M 4.9210568,0 A 1.8843388,1.8843388 0 0 0 3.9553197,0.280906 L 0.9506529,2.136023 A 2.0040539,2.0040539 0 0 0 0,3.839847 v 3.784701 c 0,0.694259 0.3723429,1.337607 0.974219,1.684496 l 3.0569836,1.759442 a 1.8287223,1.8287223 0 0 0 1.8075125,0.0086 L 9.158221,9.207744 A 1.7990298,1.7990298 0 0 0 10.074,7.641513 V 3.653673 A 1.6826135,1.6826135 0 0 0 9.237878,2.200121 L 5.8933883,0.254984 A 1.8843388,1.8843388 0 0 0 4.9210568,4.7e-4 Z m 0.010362,0.78899 C 5.1260735,0.78629 5.321671,0.83612 5.4970041,0.937453 L 8.841024,2.882594 c 0.275247,0.160251 0.443509,0.452465 0.443039,0.770608 v 3.988311 c 0,0.364804 -0.195128,0.699439 -0.513269,0.878541 L 5.4517584,10.389317 A 1.0364334,1.0364334 0 0 1 4.42475,10.384064 L 1.3682435,8.624563 A 1.153321,1.153321 0 0 1 0.7894623,7.623998 v -3.7847 c 0,-0.420889 0.2172789,-0.810675 0.5754819,-1.032196 L 4.370081,0.952456 A 1.0948773,1.0948773 0 0 1 4.9309538,0.788909 Z M 2.7162157,2.600745 v 6.057406 h 1.267856 V 6.009334 H 6.0861574 V 8.658151 H 7.3568378 V 2.600745 H 6.0861565 V 4.806993 H 3.9840708 V 2.600745 Z"
     id="path4"
     inkscape:connector-curvature="0"
     style="stroke-width:0.47132009" />
</svg>
