<?xml version="1.0" encoding="UTF-8" standalone="no"?>
<svg
   xmlns:dc="http://purl.org/dc/elements/1.1/"
   xmlns:cc="http://creativecommons.org/ns#"
   xmlns:rdf="http://www.w3.org/1999/02/22-rdf-syntax-ns#"
   xmlns:svg="http://www.w3.org/2000/svg"
   xmlns="http://www.w3.org/2000/svg"
   xmlns:sodipodi="http://sodipodi.sourceforge.net/DTD/sodipodi-0.dtd"
   xmlns:inkscape="http://www.inkscape.org/namespaces/inkscape"
   role="img"
   viewBox="0 0 59.996689 60"
   version="1.1"
   id="svg6"
   sodipodi:docname="dart.svg"
   width="59.996689"
   height="60"
   inkscape:version="0.92.5 (2060ec1f9f, 2020-04-08)">
  <metadata
     id="metadata12">
    <rdf:RDF>
      <cc:Work
         rdf:about="">
        <dc:format>image/svg+xml</dc:format>
        <dc:type
           rdf:resource="http://purl.org/dc/dcmitype/StillImage" />
      </cc:Work>
    </rdf:RDF>
  </metadata>
  <defs
     id="defs10" />
  <sodipodi:namedview
     pagecolor="#ffffff"
     bordercolor="#666666"
     borderopacity="1"
     objecttolerance="10"
     gridtolerance="10"
     guidetolerance="10"
     inkscape:pageopacity="0"
     inkscape:pageshadow="2"
     inkscape:window-width="1564"
     inkscape:window-height="872"
     id="namedview8"
     showgrid="false"
     inkscape:zoom="9.8333333"
     inkscape:cx="12"
     inkscape:cy="12"
     inkscape:window-x="36"
     inkscape:window-y="0"
     inkscape:window-maximized="1"
     inkscape:current-layer="svg6" />
  <title
     id="title2">Dart icon</title>
  <path
     d="m 10.261934,10.265244 c 0,0 12.631803,-6.3121522 18.946455,-9.47197815 a 7.6970754,7.6970754 0 0 1 3.702295,-0.787456 c 1.914895,0.117493 4.192269,1.96989095 4.192269,1.96989095 L 59.99669,24.871938 v 24.47115 H 49.339778 V 60 H 24.47115 L 1.9723912,37.501241 C 0.75745821,36.25131 0,34.488907 0,32.764002 0,31.966546 0.44997518,30.719115 0.78995642,30.001655 Z m 1.697406,1.697406 v 29.465874 c 0.005,1.357426 0.0525,2.559859 1.244932,3.769792 L 25.508593,57.500138 H 46.839916 V 46.843226 Z M 42.095178,10.267744 C 39.847802,8.0278668 37.572927,5.8179888 35.245556,3.6606078 c -0.754959,-0.667463 -1.417422,-1.169935 -2.674853,-1.154936 -0.924949,0.035 -2.17488,0.487473 -2.17488,0.487473 L 15.851625,10.265244 Z"
     id="path4"
     inkscape:connector-curvature="0"
     style="stroke-width:2.49986219" />
</svg>
