<?xml version="1.0" encoding="UTF-8" standalone="no"?>
<svg
   xmlns:dc="http://purl.org/dc/elements/1.1/"
   xmlns:cc="http://creativecommons.org/ns#"
   xmlns:rdf="http://www.w3.org/1999/02/22-rdf-syntax-ns#"
   xmlns:svg="http://www.w3.org/2000/svg"
   xmlns="http://www.w3.org/2000/svg"
   xmlns:sodipodi="http://sodipodi.sourceforge.net/DTD/sodipodi-0.dtd"
   xmlns:inkscape="http://www.inkscape.org/namespaces/inkscape"
   width="228.88712"
   height="58.393837"
   viewBox="0 0 228.88712 58.393837"
   version="1.1"
   id="svg4"
   sodipodi:docname="logo-conseiller-numerique.svg"
   inkscape:version="0.92.5 (2060ec1f9f, 2020-04-08)">
  <metadata
     id="metadata10">
    <rdf:RDF>
      <cc:Work
         rdf:about="">
        <dc:format>image/svg+xml</dc:format>
        <dc:type
           rdf:resource="http://purl.org/dc/dcmitype/StillImage" />
        <dc:title></dc:title>
      </cc:Work>
    </rdf:RDF>
  </metadata>
  <defs
     id="defs8" />
  <sodipodi:namedview
     pagecolor="#ffffff"
     bordercolor="#666666"
     borderopacity="1"
     objecttolerance="10"
     gridtolerance="10"
     guidetolerance="10"
     inkscape:pageopacity="0"
     inkscape:pageshadow="2"
     inkscape:window-width="1564"
     inkscape:window-height="872"
     id="namedview6"
     showgrid="false"
     inkscape:zoom="2.3928571"
     inkscape:cx="149.39808"
     inkscape:cy="38.368807"
     inkscape:window-x="36"
     inkscape:window-y="0"
     inkscape:window-maximized="1"
     inkscape:current-layer="svg4" />
  <g
     aria-label="MON CONSEILLER 
NUMERIQUE .COM"
     transform="matrix(1.0543794,0,0,0.94842521,-0.5226884,-0.25021033)"
     style="font-style:normal;font-variant:normal;font-weight:normal;font-stretch:normal;font-size:25.6425209px;line-height:1.25;font-family:FjallaOne;-inkscape-font-specification:'FjallaOne, Normal';font-variant-ligatures:normal;font-variant-caps:normal;font-variant-numeric:normal;font-feature-settings:normal;text-align:start;letter-spacing:0px;word-spacing:-0.62503642px;writing-mode:lr-tb;text-anchor:start;fill:#000000;fill-opacity:1;stroke:none;stroke-width:1.20199323"
     id="text14">
    <path
       d="m 52.69021,25.447742 h 3.030025 v -7.07423 c 0,-4.344705 -0.200333,-8.138496 -0.338061,-9.640987 h 0.237894 l 3.255399,13.96065 h 2.053405 l 3.230356,-13.96065 h 0.237895 c -0.137729,1.502491 -0.338061,5.296282 -0.338061,9.640987 v 7.07423 h 3.030025 V 4.0622807 h -4.144373 l -2.116009,8.2762233 c -0.438226,1.828032 -0.651079,3.518335 -0.876453,4.970743 H 59.852086 C 59.626712,15.856839 59.413859,14.166536 58.975633,12.338504 L 56.922228,4.0622807 H 52.69021 Z"
       style="letter-spacing:0.46141154px;stroke-width:1.20199323"
       id="path1462"
       inkscape:connector-curvature="0" />
    <path
       d="m 75.964451,25.635554 c 1.865594,0 5.271241,-0.801329 5.271241,-7.149355 v -7.575061 c 0,-6.548359 -3.343043,-7.0366687 -5.271241,-7.0366687 -2.003321,0 -5.321323,0.5884758 -5.321323,7.0366687 v 7.575061 c 0,6.423151 3.242877,7.149355 5.321323,7.149355 z m 0,-2.441549 c -1.31468,0 -1.928197,-0.788808 -1.928197,-3.443209 v -9.728633 c 0,-2.7420464 0.613517,-3.5934583 1.928197,-3.5934583 1.277118,0 1.890636,0.8514119 1.890636,3.5934583 v 9.728633 c 0,2.654401 -0.613518,3.443209 -1.890636,3.443209 z"
       style="letter-spacing:0.46141154px;stroke-width:1.20199323"
       id="path1464"
       inkscape:connector-curvature="0" />
    <path
       d="m 84.764688,25.447742 h 2.879776 V 19.16232 c 0,-4.332184 -0.225374,-6.135174 -0.338061,-7.650186 h 0.100166 l 5.158554,13.935608 h 2.654402 V 4.0622807 h -2.904817 v 7.8004353 c 0,3.318001 0.225374,5.183595 0.33806,6.510796 h -0.07512 l -5.1836,-14.3112313 h -2.62936 z"
       style="letter-spacing:0.46141154px;stroke-width:1.20199323"
       id="path1466"
       inkscape:connector-curvature="0" />
    <path
       d="m 109.30267,25.635554 c 2.94238,-0.01252 4.55756,-1.615178 4.55756,-5.045867 v -1.978281 h -2.96742 v 2.090968 c 0,1.715344 -0.75125,2.479111 -1.59014,2.479111 -1.31468,0 -1.79047,-0.81385 -1.79047,-3.468252 V 9.9470389 c 0,-2.7420469 0.62604,-3.5934587 1.81551,-3.5934587 0.98914,0 1.52754,1.1769516 1.52754,3.5183341 v 1.0893067 h 2.62936 c 0.18781,-0.926537 0.27545,-1.6402202 0.27545,-2.5542358 0,-2.4791109 -1.07678,-4.5325159 -4.46991,-4.5325159 -1.94072,0 -5.18359,0.5884758 -5.18359,7.0366687 v 7.575061 c 0,6.423151 3.16775,7.149355 5.19611,7.149355 z"
       style="letter-spacing:0.46141154px;stroke-width:1.20199323"
       id="path1468"
       inkscape:connector-curvature="0" />
    <path
       d="m 121.60873,25.635554 c 1.86559,0 5.27124,-0.801329 5.27124,-7.149355 v -7.575061 c 0,-6.548359 -3.34305,-7.0366687 -5.27124,-7.0366687 -2.00332,0 -5.32133,0.5884758 -5.32133,7.0366687 v 7.575061 c 0,6.423151 3.24288,7.149355 5.32133,7.149355 z m 0,-2.441549 c -1.31468,0 -1.9282,-0.788808 -1.9282,-3.443209 v -9.728633 c 0,-2.7420464 0.61352,-3.5934583 1.9282,-3.5934583 1.27711,0 1.89063,0.8514119 1.89063,3.5934583 v 9.728633 c 0,2.654401 -0.61352,3.443209 -1.89063,3.443209 z"
       style="letter-spacing:0.46141154px;stroke-width:1.20199323"
       id="path1470"
       inkscape:connector-curvature="0" />
    <path
       d="m 130.40896,25.447742 h 2.87978 V 19.16232 c 0,-4.332184 -0.22538,-6.135174 -0.33807,-7.650186 h 0.10017 l 5.15855,13.935608 h 2.65441 V 4.0622807 h -2.90482 v 7.8004353 c 0,3.318001 0.22537,5.183595 0.33806,6.510796 h -0.0751 l -5.1836,-14.3112313 h -2.62936 z"
       style="letter-spacing:0.46141154px;stroke-width:1.20199323"
       id="path1472"
       inkscape:connector-curvature="0" />
    <path
       d="m 144.16742,21.115559 c 0,2.278778 1.10183,4.532516 4.97074,4.532516 3.13019,0 5.09595,-1.903156 5.09595,-4.933181 0,-1.840552 -0.75124,-3.393126 -2.12853,-5.183595 l -3.76875,-4.557558 c -0.62603,-0.82637 -1.01418,-1.4649288 -1.01418,-2.6794427 0,-1.1268686 0.601,-1.8655936 1.81551,-1.8655936 1.46493,0 2.07845,1.264597 2.07845,3.5183342 v 1.0141821 h 2.50415 c 0.17529,-0.926537 0.35058,-1.6402202 0.35058,-2.5542358 0,-2.1660919 -1.11434,-4.5325159 -4.89561,-4.5325159 -3.11767,0 -4.92066,2.0033219 -4.92066,4.8455349 0,1.7654278 0.68864,3.2929608 1.87811,4.8204938 l 3.38061,4.019164 c 1.18947,1.515013 1.50249,2.316341 1.50249,3.643542 0,1.289639 -0.67612,1.990801 -1.90316,1.990801 -1.57761,0 -2.10349,-1.264597 -2.10349,-3.568417 v -1.039223 h -2.51667 c -0.21285,0.888974 -0.32554,1.615178 -0.32554,2.529194 z"
       style="letter-spacing:0.46141154px;stroke-width:1.20199323"
       id="path1474"
       inkscape:connector-curvature="0" />
    <path
       d="m 157.42506,25.447742 h 8.05085 v -2.554235 h -4.80797 v -7.324646 h 3.6185 v -2.554235 h -3.6185 V 6.6165162 h 4.68276 V 4.0622807 h -7.92564 z"
       style="letter-spacing:0.46141154px;stroke-width:1.20199323"
       id="path1476"
       inkscape:connector-curvature="0" />
    <path
       d="m 168.30374,25.447742 h 3.24288 V 4.0622807 h -3.24288 z"
       style="letter-spacing:0.46141154px;stroke-width:1.20199323"
       id="path1478"
       inkscape:connector-curvature="0" />
    <path
       d="m 175.67661,25.447742 h 7.66271 v -2.554235 h -4.41983 V 4.0622807 h -3.24288 z"
       style="letter-spacing:0.46141154px;stroke-width:1.20199323"
       id="path1480"
       inkscape:connector-curvature="0" />
    <path
       d="m 185.85414,25.447742 h 7.6627 v -2.554235 h -4.41983 V 4.0622807 h -3.24287 z"
       style="letter-spacing:0.46141154px;stroke-width:1.20199323"
       id="path1482"
       inkscape:connector-curvature="0" />
    <path
       d="m 196.03166,25.447742 h 8.05085 v -2.554235 h -4.80798 v -7.324646 h 3.6185 v -2.554235 h -3.6185 V 6.6165162 h 4.68277 V 4.0622807 h -7.92564 z"
       style="letter-spacing:0.46141154px;stroke-width:1.20199323"
       id="path1484"
       inkscape:connector-curvature="0" />
    <path
       d="m 206.91035,25.447742 h 3.18027 v -8.000767 h 1.21452 l 2.84221,8.000767 h 3.43069 l -3.43069,-8.55168 c 1.80299,-0.901495 2.76709,-2.942379 2.76709,-6.185257 v -0.538392 c 0,-5.809634 -4.06925,-6.1101323 -6.48576,-6.1101323 h -3.51833 z m 3.18027,-10.342149 V 6.4287047 h 0.48831 c 2.36643,0 3.08011,0.9766195 3.08011,3.1802736 v 1.6903027 c 0,2.879776 -0.80133,3.806312 -3.08011,3.806312 z"
       style="letter-spacing:0.46141154px;stroke-width:1.20199323"
       id="path1486"
       inkscape:connector-curvature="0" />
    <path
       d="m 52.69021,57.500894 h 2.879775 v -6.285423 c 0,-4.332184 -0.225373,-6.135173 -0.33806,-7.650186 h 0.100166 l 5.158554,13.935609 h 2.654401 V 36.115432 H 60.24023 v 7.800435 c 0,3.318002 0.225373,5.183595 0.33806,6.510796 h -0.07512 l -5.1836,-14.311231 h -2.62936 z"
       style="stroke-width:1.20199323"
       id="path1488"
       inkscape:connector-curvature="0" />
    <path
       d="m 66.738505,50.927493 c 0,6.285423 3.217836,6.761212 5.070909,6.761212 1.865594,0 5.120992,-0.475789 5.120992,-6.761212 V 36.115432 h -3.230357 v 15.675994 c 0,2.654402 -0.613517,3.45573 -1.890635,3.45573 -1.277118,0 -1.80299,-0.801328 -1.80299,-3.45573 V 36.115432 h -3.267919 z"
       style="stroke-width:1.20199323"
       id="path1490"
       inkscape:connector-curvature="0" />
    <path
       d="m 80.536386,57.500894 h 3.030025 v -7.074231 c 0,-4.344704 -0.200333,-8.138495 -0.338061,-9.640987 h 0.237895 l 3.255398,13.96065 h 2.053405 l 3.230356,-13.96065 h 0.237895 c -0.137729,1.502492 -0.338061,5.296283 -0.338061,9.640987 v 7.074231 h 3.030025 V 36.115432 H 90.79089 l -2.116008,8.276224 c -0.438227,1.828031 -0.65108,3.518334 -0.876454,4.970742 H 87.698262 C 87.472888,47.90999 87.260036,46.219687 86.821809,44.391656 l -2.053405,-8.276224 h -4.232018 z"
       style="stroke-width:1.20199323"
       id="path1492"
       inkscape:connector-curvature="0" />
    <path
       d="m 98.616365,57.500894 h 8.050855 v -2.554236 h -4.80798 v -7.324646 h 3.6185 v -2.554235 h -3.6185 v -6.39811 h 4.68277 v -2.554235 h -7.925645 z"
       style="stroke-width:1.20199323"
       id="path1494"
       inkscape:connector-curvature="0" />
    <path
       d="m 109.03364,57.500894 h 3.18027 v -8.000767 h 1.21452 l 2.84221,8.000767 h 3.43069 l -3.43069,-8.551681 c 1.80299,-0.901495 2.76709,-2.942379 2.76709,-6.185256 v -0.538393 c 0,-5.809634 -4.06925,-6.110132 -6.48576,-6.110132 h -3.51833 z m 3.18027,-10.34215 v -8.676888 h 0.48831 c 2.36643,0 3.08011,0.976619 3.08011,3.180273 v 1.690303 c 0,2.879776 -0.80133,3.806312 -3.08011,3.806312 z"
       style="stroke-width:1.20199323"
       id="path1496"
       inkscape:connector-curvature="0" />
    <path
       d="m 122.1554,57.500894 h 3.24287 V 36.115432 h -3.24287 z"
       style="stroke-width:1.20199323"
       id="path1498"
       inkscape:connector-curvature="0" />
    <path
       d="m 132.61023,57.563497 v 0.838891 c 0,3.192795 2.30382,3.430689 3.35557,3.430689 0.80133,0 1.47745,-0.112687 2.2913,-0.475789 v -1.752906 c -0.20033,0.01252 -0.45075,0.01252 -0.67612,0.01252 -1.47745,0 -2.24122,-0.287977 -2.24122,-1.915676 v -0.187812 c 1.79047,-0.450747 3.85639,-2.028363 3.85639,-6.974064 v -7.575061 c 0,-6.548359 -3.34304,-7.036669 -5.27124,-7.036669 -2.00332,0 -5.32132,0.588476 -5.32132,7.036669 v 7.575061 c 0,5.171075 2.10349,6.648525 4.00664,7.024147 z m 1.31468,-2.316341 c -1.31468,0 -1.92819,-0.788808 -1.92819,-3.443209 v -9.728632 c 0,-2.742047 0.61351,-3.593459 1.92819,-3.593459 1.27712,0 1.89064,0.851412 1.89064,3.593459 v 9.728632 c 0,2.654401 -0.61352,3.443209 -1.89064,3.443209 z"
       style="stroke-width:1.20199323"
       id="path1500"
       inkscape:connector-curvature="0" />
    <path
       d="m 142.31382,50.927493 c 0,6.285423 3.21784,6.761212 5.07091,6.761212 1.8656,0 5.12099,-0.475789 5.12099,-6.761212 V 36.115432 h -3.23035 v 15.675994 c 0,2.654402 -0.61352,3.45573 -1.89064,3.45573 -1.27712,0 -1.80299,-0.801328 -1.80299,-3.45573 V 36.115432 h -3.26792 z"
       style="stroke-width:1.20199323"
       id="path1502"
       inkscape:connector-curvature="0" />
    <path
       d="m 156.1117,57.500894 h 8.05085 v -2.554236 h -4.80797 v -7.324646 h 3.6185 v -2.554235 h -3.6185 v -6.39811 h 4.68277 v -2.554235 h -7.92565 z"
       style="stroke-width:1.20199323"
       id="path1504"
       inkscape:connector-curvature="0" />
    <path
       d="m 170.72444,55.259677 c 0,1.577616 0.76376,2.416507 1.94072,2.416507 1.23955,0 1.97828,-0.888974 1.97828,-2.416507 0,-1.665261 -0.72621,-2.479111 -1.96576,-2.479111 -1.202,0 -1.95324,0.713684 -1.95324,2.479111 z"
       style="stroke-width:1.20199323"
       id="path1506"
       inkscape:connector-curvature="0" />
    <path
       d="m 182.2811,57.688705 c 2.94238,-0.01252 4.55756,-1.615178 4.55756,-5.045867 v -1.978281 h -2.96742 v 2.090968 c 0,1.715344 -0.75124,2.479111 -1.59014,2.479111 -1.31468,0 -1.79046,-0.81385 -1.79046,-3.468251 V 42.00019 c 0,-2.742047 0.62603,-3.593459 1.81551,-3.593459 0.98914,0 1.52753,1.176952 1.52753,3.518334 v 1.089307 h 2.62936 c 0.18781,-0.926537 0.27546,-1.64022 0.27546,-2.554236 0,-2.479111 -1.07679,-4.532516 -4.46992,-4.532516 -1.94071,0 -5.18359,0.588476 -5.18359,7.036669 v 7.575061 c 0,6.423151 3.16775,7.149355 5.19611,7.149355 z"
       style="stroke-width:1.20199323"
       id="path1508"
       inkscape:connector-curvature="0" />
    <path
       d="m 194.12574,57.688705 c 1.86559,0 5.27124,-0.801329 5.27124,-7.149355 v -7.575061 c 0,-6.548359 -3.34304,-7.036669 -5.27124,-7.036669 -2.00332,0 -5.32132,0.588476 -5.32132,7.036669 v 7.575061 c 0,6.423151 3.24287,7.149355 5.32132,7.149355 z m 0,-2.441549 c -1.31468,0 -1.9282,-0.788808 -1.9282,-3.443209 v -9.728632 c 0,-2.742047 0.61352,-3.593459 1.9282,-3.593459 1.27712,0 1.89064,0.851412 1.89064,3.593459 v 9.728632 c 0,2.654401 -0.61352,3.443209 -1.89064,3.443209 z"
       style="stroke-width:1.20199323"
       id="path1510"
       inkscape:connector-curvature="0" />
    <path
       d="m 202.46456,57.500894 h 3.03003 v -7.074231 c 0,-4.344704 -0.20033,-8.138495 -0.33806,-9.640987 h 0.23789 l 3.2554,13.96065 h 2.0534 l 3.23036,-13.96065 h 0.2379 c -0.13773,1.502492 -0.33806,5.296283 -0.33806,9.640987 v 7.074231 h 3.03002 V 36.115432 h -4.14437 l -2.11601,8.276224 c -0.43823,1.828031 -0.65108,3.518334 -0.87645,4.970742 h -0.10017 c -0.22537,-1.452408 -0.43823,-3.142711 -0.87645,-4.970742 l -2.05341,-8.276224 h -4.23202 z"
       style="stroke-width:1.20199323"
       id="path1512"
       inkscape:connector-curvature="0" />
  </g>
  <g
     transform="matrix(0.1397804,0,0,0.1397804,-3.7944785,3.49451e-5)"
     id="g1405">
    <path
       inkscape:connector-curvature="0"
       d="M 380.546,110.125 211.552,1.586 c -3.293,-2.115 -7.515,-2.115 -10.807,0 L 31.744,110.081 c -2.866,1.84 -4.6,5.014 -4.598,8.42 l 0.041,180.039 c 0.002,3.476 1.806,6.699 4.767,8.519 l 168.961,103.75 c 1.605,0.986 3.419,1.479 5.233,1.479 1.814,0 3.629,-0.491 5.232,-1.479 L 380.352,307.1 c 2.96,-1.818 4.766,-5.043 4.767,-8.519 l 0.023,-180.039 c 10e-4,-3.405 -1.733,-6.577 -4.596,-8.417 z M 206.147,25.627 268.083,65.256 206.147,104.883 144.213,65.256 Z M 50.197,291.254 v -63.938 l 60.692,36.848 0.01,64.377 z m 60.702,-53.631 -60.703,-37.285 v -64.74 l 60.703,38.842 z M 63.22,116.834 l 59.186,-37.869 59.186,37.869 -59.186,37.869 z m 70.688,57.606 60.705,-38.844 v 64.742 l -60.705,37.285 z m 0.03,103.487 40.348,25.815 -40.348,24.783 z m 60.704,102.025 -50.232,-30.854 50.232,-30.847 z m 11.496,-82.912 -62.076,-38.765 62.076,-38.592 62.076,38.733 z m 11.515,82.912 v -61.645 l 50.194,30.812 z m 60.705,-51.381 -40.388,-24.805 40.388,-25.842 z m 0.03,-90.901 -60.703,-37.287 v -64.736 l 60.703,38.842 z m -47.68,-120.791 59.186,-37.867 59.186,37.867 -59.186,37.869 z M 362.104,291.3 301.399,328.586 v -63.17 l 60.705,-37.983 z m 0,-90.917 -60.705,37.287 v -63.182 l 60.705,-38.844 z"
       id="path1403" />
  </g>
</svg>
