<?xml version="1.0" encoding="UTF-8" standalone="no"?>
<svg
   xmlns:dc="http://purl.org/dc/elements/1.1/"
   xmlns:cc="http://creativecommons.org/ns#"
   xmlns:rdf="http://www.w3.org/1999/02/22-rdf-syntax-ns#"
   xmlns:svg="http://www.w3.org/2000/svg"
   xmlns="http://www.w3.org/2000/svg"
   xmlns:sodipodi="http://sodipodi.sourceforge.net/DTD/sodipodi-0.dtd"
   xmlns:inkscape="http://www.inkscape.org/namespaces/inkscape"
   width="235.16853"
   height="59.140106"
   viewBox="0 0 235.16853 59.140106"
   version="1.1"
   id="svg4"
   sodipodi:docname="logo-conseiller-numerique.svg"
   inkscape:version="0.92.5 (2060ec1f9f, 2020-04-08)">
  <metadata
     id="metadata10">
    <rdf:RDF>
      <cc:Work
         rdf:about="">
        <dc:format>image/svg+xml</dc:format>
        <dc:type
           rdf:resource="http://purl.org/dc/dcmitype/StillImage" />
        <dc:title></dc:title>
      </cc:Work>
    </rdf:RDF>
  </metadata>
  <defs
     id="defs8" />
  <sodipodi:namedview
     pagecolor="#ffffff"
     bordercolor="#666666"
     borderopacity="1"
     objecttolerance="10"
     gridtolerance="10"
     guidetolerance="10"
     inkscape:pageopacity="0"
     inkscape:pageshadow="2"
     inkscape:window-width="1564"
     inkscape:window-height="872"
     id="namedview6"
     showgrid="false"
     inkscape:zoom="2.3928571"
     inkscape:cx="148.87539"
     inkscape:cy="39.759126"
     inkscape:window-x="36"
     inkscape:window-y="0"
     inkscape:window-maximized="1"
     inkscape:current-layer="svg4" />
  <g
     aria-label="VOTRE CONSEILLER 
NUMERIQUE.COM"
     transform="matrix(1.0543794,0,0,0.94842521,-0.5226884,1.7497897)"
     style="font-style:normal;font-variant:normal;font-weight:normal;font-stretch:normal;font-size:26.4998188px;line-height:1.25;font-family:FjallaOne;-inkscape-font-specification:'FjallaOne, Normal';font-variant-ligatures:normal;font-variant-caps:normal;font-variant-numeric:normal;font-feature-settings:normal;text-align:start;letter-spacing:0px;word-spacing:-0.64593303px;writing-mode:lr-tb;text-anchor:start;fill:#000000;fill-opacity:1;stroke:none;stroke-width:1.24217904"
     id="text14">
    <path
       d="m 55.454473,22.909374 h 3.830052 L 63.308667,0.80893942 H 59.892675 L 57.447135,18.3159 H 57.304802 L 54.872202,0.80893942 H 51.44327 Z"
       style="letter-spacing:-0.56px"
       id="path1885"
       inkscape:connector-curvature="0" />
    <path
       d="m 69.787681,23.103465 c 1.927965,0 5.447473,-0.82812 5.447473,-7.388378 V 7.8867719 c 0,-6.7672877 -3.454811,-7.27192295 -5.447473,-7.27192295 -2.070298,0 -5.49923,0.60815015 -5.49923,7.27192295 v 7.8283151 c 0,6.637895 3.351295,7.388378 5.49923,7.388378 z m 0,-2.523176 c -1.358633,0 -1.992662,-0.81518 -1.992662,-3.558326 V 6.968077 c 0,-2.8337209 0.634029,-3.7135977 1.992662,-3.7135977 1.319815,0 1.953844,0.8798768 1.953844,3.7135977 v 10.053886 c 0,2.743146 -0.634029,3.558326 -1.953844,3.558326 z"
       style="letter-spacing:-0.56px"
       id="path1887"
       inkscape:connector-curvature="0" />
    <path
       d="m 79.889717,22.909374 h 3.351295 V 3.4485698 h 3.545386 V 0.80893942 H 76.331392 V 3.4485698 h 3.558325 z"
       style="letter-spacing:-0.56px"
       id="path1889"
       inkscape:connector-curvature="0" />
    <path
       d="m 88.516665,22.909374 h 3.286599 V 14.64112 h 1.255118 l 2.937236,8.268254 h 3.545386 l -3.545386,-8.837586 c 1.863268,-0.931634 2.859599,-3.040751 2.859599,-6.392046 V 7.1233494 c 0,-6.0038652 -4.205293,-6.31440998 -6.702591,-6.31440998 H 88.516665 Z M 91.803264,12.221459 V 3.2544793 h 0.504635 c 2.44554,0 3.183083,1.0092705 3.183083,3.2865987 v 1.7468142 c 0,2.9760538 -0.828119,3.9335668 -3.183083,3.9335668 z"
       style="letter-spacing:-0.56px"
       id="path1891"
       inkscape:connector-curvature="0" />
    <path
       d="m 101.51712,22.909374 h 8.32001 v -2.63963 h -4.96872 v -7.569528 h 3.73948 v -2.639631 h -3.73948 V 3.4485698 h 4.83933 V 0.80893942 h -8.19062 z"
       style="letter-spacing:-0.56px"
       id="path1893"
       inkscape:connector-curvature="0" />
    <path
       d="m 120.97174,23.103465 c 3.04076,-0.01294 4.70993,-1.669178 4.70993,-5.214564 v -2.04442 h -3.06663 v 2.160874 c 0,1.772693 -0.77636,2.561994 -1.6433,2.561994 -1.35863,0 -1.85032,-0.841058 -1.85032,-3.584204 V 6.8904408 c 0,-2.8337209 0.64696,-3.7135977 1.8762,-3.7135977 1.02221,0 1.57861,1.2163003 1.57861,3.6359615 v 1.1257247 h 2.71726 c 0.19409,-0.9575129 0.28467,-1.6950567 0.28467,-2.6396304 0,-2.5619942 -1.11279,-4.68404995 -4.61935,-4.68404995 -2.00561,0 -5.3569,0.60815015 -5.3569,7.27192295 v 7.8283151 c 0,6.637895 3.27366,7.388378 5.36983,7.388378 z"
       style="letter-spacing:-0.56px"
       id="path1895"
       inkscape:connector-curvature="0" />
    <path
       d="m 132.65239,23.103465 c 1.92796,0 5.44747,-0.82812 5.44747,-7.388378 V 7.8867719 c 0,-6.7672877 -3.45481,-7.27192295 -5.44747,-7.27192295 -2.0703,0 -5.49923,0.60815015 -5.49923,7.27192295 v 7.8283151 c 0,6.637895 3.35129,7.388378 5.49923,7.388378 z m 0,-2.523176 c -1.35864,0 -1.99267,-0.81518 -1.99267,-3.558326 V 6.968077 c 0,-2.8337209 0.63403,-3.7135977 1.99267,-3.7135977 1.31981,0 1.95384,0.8798768 1.95384,3.7135977 v 10.053886 c 0,2.743146 -0.63403,3.558326 -1.95384,3.558326 z"
       style="letter-spacing:-0.56px"
       id="path1897"
       inkscape:connector-curvature="0" />
    <path
       d="m 140.71,22.909374 h 2.97605 v -6.495561 c 0,-4.47702 -0.23291,-6.340288 -0.34936,-7.9059516 h 0.10351 l 5.33102,14.4015126 h 2.74315 V 0.80893942 h -3.00194 V 8.8701636 c 0,3.4289314 0.23291,5.3568974 0.34937,6.7284694 h -0.0776 L 143.42726,0.80893942 H 140.71 Z"
       style="letter-spacing:-0.56px"
       id="path1899"
       inkscape:connector-curvature="0" />
    <path
       d="m 153.89161,18.432354 c 0,2.354964 1.13866,4.68405 5.13692,4.68405 3.23484,0 5.26633,-1.966783 5.26633,-5.09811 0,-1.902086 -0.77637,-3.506567 -2.1997,-5.356897 l -3.89475,-4.7099283 c -0.64696,-0.8539981 -1.04808,-1.5139057 -1.04808,-2.769024 0,-1.1645429 0.62109,-1.9279654 1.8762,-1.9279654 1.51391,0 2.14794,1.3068759 2.14794,3.6359615 v 1.0480885 h 2.58787 c 0.18115,-0.9575129 0.3623,-1.6950567 0.3623,-2.6396304 0,-2.23851 -1.1516,-4.68404995 -5.05929,-4.68404995 -3.2219,0 -5.08517,2.07029835 -5.08517,5.00753415 0,1.8244504 0.71167,3.4030529 1.94091,4.9816549 l 3.49362,4.153537 c 1.22924,1.565663 1.55273,2.393782 1.55273,3.765355 0,1.332754 -0.69873,2.057359 -1.96679,2.057359 -1.63035,0 -2.17381,-1.306876 -2.17381,-3.687719 v -1.073968 h -2.60081 c -0.21997,0.918695 -0.33642,1.669178 -0.33642,2.613752 z"
       style="letter-spacing:-0.56px"
       id="path1901"
       inkscape:connector-curvature="0" />
    <path
       d="m 166.55564,22.909374 h 8.32001 v -2.63963 h -4.96871 v -7.569528 h 3.73947 v -2.639631 h -3.73947 V 3.4485698 h 4.83932 V 0.80893942 h -8.19062 z"
       style="letter-spacing:-0.56px"
       id="path1903"
       inkscape:connector-curvature="0" />
    <path
       d="m 176.76119,22.909374 h 3.3513 V 0.80893942 h -3.3513 z"
       style="letter-spacing:-0.56px"
       id="path1905"
       inkscape:connector-curvature="0" />
    <path
       d="m 183.34371,22.909374 h 7.91889 v -2.63963 h -4.56759 V 0.80893942 h -3.3513 z"
       style="letter-spacing:-0.56px"
       id="path1907"
       inkscape:connector-curvature="0" />
    <path
       d="m 192.82467,22.909374 h 7.91889 v -2.63963 h -4.5676 V 0.80893942 h -3.35129 z"
       style="letter-spacing:-0.56px"
       id="path1909"
       inkscape:connector-curvature="0" />
    <path
       d="m 202.30561,22.909374 h 8.32001 v -2.63963 h -4.96872 v -7.569528 h 3.73948 V 10.060585 H 205.6569 V 3.4485698 h 4.83933 V 0.80893942 h -8.19062 z"
       style="letter-spacing:-0.56px"
       id="path1911"
       inkscape:connector-curvature="0" />
    <path
       d="m 212.51116,22.909374 h 3.2866 V 14.64112 h 1.25512 l 2.93723,8.268254 h 3.54539 l -3.54539,-8.837586 c 1.86327,-0.931634 2.8596,-3.040751 2.8596,-6.392046 V 7.1233494 c 0,-6.0038652 -4.20529,-6.31440998 -6.70259,-6.31440998 h -3.63596 z m 3.2866,-10.687915 V 3.2544793 h 0.50463 c 2.44554,0 3.18309,1.0092705 3.18309,3.2865987 v 1.7468142 c 0,2.9760538 -0.82812,3.9335668 -3.18309,3.9335668 z"
       style="letter-spacing:-0.56px"
       id="path1913"
       inkscape:connector-curvature="0" />
    <path
       d="m 53.086569,56.034148 h 2.976054 v -6.495561 c 0,-4.47702 -0.232908,-6.340289 -0.349363,-7.905952 h 0.103515 l 5.331018,14.401513 h 2.743146 V 33.933713 h -3.001933 v 8.061224 c 0,3.428932 0.232909,5.356897 0.349363,6.72847 h -0.07764 L 55.803836,33.933713 h -2.717267 z"
       style="letter-spacing:0.43000001px;stroke-width:1.24217904"
       id="path1915"
       inkscape:connector-curvature="0" />
    <path
       d="m 68.034536,49.240981 c 0,6.495561 3.325417,6.987257 5.240443,6.987257 1.927965,0 5.2922,-0.491696 5.2922,-6.987257 V 33.933713 h -3.338356 v 16.200084 c 0,2.743146 -0.634029,3.571265 -1.953844,3.571265 -1.319815,0 -1.863268,-0.828119 -1.863268,-3.571265 V 33.933713 h -3.377175 z"
       style="letter-spacing:0.43000001px;stroke-width:1.24217904"
       id="path1917"
       inkscape:connector-curvature="0" />
    <path
       d="m 82.723715,56.034148 h 3.131327 v -7.310741 c 0,-4.48996 -0.20703,-8.410587 -0.349363,-9.963311 h 0.245848 l 3.364234,14.427392 h 2.122056 l 3.338356,-14.427392 h 0.245848 c -0.142333,1.552724 -0.349363,5.473351 -0.349363,9.963311 v 7.310741 h 3.131327 V 33.933713 h -4.28293 l -2.186753,8.55292 c -0.452877,1.889147 -0.672847,3.635961 -0.905755,5.136928 H 90.125032 C 89.892123,46.122594 89.672154,44.37578 89.219276,42.486633 l -2.122055,-8.55292 h -4.373506 z"
       style="letter-spacing:0.43000001px;stroke-width:1.24217904"
       id="path1919"
       inkscape:connector-curvature="0" />
    <path
       d="m 101.83816,56.034148 h 8.32001 v -2.639631 h -4.96871 v -7.569528 h 3.73947 v -2.63963 h -3.73947 v -6.612016 h 4.83932 v -2.63963 h -8.19062 z"
       style="letter-spacing:0.43000001px;stroke-width:1.24217904"
       id="path1921"
       inkscape:connector-curvature="0" />
    <path
       d="m 113.03371,56.034148 h 3.2866 v -8.268254 h 1.25512 l 2.93723,8.268254 h 3.54539 l -3.54539,-8.837586 c 1.86327,-0.931635 2.8596,-3.040751 2.8596,-6.392046 v -0.556393 c 0,-6.003865 -4.20529,-6.31441 -6.70259,-6.31441 h -3.63596 z m 3.2866,-10.687915 v -8.96698 h 0.50463 c 2.44554,0 3.18309,1.00927 3.18309,3.286598 v 1.746815 c 0,2.976054 -0.82812,3.933567 -3.18309,3.933567 z"
       style="letter-spacing:0.43000001px;stroke-width:1.24217904"
       id="path1923"
       inkscape:connector-curvature="0" />
    <path
       d="m 127.02416,56.034148 h 3.3513 V 33.933713 h -3.3513 z"
       style="letter-spacing:0.43000001px;stroke-width:1.24217904"
       id="path1925"
       inkscape:connector-curvature="0" />
    <path
       d="m 138.25853,56.098845 v 0.866937 c 0,3.299538 2.38085,3.545386 3.46775,3.545386 0.82812,0 1.52685,-0.116454 2.36791,-0.491696 v -1.811511 c -0.20703,0.01294 -0.46582,0.01294 -0.69873,0.01294 -1.52684,0 -2.31614,-0.297605 -2.31614,-1.979722 v -0.194091 c 1.85032,-0.465817 3.98532,-2.096177 3.98532,-7.207226 v -7.828316 c 0,-6.767287 -3.45481,-7.271923 -5.44747,-7.271923 -2.0703,0 -5.49923,0.608151 -5.49923,7.271923 v 7.828316 c 0,5.343958 2.17381,6.870803 4.14059,7.258983 z m 1.35864,-2.393783 c -1.35864,0 -1.99267,-0.81518 -1.99267,-3.558325 V 40.09285 c 0,-2.83372 0.63403,-3.713597 1.99267,-3.713597 1.31981,0 1.95384,0.879877 1.95384,3.713597 v 10.053887 c 0,2.743145 -0.63403,3.558325 -1.95384,3.558325 z"
       style="letter-spacing:0.43000001px;stroke-width:1.24217904"
       id="path1927"
       inkscape:connector-curvature="0" />
    <path
       d="m 148.71654,49.240981 c 0,6.495561 3.32542,6.987257 5.24045,6.987257 1.92796,0 5.2922,-0.491696 5.2922,-6.987257 V 33.933713 h -3.33836 v 16.200084 c 0,2.743146 -0.63403,3.571265 -1.95384,3.571265 -1.31982,0 -1.86327,-0.828119 -1.86327,-3.571265 V 33.933713 h -3.37718 z"
       style="letter-spacing:0.43000001px;stroke-width:1.24217904"
       id="path1929"
       inkscape:connector-curvature="0" />
    <path
       d="m 163.40572,56.034148 h 8.32001 v -2.639631 h -4.96871 v -7.569528 h 3.73947 v -2.63963 h -3.73947 v -6.612016 h 4.83932 v -2.63963 h -8.19062 z"
       style="letter-spacing:0.43000001px;stroke-width:1.24217904"
       id="path1931"
       inkscape:connector-curvature="0" />
    <path
       d="m 173.88961,53.718001 c 0,1.63036 0.7893,2.497298 2.0056,2.497298 1.28099,0 2.04442,-0.918695 2.04442,-2.497298 0,-1.720935 -0.75049,-2.561994 -2.03148,-2.561994 -1.24218,0 -2.01854,0.737544 -2.01854,2.561994 z"
       style="letter-spacing:0.43000001px;stroke-width:1.24217904"
       id="path1933"
       inkscape:connector-curvature="0" />
    <path
       d="m 186.26264,56.228238 c 3.04075,-0.01294 4.70993,-1.669178 4.70993,-5.214564 v -2.044419 h -3.06663 v 2.160874 c 0,1.772692 -0.77636,2.561994 -1.6433,2.561994 -1.35863,0 -1.85033,-0.841059 -1.85033,-3.584204 V 40.015214 c 0,-2.833721 0.64697,-3.713597 1.87621,-3.713597 1.02221,0 1.5786,1.2163 1.5786,3.635961 v 1.125725 h 2.71727 c 0.19409,-0.957513 0.28466,-1.695057 0.28466,-2.639631 0,-2.561994 -1.11278,-4.68405 -4.61935,-4.68405 -2.0056,0 -5.3569,0.608151 -5.3569,7.271923 v 7.828316 c 0,6.637894 3.27366,7.388377 5.36984,7.388377 z"
       style="letter-spacing:0.43000001px;stroke-width:1.24217904"
       id="path1935"
       inkscape:connector-curvature="0" />
    <path
       d="m 198.93328,56.228238 c 1.92796,0 5.44747,-0.828119 5.44747,-7.388377 v -7.828316 c 0,-6.767287 -3.45481,-7.271923 -5.44747,-7.271923 -2.0703,0 -5.49923,0.608151 -5.49923,7.271923 v 7.828316 c 0,6.637894 3.35129,7.388377 5.49923,7.388377 z m 0,-2.523176 c -1.35864,0 -1.99267,-0.81518 -1.99267,-3.558325 V 40.09285 c 0,-2.83372 0.63403,-3.713597 1.99267,-3.713597 1.31981,0 1.95384,0.879877 1.95384,3.713597 v 10.053887 c 0,2.743145 -0.63403,3.558325 -1.95384,3.558325 z"
       style="letter-spacing:0.43000001px;stroke-width:1.24217904"
       id="path1937"
       inkscape:connector-curvature="0" />
    <path
       d="m 207.9809,56.034148 h 3.13133 v -7.310741 c 0,-4.48996 -0.20703,-8.410587 -0.34936,-9.963311 h 0.24584 l 3.36424,14.427392 h 2.12205 l 3.33836,-14.427392 h 0.24585 c -0.14233,1.552724 -0.34936,5.473351 -0.34936,9.963311 v 7.310741 h 3.13132 V 33.933713 h -4.28293 l -2.18675,8.55292 c -0.45288,1.889147 -0.67285,3.635961 -0.90576,5.136928 h -0.10351 c -0.23291,-1.500967 -0.45288,-3.247781 -0.90576,-5.136928 l -2.12205,-8.55292 h -4.37351 z"
       style="letter-spacing:0.43000001px;stroke-width:1.24217904"
       id="path1939"
       inkscape:connector-curvature="0" />
  </g>
  <g
     transform="matrix(0.1397804,0,0,0.1397804,-3.7944785,3.49451e-5)"
     id="g1405">
    <path
       inkscape:connector-curvature="0"
       d="M 380.546,110.125 211.552,1.586 c -3.293,-2.115 -7.515,-2.115 -10.807,0 L 31.744,110.081 c -2.866,1.84 -4.6,5.014 -4.598,8.42 l 0.041,180.039 c 0.002,3.476 1.806,6.699 4.767,8.519 l 168.961,103.75 c 1.605,0.986 3.419,1.479 5.233,1.479 1.814,0 3.629,-0.491 5.232,-1.479 L 380.352,307.1 c 2.96,-1.818 4.766,-5.043 4.767,-8.519 l 0.023,-180.039 c 10e-4,-3.405 -1.733,-6.577 -4.596,-8.417 z M 206.147,25.627 268.083,65.256 206.147,104.883 144.213,65.256 Z M 50.197,291.254 v -63.938 l 60.692,36.848 0.01,64.377 z m 60.702,-53.631 -60.703,-37.285 v -64.74 l 60.703,38.842 z M 63.22,116.834 l 59.186,-37.869 59.186,37.869 -59.186,37.869 z m 70.688,57.606 60.705,-38.844 v 64.742 l -60.705,37.285 z m 0.03,103.487 40.348,25.815 -40.348,24.783 z m 60.704,102.025 -50.232,-30.854 50.232,-30.847 z m 11.496,-82.912 -62.076,-38.765 62.076,-38.592 62.076,38.733 z m 11.515,82.912 v -61.645 l 50.194,30.812 z m 60.705,-51.381 -40.388,-24.805 40.388,-25.842 z m 0.03,-90.901 -60.703,-37.287 v -64.736 l 60.703,38.842 z m -47.68,-120.791 59.186,-37.867 59.186,37.867 -59.186,37.869 z M 362.104,291.3 301.399,328.586 v -63.17 l 60.705,-37.983 z m 0,-90.917 -60.705,37.287 v -63.182 l 60.705,-38.844 z"
       id="path1403" />
  </g>
</svg>
