<?xml version="1.0" encoding="UTF-8" standalone="no"?>
<svg
   xmlns:dc="http://purl.org/dc/elements/1.1/"
   xmlns:cc="http://creativecommons.org/ns#"
   xmlns:rdf="http://www.w3.org/1999/02/22-rdf-syntax-ns#"
   xmlns:svg="http://www.w3.org/2000/svg"
   xmlns="http://www.w3.org/2000/svg"
   xmlns:sodipodi="http://sodipodi.sourceforge.net/DTD/sodipodi-0.dtd"
   xmlns:inkscape="http://www.inkscape.org/namespaces/inkscape"
   width="196"
   height="58"
   viewBox="0 0 196 58"
   version="1.1"
   id="svg4"
   sodipodi:docname="logo_conseiller_numerique.svg"
   inkscape:version="0.92.5 (2060ec1f9f, 2020-04-08)">
  <metadata
     id="metadata10">
    <rdf:RDF>
      <cc:Work
         rdf:about="">
        <dc:format>image/svg+xml</dc:format>
        <dc:type
           rdf:resource="http://purl.org/dc/dcmitype/StillImage" />
        <dc:title></dc:title>
      </cc:Work>
    </rdf:RDF>
  </metadata>
  <defs
     id="defs8" />
  <sodipodi:namedview
     pagecolor="#ffffff"
     bordercolor="#666666"
     borderopacity="1"
     objecttolerance="10"
     gridtolerance="10"
     guidetolerance="10"
     inkscape:pageopacity="0"
     inkscape:pageshadow="2"
     inkscape:window-width="1564"
     inkscape:window-height="872"
     id="namedview6"
     showgrid="false"
     inkscape:zoom="2.3928571"
     inkscape:cx="148.98507"
     inkscape:cy="-34.0497"
     inkscape:window-x="36"
     inkscape:window-y="0"
     inkscape:window-maximized="1"
     inkscape:current-layer="svg4" />
  <g
     id="g36"
     transform="matrix(0.28210277,0,0,0.28210277,-0.6092298,-27.848302)">
    <g
       id="g34">
      <g
         id="g32">
        <path
           d="M 336.875,49.448 H 25 c -13.785,0 -25,11.215 -25,25 0,10.936 0,204.986 0,212.98 0,13.785 11.215,25 25,25 h 311.875 c 13.785,0 25,-11.215 25,-25 0,-7.763 0,-201.479 0,-212.98 0,-13.786 -11.215,-25 -25,-25 z m 15,237.98 c 0,8.271 -6.728,15 -15,15 H 25 c -8.271,0 -15,-6.729 -15,-15 v -170.96 h 341.875 z m 0,-180.961 H 10 v -32.02 c 0,-8.271 6.729,-15 15,-15 h 311.875 c 8.272,0 15,6.729 15,15 z"
           id="path2-3"
           inkscape:connector-curvature="0" />
        <path
           d="m 38.85,177.49 h 21.854 c 5.29,0 9.579,-4.289 9.579,-9.579 v -21.854 c 0,-5.29 -4.289,-9.579 -9.579,-9.579 H 38.85 c -5.29,0 -9.579,4.289 -9.579,9.579 v 21.854 c 0,5.29 4.288,9.579 9.579,9.579 z"
           id="path4"
           inkscape:connector-curvature="0" />
        <path
           d="m 91.314,177.49 h 21.854 c 5.29,0 9.579,-4.289 9.579,-9.579 v -21.854 c 0,-5.29 -4.289,-9.579 -9.579,-9.579 H 91.314 c -5.29,0 -9.579,4.289 -9.579,9.579 v 21.854 c 0,5.29 4.289,9.579 9.579,9.579 z"
           id="path6"
           inkscape:connector-curvature="0" />
        <path
           d="m 143.779,177.49 h 21.854 c 5.29,0 9.579,-4.289 9.579,-9.579 v -21.854 c 0,-5.29 -4.289,-9.579 -9.579,-9.579 h -21.854 c -5.29,0 -9.579,4.289 -9.579,9.579 v 21.854 c 0,5.29 4.288,9.579 9.579,9.579 z"
           id="path8"
           inkscape:connector-curvature="0" />
        <path
           d="m 196.243,177.49 h 21.854 c 5.29,0 9.579,-4.289 9.579,-9.579 v -21.854 c 0,-5.29 -4.289,-9.579 -9.579,-9.579 h -21.854 c -5.29,0 -9.579,4.289 -9.579,9.579 v 21.854 c 0,5.29 4.289,9.579 9.579,9.579 z"
           id="path10"
           inkscape:connector-curvature="0" />
        <path
           d="m 248.707,177.49 h 21.854 c 5.29,0 9.579,-4.289 9.579,-9.579 v -21.854 c 0,-5.29 -4.289,-9.579 -9.579,-9.579 h -21.854 c -5.29,0 -9.579,4.289 -9.579,9.579 v 21.854 c 0,5.29 4.289,9.579 9.579,9.579 z"
           id="path12"
           inkscape:connector-curvature="0" />
        <path
           d="m 301.172,177.49 h 21.854 c 5.29,0 9.579,-4.289 9.579,-9.579 v -21.854 c 0,-5.29 -4.288,-9.579 -9.579,-9.579 h -21.854 c -5.29,0 -9.579,4.289 -9.579,9.579 v 21.854 c 0,5.29 4.289,9.579 9.579,9.579 z"
           id="path14"
           inkscape:connector-curvature="0" />
        <path
           d="M 98.476,220.374 V 198.52 c 0,-5.29 -4.289,-9.579 -9.579,-9.579 H 67.043 c -5.29,0 -9.579,4.289 -9.579,9.579 v 21.854 c 0,5.29 4.288,9.579 9.579,9.579 h 21.854 c 5.29,0.001 9.579,-4.288 9.579,-9.579 z"
           id="path16"
           inkscape:connector-curvature="0" />
        <path
           d="m 141.361,229.954 c 5.29,0 9.579,-4.288 9.579,-9.579 v -21.854 c 0,-5.29 -4.289,-9.579 -9.579,-9.579 h -21.854 c -5.29,0 -9.579,4.289 -9.579,9.579 v 21.854 c 0,5.29 4.289,9.579 9.579,9.579 z"
           id="path18"
           inkscape:connector-curvature="0" />
        <path
           d="m 193.826,229.954 c 5.29,0 9.579,-4.288 9.579,-9.579 v -21.854 c 0,-5.29 -4.288,-9.579 -9.579,-9.579 h -21.854 c -5.29,0 -9.579,4.289 -9.579,9.579 v 21.854 c 0,5.29 4.289,9.579 9.579,9.579 z"
           id="path20"
           inkscape:connector-curvature="0" />
        <path
           d="m 246.29,229.954 c 5.29,0 9.579,-4.288 9.579,-9.579 v -21.854 c 0,-5.29 -4.289,-9.579 -9.579,-9.579 h -21.854 c -5.29,0 -9.579,4.289 -9.579,9.579 v 21.854 c 0,5.29 4.288,9.579 9.579,9.579 z"
           id="path22"
           inkscape:connector-curvature="0" />
        <path
           d="m 298.754,229.954 c 5.29,0 9.579,-4.288 9.579,-9.579 v -21.854 c 0,-5.29 -4.289,-9.579 -9.579,-9.579 H 276.9 c -5.29,0 -9.579,4.289 -9.579,9.579 v 21.854 c 0,5.29 4.289,9.579 9.579,9.579 z"
           id="path24"
           inkscape:connector-curvature="0" />
        <path
           d="m 38.85,282.418 h 21.854 c 5.29,0 9.579,-4.289 9.579,-9.579 v -21.853 c 0,-5.29 -4.289,-9.579 -9.579,-9.579 H 38.85 c -5.29,0 -9.579,4.289 -9.579,9.579 v 21.853 c 0,5.29 4.288,9.579 9.579,9.579 z"
           id="path26"
           inkscape:connector-curvature="0" />
        <path
           d="m 323.025,241.407 h -21.854 c -5.29,0 -9.579,4.289 -9.579,9.579 v 21.853 c 0,5.29 4.289,9.579 9.579,9.579 h 21.854 c 5.29,0 9.579,-4.289 9.579,-9.579 v -21.853 c 0,-5.29 -4.288,-9.579 -9.579,-9.579 z"
           id="path28"
           inkscape:connector-curvature="0" />
        <path
           d="M 270.561,241.407 H 91.314 c -5.29,0 -9.579,4.289 -9.579,9.579 v 21.853 c 0,5.29 4.289,9.579 9.579,9.579 h 179.247 c 5.29,0 9.579,-4.289 9.579,-9.579 v -21.853 c 0,-5.29 -4.289,-9.579 -9.579,-9.579 z"
           id="path30"
           inkscape:connector-curvature="0" />
      </g>
    </g>
  </g>
  <text
     xml:space="preserve"
     style="font-style:normal;font-weight:normal;font-size:40px;line-height:1.25;font-family:sans-serif;letter-spacing:0px;word-spacing:-0.51999998px;fill:#000000;fill-opacity:1;stroke:none"
     x="143.34328"
     y="11.19403"
     id="text211"><tspan
       sodipodi:role="line"
       id="tspan209"
       x="143.34328"
       y="46.584656" /></text>
  <text
     xml:space="preserve"
     style="font-style:normal;font-variant:normal;font-weight:bold;font-stretch:normal;font-size:22.88914108px;line-height:1.25;font-family:FreeMono;-inkscape-font-specification:'FreeMono, Bold';font-variant-ligatures:normal;font-variant-caps:normal;font-variant-numeric:normal;font-feature-settings:normal;text-align:start;letter-spacing:0px;word-spacing:-0.55792272px;writing-mode:lr-tb;text-anchor:start;fill:#000000;fill-opacity:1;stroke:none;stroke-width:1.07292831"
     x="106.3283"
     y="1.1386268"
     id="text215"><tspan
       sodipodi:role="line"
       id="tspan217"
       x="106.3283"
       y="1.1386268"
       style="stroke-width:1.07292831">VOTRE </tspan><tspan
       sodipodi:role="line"
       x="106.3283"
       y="29.750053"
       id="tspan221"
       style="stroke-width:1.07292831">CONSEILLER</tspan><tspan
       sodipodi:role="line"
       id="tspan219"
       x="106.3283"
       y="58.361481"
       style="stroke-width:1.07292831">NUMERIQUE</tspan></text>
</svg>
