<?xml version="1.0" encoding="UTF-8" standalone="no"?>
<svg
   xmlns:dc="http://purl.org/dc/elements/1.1/"
   xmlns:cc="http://creativecommons.org/ns#"
   xmlns:rdf="http://www.w3.org/1999/02/22-rdf-syntax-ns#"
   xmlns:svg="http://www.w3.org/2000/svg"
   xmlns="http://www.w3.org/2000/svg"
   xmlns:sodipodi="http://sodipodi.sourceforge.net/DTD/sodipodi-0.dtd"
   xmlns:inkscape="http://www.inkscape.org/namespaces/inkscape"
   width="196"
   height="58"
   viewBox="0 0 196 58"
   version="1.1"
   id="svg4"
   sodipodi:docname="votre-conseiller-numerique-logo.svg"
   inkscape:version="0.92.5 (2060ec1f9f, 2020-04-08)">
  <metadata
     id="metadata10">
    <rdf:RDF>
      <cc:Work
         rdf:about="">
        <dc:format>image/svg+xml</dc:format>
        <dc:type
           rdf:resource="http://purl.org/dc/dcmitype/StillImage" />
        <dc:title></dc:title>
      </cc:Work>
    </rdf:RDF>
  </metadata>
  <defs
     id="defs8" />
  <sodipodi:namedview
     pagecolor="#ffffff"
     bordercolor="#666666"
     borderopacity="1"
     objecttolerance="10"
     gridtolerance="10"
     guidetolerance="10"
     inkscape:pageopacity="0"
     inkscape:pageshadow="2"
     inkscape:window-width="1564"
     inkscape:window-height="872"
     id="namedview6"
     showgrid="false"
     inkscape:zoom="3.384011"
     inkscape:cx="113.30666"
     inkscape:cy="46.294428"
     inkscape:window-x="36"
     inkscape:window-y="0"
     inkscape:window-maximized="1"
     inkscape:current-layer="svg4" />
  <g
     transform="matrix(0.13763442,0,0,0.13763442,-2.4620664,0.85598025)"
     id="g4">
    <path
       inkscape:connector-curvature="0"
       d="M 380.546,110.125 211.552,1.586 c -3.293,-2.115 -7.515,-2.115 -10.807,0 L 31.744,110.081 c -2.866,1.84 -4.6,5.014 -4.598,8.42 l 0.041,180.039 c 0.002,3.476 1.806,6.699 4.767,8.519 l 168.961,103.75 c 1.605,0.986 3.419,1.479 5.233,1.479 1.814,0 3.629,-0.491 5.232,-1.479 L 380.352,307.1 c 2.96,-1.818 4.766,-5.043 4.767,-8.519 l 0.023,-180.039 c 10e-4,-3.405 -1.733,-6.577 -4.596,-8.417 z M 206.147,25.627 268.083,65.256 206.147,104.883 144.213,65.256 Z M 50.197,291.254 v -63.938 l 60.692,36.848 0.01,64.377 z m 60.702,-53.631 -60.703,-37.285 v -64.74 l 60.703,38.842 z M 63.22,116.834 l 59.186,-37.869 59.186,37.869 -59.186,37.869 z m 70.688,57.606 60.705,-38.844 v 64.742 l -60.705,37.285 z m 0.03,103.487 40.348,25.815 -40.348,24.783 z m 60.704,102.025 -50.232,-30.854 50.232,-30.847 z m 11.496,-82.912 -62.076,-38.765 62.076,-38.592 62.076,38.733 z m 11.515,82.912 v -61.645 l 50.194,30.812 z m 60.705,-51.381 -40.388,-24.805 40.388,-25.842 z m 0.03,-90.901 -60.703,-37.287 v -64.736 l 60.703,38.842 z m -47.68,-120.791 59.186,-37.867 59.186,37.867 -59.186,37.869 z M 362.104,291.3 301.399,328.586 v -63.17 l 60.705,-37.983 z m 0,-90.917 -60.705,37.287 v -63.182 l 60.705,-38.844 z"
       id="path2-3" />
  </g>
  <text
     xml:space="preserve"
     style="font-style:normal;font-variant:normal;font-weight:normal;font-stretch:normal;font-size:22.41345596px;line-height:1.25;font-family:FjallaOne;-inkscape-font-specification:'FjallaOne, Normal';font-variant-ligatures:normal;font-variant-caps:normal;font-variant-numeric:normal;font-feature-settings:normal;text-align:start;letter-spacing:0px;word-spacing:-0.48562485px;writing-mode:lr-tb;text-anchor:start;fill:#000000;fill-opacity:1;stroke:none;stroke-width:0.93389398"
     x="55.721264"
     y="22.15304"
     id="text23"
     transform="scale(0.93389395,1.0707854)"><tspan
       sodipodi:role="line"
       id="tspan25"
       x="55.721264"
       y="22.15304"
       style="stroke-width:0.93389398">VOTRE <tspan
   style="fill:#ffd700;stroke-width:0.93389398"
   id="tspan29">CONSEILLER</tspan> </tspan><tspan
       sodipodi:role="line"
       id="tspan27"
       x="55.721264"
       y="50.169861"
       style="stroke-width:0.93389398"><tspan
   style="fill:#ffd700;stroke-width:0.93389398;word-spacing:-0.27px;letter-spacing:0.87px"
   id="tspan33">NUMERIQUE</tspan> .COM</tspan></text>
</svg>
