<?xml version="1.0" encoding="UTF-8" standalone="no"?>
<svg
   xmlns:dc="http://purl.org/dc/elements/1.1/"
   xmlns:cc="http://creativecommons.org/ns#"
   xmlns:rdf="http://www.w3.org/1999/02/22-rdf-syntax-ns#"
   xmlns:svg="http://www.w3.org/2000/svg"
   xmlns="http://www.w3.org/2000/svg"
   xmlns:sodipodi="http://sodipodi.sourceforge.net/DTD/sodipodi-0.dtd"
   xmlns:inkscape="http://www.inkscape.org/namespaces/inkscape"
   id="Filled"
   viewBox="0 0 500 500"
   width="500"
   height="500"
   version="1.1"
   sodipodi:docname="votre-conseiller-numerique-developpeur.svg"
   inkscape:version="0.92.5 (2060ec1f9f, 2020-04-08)">
  <metadata
     id="metadata69">
    <rdf:RDF>
      <cc:Work
         rdf:about="">
        <dc:format>image/svg+xml</dc:format>
        <dc:type
           rdf:resource="http://purl.org/dc/dcmitype/StillImage" />
        <dc:title></dc:title>
      </cc:Work>
    </rdf:RDF>
  </metadata>
  <defs
     id="defs67" />
  <sodipodi:namedview
     pagecolor="#ffffff"
     bordercolor="#666666"
     borderopacity="1"
     objecttolerance="10"
     gridtolerance="10"
     guidetolerance="10"
     inkscape:pageopacity="0"
     inkscape:pageshadow="2"
     inkscape:window-width="1564"
     inkscape:window-height="872"
     id="namedview65"
     showgrid="false"
     inkscape:zoom="0.4609375"
     inkscape:cx="240"
     inkscape:cy="256.27119"
     inkscape:window-x="36"
     inkscape:window-y="0"
     inkscape:window-maximized="1"
     inkscape:current-layer="Filled" />
  <path
     d="M 226.057,52.889 A 59.881,59.881 0 0 0 205.386,56.576 106.665,106.665 0 0 0 132.8,28 C 72.711,28 24,78.144 24,140 c 0,61.856 48.711,112 108.8,112 a 107.055,107.055 0 0 0 78.942,-34.931 59.606,59.606 0 0 0 14.315,1.746 c 38.629,0 69.943,-37.144 69.943,-82.963 0,-45.819 -31.314,-82.963 -69.943,-82.963 z"
     style="fill:#a0522d"
     id="path2"
     inkscape:connector-curvature="0" />
  <circle
     cx="264"
     cy="220"
     r="32"
     style="fill:#f0c6a4"
     id="circle4" />
  <circle
     cx="56"
     cy="220"
     r="32"
     style="fill:#f0c6a4"
     id="circle6" />
  <path
     d="m 264,157 v 55 a 104,104 0 1 1 -208,0 v -32 c 60,0 98,-30 121,-60 0.37,-0.49 0.74,-0.97 1.11,-1.46 15.27,14.4 46.65,38.46 85.89,38.46 z"
     style="fill:#f7cca9"
     id="path8"
     inkscape:connector-curvature="0" />
  <circle
     cx="120"
     cy="212"
     r="24"
     style="fill:none"
     id="circle10" />
  <circle
     cx="200"
     cy="212"
     r="24"
     style="fill:none"
     id="circle12" />
  <path
     d="m 40,316 h 240 a 32,32 0 0 1 32,32 V 492 H 8 V 348 a 32,32 0 0 1 32,-32 z"
     style="fill:#ffd700"
     id="path14"
     inkscape:connector-curvature="0" />
  <path
     d="m 136,460 h 16 a 32,32 0 0 1 32,32 v 0 h -80 v 0 a 32,32 0 0 1 32,-32 z"
     style="fill:#d0d2d4"
     id="path16"
     inkscape:connector-curvature="0" />
  <path
     d="m 152,460 a 32,32 0 0 1 32,32 h -40 v -32 z"
     style="fill:#e9eef2"
     id="path18"
     inkscape:connector-curvature="0" />
  <rect
     x="264"
     y="300"
     width="208"
     height="160"
     style="fill:#e9eef2"
     id="rect20" />
  <rect
     x="232"
     y="460"
     width="240"
     height="32"
     style="fill:#c3c6c7"
     id="rect22" />
  <path
     d="m 200,316 c 0,17.673 -17.909,32 -40,32 -22.091,0 -40,-14.327 -40,-32 z"
     style="fill:#f7cca9"
     id="path24"
     inkscape:connector-curvature="0" />
  <circle
     cx="120"
     cy="212"
     r="8"
     id="circle26" />
  <circle
     cx="200"
     cy="212"
     r="8"
     id="circle28" />
  <path
     d="M 491.66667,283.33333 H 275 a 8.3333333,8.3333333 0 0 0 -8.33333,8.33334 V 300 h -39.96771 a 117.46771,117.46771 0 0 0 45.3625,-50 H 275 a 41.64375,41.64375 0 0 0 26.34792,-73.91146 106.22083,106.22083 0 0 0 15.31875,-55.40937 c 0,-52.24792 -36.42188,-94.753128 -81.18959,-94.753128 A 70.444792,70.444792 0 0 0 215.89375,28.698958 119.47083,119.47083 0 0 0 138.33333,0 C 71.25,0 16.666667,56.075 16.666667,125 A 127.98438,127.98438 0 0 0 28.652083,179.12187 41.644792,41.644792 0 0 0 58.333333,250 h 2.938542 a 117.46771,117.46771 0 0 0 45.362505,50 H 41.666667 A 41.713542,41.713542 0 0 0 0,341.66667 v 150 A 8.3333333,8.3333333 0 0 0 8.333333,500 H 491.66667 A 8.3333333,8.3333333 0 0 0 500,491.66667 v -200 a 8.3333333,8.3333333 0 0 0 -8.33333,-8.33334 z M 483.33333,300 v 150 h -200 V 300 Z m -285.24479,16.66667 c -4.58333,9.69895 -16.9375,16.66666 -31.42187,16.66666 -14.48438,0 -26.83542,-6.96771 -31.42188,-16.66666 z M 278.55,233.07708 A 116.30417,116.30417 0 0 0 283.33333,200 V 184.76667 A 25,25 0 0 1 278.55,233.07708 Z M 300,120.67917 a 89.166667,89.166667 0 0 1 -13.425,47.62812 c -1.06458,-0.3125 -2.14479,-0.58021 -3.24167,-0.80312 V 142.70833 A 8.3333333,8.3333333 0 0 0 275,134.375 c -33.66042,0 -61.50729,-18.30938 -78.35104,-32.90104 20.37187,-29.375002 27.74062,-56.427085 28.06875,-57.659377 L 224.45833,43.75 a 53.757292,53.757292 0 0 1 11.01875,-1.152083 C 271.05521,42.592708 300,77.621875 300,120.67917 Z M 33.333333,125 c 0,-59.735417 47.103125,-108.333333 104.999997,-108.333333 A 102.94375,102.94375 0 0 1 207.39583,43.4375 197.4375,197.4375 0 0 1 177.40938,99.552083 C 147.30833,138.55625 107.24479,158.33333 58.333333,158.33333 A 8.3333333,8.3333333 0 0 0 50,166.66667 V 167.5 A 41.239583,41.239583 0 0 0 42.677083,169.72292 111.41042,111.41042 0 0 1 33.333333,125 Z M 125,175 a 25,25 0 1 1 -25,25 25.029167,25.029167 0 0 1 25,-25 z M 84.17188,191.66667 H 66.666667 v -16.84896 a 172.76667,172.76667 0 0 0 28.197913,-3.54167 41.596875,41.596875 0 0 0 -10.6927,20.39063 z M 33.333333,208.33333 A 25.040625,25.040625 0 0 1 50,184.76667 V 200 a 116.30417,116.30417 0 0 0 4.783333,33.07708 25.036458,25.036458 0 0 1 -21.45,-24.74375 z m 33.683334,0 H 84.17188 a 41.666667,41.666667 0 1 0 47.13125,-49.52291 167.075,167.075 0 0 0 55.26458,-44.02709 c 17.58437,15.04167 45.63125,33.33334 80.10416,35.94271 v 40.94063 h -17.5052 a 41.666667,41.666667 0 1 0 0,16.66666 h 17.1552 a 100,100 0 0 1 -199.299995,0 z M 233.33333,200 a 25,25 0 1 1 -25,-25 25.029167,25.029167 0 0 1 25,25 z M 181.9,483.33333 H 158.33333 V 466.66667 A 25.040625,25.040625 0 0 1 181.9,483.33333 Z m -40.23333,0 H 118.1 a 25.040625,25.040625 0 0 1 23.56667,-16.66666 z m 91.66666,-25 v 25 H 199.16667 A 41.738542,41.738542 0 0 0 158.33333,450 h -16.66666 a 41.738542,41.738542 0 0 0 -40.82813,33.33333 H 16.666667 V 341.66667 a 25.029167,25.029167 0 0 1 25,-25 H 117.67292 C 122.31875,335.66146 142.51979,350 166.66667,350 c 24.14687,0 44.34791,-14.33854 48.99375,-33.33333 h 51.00625 V 450 h -25 a 8.3333333,8.3333333 0 0 0 -8.33334,8.33333 z m 250,25 H 250 v -16.66666 h 233.33333 z"
     id="path30"
     inkscape:connector-curvature="0"
     style="stroke-width:1.04166663" />
  <path
     d="m 296,340 h 16 a 8,8 0 0 0 0,-16 h -16 a 8,8 0 0 0 0,16 z"
     id="path32"
     inkscape:connector-curvature="0" />
  <path
     d="m 296,372 h 16 a 8,8 0 0 0 0,-16 h -16 a 8,8 0 0 0 0,16 z"
     id="path34"
     inkscape:connector-curvature="0" />
  <path
     d="m 376,388 h -16 a 8,8 0 0 0 0,16 h 16 a 8,8 0 0 0 0,-16 z"
     id="path36"
     inkscape:connector-curvature="0" />
  <circle
     cx="296"
     cy="396"
     r="8"
     id="circle38" />
  <path
     d="m 376,372 h 16 a 8,8 0 0 0 0,-16 h -16 a 8,8 0 0 0 0,16 z"
     id="path40"
     inkscape:connector-curvature="0" />
  <path
     d="m 344,340 h 16 a 8,8 0 0 0 0,-16 h -16 a 8,8 0 0 0 0,16 z"
     id="path42"
     inkscape:connector-curvature="0" />
  <circle
     cx="392"
     cy="332"
     r="8"
     id="circle44" />
  <circle
     cx="344"
     cy="364"
     r="8"
     id="circle46" />
  <circle
     cx="296"
     cy="428"
     r="8"
     id="circle48" />
  <circle
     cx="328"
     cy="396"
     r="8"
     id="circle50" />
  <circle
     cx="376"
     cy="428"
     r="8"
     id="circle52" />
  <circle
     cx="408"
     cy="428"
     r="8"
     id="circle54" />
  <circle
     cx="408"
     cy="396"
     r="8"
     id="circle56" />
  <circle
     cx="424"
     cy="364"
     r="8"
     id="circle58" />
  <path
     d="m 344,420 h -16 a 8,8 0 0 0 0,16 h 16 a 8,8 0 0 0 0,-16 z"
     id="path60"
     inkscape:connector-curvature="0" />
  <path
     d="m 179.562,261.344 c -13.345,8.9 -25.779,8.9 -39.124,0 a 8,8 0 1 0 -8.876,13.312 c 9.3,6.2 18.871,9.3 28.438,9.3 9.567,0 19.136,-3.1 28.438,-9.3 a 8,8 0 0 0 -8.876,-13.312 z"
     id="path62"
     inkscape:connector-curvature="0" />
</svg>
